999
dxfrw 0.6.3
  0
SECTION
  2
HEADER
  9
$ACADVER
  1
AC1021
  9
$DWGCODEPAGE
  3
ANSI_1252
  9
$INSBASE
 10
0
 20
0
 30
0
  9
$EXTMIN
 10
-8.500000000000005
 20
-80
 30
0
  9
$EXTMAX
 10
210
 20
192.5
 30
0
  9
$LIMMIN
 10
0
 20
0
  9
$LIMMAX
 10
420
 20
297
  9
$ORTHOMODE
 70
    0
  9
$REGENMODE
 70
    1
  9
$FILLMODE
 70
    1
  9
$QTEXTMODE
 70
    0
  9
$MIRRTEXT
 70
    0
  9
$LTSCALE
 40
1
  9
$ATTMODE
 70
    0
  9
$TEXTSIZE
 40
2.5
  9
$TRACEWID
 40
15.68
  9
$TEXTSTYLE
  7
STANDARD
  9
$CLAYER
  8
karkas
  9
$CELTYPE
  6
BYLAYER
  9
$CECOLOR
 62
  256
  9
$CELTSCALE
 40
1
  9
$DISPSILH
 70
    0
  9
$DIMSCALE
 40
1
  9
$DIMASZ
 40
2.5
  9
$DIMEXO
 40
1
  9
$DIMDLI
 40
3.75
  9
$DIMRND
 40
0
  9
$DIMDLE
 40
0
  9
$DIMEXE
 40
2
  9
$DIMTP
 40
0
  9
$DIMTM
 40
0
  9
$DIMTXT
 40
2.5
  9
$DIMCEN
 40
2.5
  9
$DIMTSZ
 40
0
  9
$DIMTOL
 70
    0
  9
$DIMLIM
 70
    0
  9
$DIMTIH
 70
    0
  9
$DIMTOH
 70
    0
  9
$DIMSE1
 70
    0
  9
$DIMSE2
 70
    0
  9
$DIMTAD
 70
    1
  9
$DIMZIN
 70
    8
  9
$DIMBLK
  1

  9
$DIMASO
 70
    1
  9
$DIMSHO
 70
    1
  9
$DIMPOST
  1

  9
$DIMAPOST
  1

  9
$DIMALT
 70
    0
  9
$DIMALTD
 70
    3
  9
$DIMALTF
 40
0.03937
  9
$DIMLFAC
 40
1
  9
$DIMTOFL
 70
    1
  9
$DIMTVP
 40
0
  9
$DIMTIX
 70
    0
  9
$DIMSOXD
 70
    0
  9
$DIMSAH
 70
    0
  9
$DIMBLK1
  1

  9
$DIMBLK2
  1

  9
$DIMSTYLE
  2
STANDARD
  9
$DIMCLRD
 70
    0
  9
$DIMCLRE
 70
    0
  9
$DIMCLRT
 70
    0
  9
$DIMTFAC
 40
1
  9
$DIMGAP
 40
1
  9
$DIMJUST
 70
    0
  9
$DIMSD1
 70
    0
  9
$DIMSD2
 70
    0
  9
$DIMTOLJ
 70
    0
  9
$DIMTZIN
 70
    8
  9
$DIMALTZ
 70
    0
  9
$DIMALTTZ
 70
    0
  9
$DIMUPT
 70
    0
  9
$DIMDEC
 70
    1
  9
$DIMTDEC
 70
    2
  9
$DIMALTU
 70
    2
  9
$DIMALTTD
 70
    3
  9
$DIMTXSTY
  7
standard
  9
$DIMAUNIT
 70
    0
  9
$DIMADEC
 70
    0
  9
$DIMALTRND
 40
0
  9
$DIMAZIN
 70
    0
  9
$DIMDSEP
 70
   44
  9
$DIMATFIT
 70
    3
  9
$DIMFRAC
 70
    0
  9
$DIMLDRBLK
  1
STANDARD
  9
$DIMLUNIT
 70
    2
  9
$DIMLWD
 70
   -2
  9
$DIMLWE
 70
   -2
  9
$DIMTMOVE
 70
    0
  9
$DIMFXL
 40
1
  9
$DIMFXLON
 70
    0
  9
$DIMJOGANG
 40
0.7854
  9
$DIMTFILL
 70
    0
  9
$DIMTFILLCLR
 70
    0
  9
$DIMARCSYM
 70
    0
  9
$DIMLTYPE
  6

  9
$DIMLTEX1
  6

  9
$DIMLTEX2
  6

  9
$LUNITS
 70
    2
  9
$LUPREC
 70
    2
  9
$SKETCHINC
 40
1
  9
$FILLETRAD
 40
0
  9
$AUNITS
 70
    0
  9
$AUPREC
 70
    2
  9
$MENU
  1
.
  9
$ELEVATION
 40
0
  9
$PELEVATION
 40
0
  9
$THICKNESS
 40
0
  9
$LIMCHECK
 70
    0
  9
$CHAMFERA
 40
0
  9
$CHAMFERB
 40
0
  9
$CHAMFERC
 40
0
  9
$CHAMFERD
 40
0
  9
$SKPOLY
 70
    0
  9
$USRTIMER
 70
    1
  9
$ANGBASE
 50
0
  9
$ANGDIR
 70
    0
  9
$PDMODE
 70
   34
  9
$PDSIZE
 40
0
  9
$PLINEWID
 40
0
  9
$SPLFRAME
 70
    0
  9
$SPLINETYPE
 70
    2
  9
$SPLINESEGS
 70
    8
  9
$HANDSEED
  5
20000
  9
$SURFTAB1
 70
    6
  9
$SURFTAB2
 70
    6
  9
$SURFTYPE
 70
    6
  9
$SURFU
 70
    6
  9
$SURFV
 70
    6
  9
$UCSBASE
  2

  9
$UCSNAME
  2

  9
$UCSORG
 10
0
 20
0
 30
0
  9
$UCSXDIR
 10
1
 20
0
 30
0
  9
$UCSYDIR
 10
0
 20
1
 30
0
  9
$UCSORTHOREF
  2

  9
$UCSORTHOVIEW
 70
    0
  9
$UCSORGTOP
 10
0
 20
0
 30
0
  9
$UCSORGBOTTOM
 10
0
 20
0
 30
0
  9
$UCSORGLEFT
 10
0
 20
0
 30
0
  9
$UCSORGRIGHT
 10
0
 20
0
 30
0
  9
$UCSORGFRONT
 10
0
 20
0
 30
0
  9
$UCSORGBACK
 10
0
 20
0
 30
0
  9
$PUCSBASE
  2

  9
$PUCSNAME
  2

  9
$PUCSORG
 10
0
 20
0
 30
0
  9
$PUCSXDIR
 10
1
 20
0
 30
0
  9
$PUCSYDIR
 10
0
 20
1
 30
0
  9
$PUCSORTHOREF
  2

  9
$PUCSORTHOVIEW
 70
    0
  9
$PUCSORGTOP
 10
0
 20
0
 30
0
  9
$PUCSORGBOTTOM
 10
0
 20
0
 30
0
  9
$PUCSORGLEFT
 10
0
 20
0
 30
0
  9
$PUCSORGRIGHT
 10
0
 20
0
 30
0
  9
$PUCSORGFRONT
 10
0
 20
0
 30
0
  9
$PUCSORGBACK
 10
0
 20
0
 30
0
  9
$USERI1
 70
    0
  9
$USERI2
 70
    0
  9
$USERI3
 70
    0
  9
$USERI4
 70
    0
  9
$USERI5
 70
    0
  9
$USERR1
 40
0
  9
$USERR2
 40
0
  9
$USERR3
 40
0
  9
$USERR4
 40
0
  9
$USERR5
 40
0
  9
$WORLDVIEW
 70
    1
  9
$SHADEDGE
 70
    3
  9
$SHADEDIF
 70
   70
  9
$TILEMODE
 70
    1
  9
$MAXACTVP
 70
   64
  9
$PINSBASE
 10
4.875242326332796
 20
3.68578352180937
 30
0
  9
$PLIMCHECK
 70
    0
  9
$PEXTMIN
 10
0
 20
0
 30
0
  9
$PEXTMAX
 10
0
 20
0
 30
0
  9
$GRIDMODE
 70
    1
  9
$SNAPSTYLE
 70
    0
  9
$GRIDUNIT
 10
0
 20
0
  9
$PLIMMIN
 10
0
 20
0
  9
$PLIMMAX
 10
29.7
 20
21
  9
$UNITMODE
 70
    0
  9
$VISRETAIN
 70
    1
  9
$PLINEGEN
 70
    0
  9
$PSLTSCALE
 70
    1
  9
$TREEDEPTH
 70
 3020
  9
$CMLSTYLE
  2
Standard
  9
$CMLJUST
 70
    0
  9
$CMLSCALE
 40
20
  9
$PROXYGRAPHICS
 70
    1
  9
$MEASUREMENT
 70
    1
  9
$CELWEIGHT
370
   -1
  9
$ENDCAPS
280
    0
  9
$JOINSTYLE
280
    0
  9
$LWDISPLAY
290
    0
  9
$INSUNITS
 70
    5
  9
$HYPERLINKBASE
  1

  9
$STYLESHEET
  1

  9
$XEDIT
290
    1
  9
$CEPSNTYPE
380
    0
  9
$PSTYLEMODE
290
    1
  9
$EXTNAMES
290
    1
  9
$PSVPSCALE
 40
0.07471719541535289
  9
$OLESTARTUP
290
    0
  9
$SORTENTS
280
  127
  9
$INDEXCTL
280
    0
  9
$HIDETEXT
280
    1
  9
$XCLIPFRAME
290
    0
  9
$HALOGAP
280
    0
  9
$OBSCOLOR
 70
  257
  9
$OBSLTYPE
280
    0
  9
$INTERSECTIONDISPLAY
280
    0
  9
$INTERSECTIONCOLOR
 70
  257
  9
$DIMASSOC
280
    1
  9
$PROJECTNAME
  1

  9
$CAMERADISPLAY
290
    0
  9
$LENSLENGTH
 40
50
  9
$CAMERAHEIGHT
 40
0
  9
$STEPSPERSEC
 40
2
  9
$STEPSIZE
 40
50
  9
$3DDWFPREC
 40
2
  9
$PSOLWIDTH
 40
5
  9
$PSOLHEIGHT
 40
80
  9
$LOFTANG1
 40
1.570796326794897
  9
$LOFTANG2
 40
1.570796326794897
  9
$LOFTMAG1
 40
0
  9
$LOFTMAG2
 40
0
  9
$LOFTPARAM
 70
    7
  9
$LOFTNORMALS
280
    1
  9
$LATITUDE
 40
1
  9
$LONGITUDE
 40
1
  9
$NORTHDIRECTION
 40
0
  9
$TIMEZONE
 70
-8000
  9
$LIGHTGLYPHDISPLAY
280
    1
  9
$TILEMODELIGHTSYNCH
280
    1
  9
$SOLIDHIST
280
    1
  9
$SHOWHIST
280
    1
  9
$DWFFRAME
280
    2
  9
$DGNFRAME
280
    0
  9
$REALWORLDSCALE
290
    1
  9
$INTERFERECOLOR
 62
    1
  9
$CSHADOW
280
    0
  9
$SHADOWPLANELOCATION
 40
0
  0
ENDSEC
  0
SECTION
  2
CLASSES
  0
ENDSEC
  0
SECTION
  2
TABLES
  0
TABLE
  2
VPORT
  5
8
330
0
100
AcDbSymbolTable
 70
    1
  0
VPORT
  5
31
330
2
100
AcDbSymbolTableRecord
100
AcDbViewportTableRecord
  2
*ACTIVE
 70
    0
 10
0
 20
0
 11
1
 21
1
 12
189.6554709141274
 22
98.31890581717452
 13
0
 23
0
 14
10
 24
10
 15
10
 25
10
 16
0
 26
0
 36
1
 17
0
 27
0
 37
0
 40
280.0484764542936
 41
1.987870619946092
 42
50
 43
0
 44
0
 50
0
 51
0
 71
    0
 72
  100
 73
    1
 74
    3
 75
    0
 76
    1
 77
    0
 78
    0
281
    0
 65
    1
110
0
120
0
130
0
111
1
121
0
131
0
112
0
122
1
132
0
 79
    0
146
0
348
10020
 60
    7
 61
    5
292
1
282
    1
141
0
142
0
 63
  250
421
3358443
  0
ENDTAB
  0
TABLE
  2
LTYPE
  5
5
330
0
100
AcDbSymbolTable
 70
    4
  0
LTYPE
  5
14
330
5
100
AcDbSymbolTableRecord
100
AcDbLinetypeTableRecord
  2
ByBlock
 70
    0
  3

 72
   65
 73
    0
 40
0
  0
LTYPE
  5
15
330
5
100
AcDbSymbolTableRecord
100
AcDbLinetypeTableRecord
  2
ByLayer
 70
    0
  3

 72
   65
 73
    0
 40
0
  0
LTYPE
  5
16
330
5
100
AcDbSymbolTableRecord
100
AcDbLinetypeTableRecord
  2
Continuous
 70
    0
  3
Solid line
 72
   65
 73
    0
 40
0
  0
LTYPE
  5
32
330
5
100
AcDbSymbolTableRecord
100
AcDbLinetypeTableRecord
  2
DOT
 70
    0
  3
Dot . . . . . . . . . . . . . . . . . . . . . .
 72
   65
 73
    2
 40
6.35
 49
0
 74
    0
 49
-6.35
 74
    0
  0
LTYPE
  5
33
330
5
100
AcDbSymbolTableRecord
100
AcDbLinetypeTableRecord
  2
DOTTINY
 70
    0
  3
Dot (.15x) .....................................
 72
   65
 73
    2
 40
0.9525
 49
0
 74
    0
 49
-0.9525
 74
    0
  0
LTYPE
  5
34
330
5
100
AcDbSymbolTableRecord
100
AcDbLinetypeTableRecord
  2
DOT2
 70
    0
  3
Dot (.5x) .....................................
 72
   65
 73
    2
 40
3.175
 49
0
 74
    0
 49
-3.175
 74
    0
  0
LTYPE
  5
35
330
5
100
AcDbSymbolTableRecord
100
AcDbLinetypeTableRecord
  2
DOTX2
 70
    0
  3
Dot (2x) .  .  .  .  .  .  .  .  .  .  .  .  .
 72
   65
 73
    2
 40
12.7
 49
0
 74
    0
 49
-12.7
 74
    0
  0
LTYPE
  5
36
330
5
100
AcDbSymbolTableRecord
100
AcDbLinetypeTableRecord
  2
DASHED
 70
    0
  3
Dashed _ _ _ _ _ _ _ _ _ _ _ _ _ _ _ _ _
 72
   65
 73
    2
 40
19.05
 49
12.7
 74
    0
 49
-6.35
 74
    0
  0
LTYPE
  5
37
330
5
100
AcDbSymbolTableRecord
100
AcDbLinetypeTableRecord
  2
DASHEDTINY
 70
    0
  3
Dashed (.15x) _ _ _ _ _ _ _ _ _ _ _ _ _ _ _ _ _
 72
   65
 73
    2
 40
2.8575
 49
1.905
 74
    0
 49
-0.9525
 74
    0
  0
LTYPE
  5
38
330
5
100
AcDbSymbolTableRecord
100
AcDbLinetypeTableRecord
  2
DASHED2
 70
    0
  3
Dashed (.5x) _ _ _ _ _ _ _ _ _ _ _ _ _ _ _ _ _
 72
   65
 73
    2
 40
9.524999999999999
 49
6.35
 74
    0
 49
-3.175
 74
    0
  0
LTYPE
  5
39
330
5
100
AcDbSymbolTableRecord
100
AcDbLinetypeTableRecord
  2
DASHEDX2
 70
    0
  3
Dashed (2x) ____  ____  ____  ____  ____  ___
 72
   65
 73
    2
 40
38.09999999999999
 49
25.4
 74
    0
 49
-12.7
 74
    0
  0
LTYPE
  5
3A
330
5
100
AcDbSymbolTableRecord
100
AcDbLinetypeTableRecord
  2
DASHDOT
 70
    0
  3
Dash dot __ . __ . __ . __ . __ . __ . __ . __
 72
   65
 73
    4
 40
25.4
 49
12.7
 74
    0
 49
-6.35
 74
    0
 49
0
 74
    0
 49
-6.35
 74
    0
  0
LTYPE
  5
3B
330
5
100
AcDbSymbolTableRecord
100
AcDbLinetypeTableRecord
  2
DASHDOTTINY
 70
    0
  3
Dash dot (.15x) _._._._._._._._._._._._._._._.
 72
   65
 73
    4
 40
3.81
 49
1.905
 74
    0
 49
-0.9525
 74
    0
 49
0
 74
    0
 49
-0.9525
 74
    0
  0
LTYPE
  5
3C
330
5
100
AcDbSymbolTableRecord
100
AcDbLinetypeTableRecord
  2
DASHDOT2
 70
    0
  3
Dash dot (.5x) _._._._._._._._._._._._._._._.
 72
   65
 73
    4
 40
12.7
 49
6.35
 74
    0
 49
-3.175
 74
    0
 49
0
 74
    0
 49
-3.175
 74
    0
  0
LTYPE
  5
3D
330
5
100
AcDbSymbolTableRecord
100
AcDbLinetypeTableRecord
  2
DASHDOTX2
 70
    0
  3
Dash dot (2x) ____  .  ____  .  ____  .  ___
 72
   65
 73
    4
 40
50.8
 49
25.4
 74
    0
 49
-12.7
 74
    0
 49
0
 74
    0
 49
-12.7
 74
    0
  0
LTYPE
  5
3E
330
5
100
AcDbSymbolTableRecord
100
AcDbLinetypeTableRecord
  2
DIVIDE
 70
    0
  3
Divide ____ . . ____ . . ____ . . ____ . . ____
 72
   65
 73
    6
 40
31.75
 49
12.7
 74
    0
 49
-6.35
 74
    0
 49
0
 74
    0
 49
-6.35
 74
    0
 49
0
 74
    0
 49
-6.35
 74
    0
  0
LTYPE
  5
3F
330
5
100
AcDbSymbolTableRecord
100
AcDbLinetypeTableRecord
  2
DIVIDETINY
 70
    0
  3
Divide (.15x) __..__..__..__..__..__..__..__.._
 72
   65
 73
    6
 40
4.7625
 49
1.905
 74
    0
 49
-0.9525
 74
    0
 49
0
 74
    0
 49
-0.9525
 74
    0
 49
0
 74
    0
 49
-0.9525
 74
    0
  0
LTYPE
  5
40
330
5
100
AcDbSymbolTableRecord
100
AcDbLinetypeTableRecord
  2
DIVIDE2
 70
    0
  3
Divide (.5x) __..__..__..__..__..__..__..__.._
 72
   65
 73
    6
 40
15.875
 49
6.35
 74
    0
 49
-3.175
 74
    0
 49
0
 74
    0
 49
-3.175
 74
    0
 49
0
 74
    0
 49
-3.175
 74
    0
  0
LTYPE
  5
41
330
5
100
AcDbSymbolTableRecord
100
AcDbLinetypeTableRecord
  2
DIVIDEX2
 70
    0
  3
Divide (2x) ________  .  .  ________  .  .  _
 72
   65
 73
    6
 40
63.5
 49
25.4
 74
    0
 49
-12.7
 74
    0
 49
0
 74
    0
 49
-12.7
 74
    0
 49
0
 74
    0
 49
-12.7
 74
    0
  0
LTYPE
  5
42
330
5
100
AcDbSymbolTableRecord
100
AcDbLinetypeTableRecord
  2
BORDER
 70
    0
  3
Border __ __ . __ __ . __ __ . __ __ . __ __ .
 72
   65
 73
    6
 40
44.45
 49
12.7
 74
    0
 49
-6.35
 74
    0
 49
12.7
 74
    0
 49
-6.35
 74
    0
 49
0
 74
    0
 49
-6.35
 74
    0
  0
LTYPE
  5
43
330
5
100
AcDbSymbolTableRecord
100
AcDbLinetypeTableRecord
  2
BORDERTINY
 70
    0
  3
Border (.15x) __.__.__.__.__.__.__.__.__.__.__.
 72
   65
 73
    6
 40
6.6675
 49
1.905
 74
    0
 49
-0.9525
 74
    0
 49
1.905
 74
    0
 49
-0.9525
 74
    0
 49
0
 74
    0
 49
-0.9525
 74
    0
  0
LTYPE
  5
44
330
5
100
AcDbSymbolTableRecord
100
AcDbLinetypeTableRecord
  2
BORDER2
 70
    0
  3
Border (.5x) __.__.__.__.__.__.__.__.__.__.__.
 72
   65
 73
    6
 40
22.225
 49
6.35
 74
    0
 49
-3.175
 74
    0
 49
6.35
 74
    0
 49
-3.175
 74
    0
 49
0
 74
    0
 49
-3.175
 74
    0
  0
LTYPE
  5
45
330
5
100
AcDbSymbolTableRecord
100
AcDbLinetypeTableRecord
  2
BORDERX2
 70
    0
  3
Border (2x) ____  ____  .  ____  ____  .  ___
 72
   65
 73
    6
 40
88.89999999999999
 49
25.4
 74
    0
 49
-12.7
 74
    0
 49
25.4
 74
    0
 49
-12.7
 74
    0
 49
0
 74
    0
 49
-12.7
 74
    0
  0
LTYPE
  5
46
330
5
100
AcDbSymbolTableRecord
100
AcDbLinetypeTableRecord
  2
CENTER
 70
    0
  3
Center ____ _ ____ _ ____ _ ____ _ ____ _ ____
 72
   65
 73
    4
 40
50.8
 49
31.75
 74
    0
 49
-6.35
 74
    0
 49
6.35
 74
    0
 49
-6.35
 74
    0
  0
LTYPE
  5
47
330
5
100
AcDbSymbolTableRecord
100
AcDbLinetypeTableRecord
  2
CENTERTINY
 70
    0
  3
Center (.15x) ___ _ ___ _ ___ _ ___ _ ___ _ ___
 72
   65
 73
    4
 40
7.619999999999999
 49
4.7625
 74
    0
 49
-0.9525
 74
    0
 49
0.9525
 74
    0
 49
-0.9525
 74
    0
  0
LTYPE
  5
48
330
5
100
AcDbSymbolTableRecord
100
AcDbLinetypeTableRecord
  2
CENTER2
 70
    0
  3
Center (.5x) ___ _ ___ _ ___ _ ___ _ ___ _ ___
 72
   65
 73
    4
 40
28.575
 49
19.05
 74
    0
 49
-3.175
 74
    0
 49
3.175
 74
    0
 49
-3.175
 74
    0
  0
LTYPE
  5
49
330
5
100
AcDbSymbolTableRecord
100
AcDbLinetypeTableRecord
  2
CENTERX2
 70
    0
  3
Center (2x) ________  __  ________  __  _____
 72
   65
 73
    4
 40
101.6
 49
63.5
 74
    0
 49
-12.7
 74
    0
 49
12.7
 74
    0
 49
-12.7
 74
    0
  0
ENDTAB
  0
TABLE
  2
LAYER
  5
2
330
0
100
AcDbSymbolTable
 70
    1
  0
LAYER
  5
10
330
2
100
AcDbSymbolTableRecord
100
AcDbLayerTableRecord
  2
0
 70
    0
 62
    7
  6
CONTINUOUS
370
   -3
390
F
1001
LibreCad
1070
    1
  0
LAYER
  5
4A
330
2
100
AcDbSymbolTableRecord
100
AcDbLayerTableRecord
  2
karkas
 70
    0
 62
  136
420
32896
  6
CONTINUOUS
370
   50
390
F
  0
LAYER
  5
4B
330
2
100
AcDbSymbolTableRecord
100
AcDbLayerTableRecord
  2
krepezh
 70
    0
 62
    5
  6
CONTINUOUS
370
   50
390
F
  0
LAYER
  5
4C
330
2
100
AcDbSymbolTableRecord
100
AcDbLayerTableRecord
  2
polka
 70
    0
 62
    2
  6
CONTINUOUS
370
   50
390
F
  0
LAYER
  5
4D
330
2
100
AcDbSymbolTableRecord
100
AcDbLayerTableRecord
  2
rozmir
 70
    0
 62
    4
  6
CONTINUOUS
370
   13
390
F
  0
LAYER
  5
4E
330
2
100
AcDbSymbolTableRecord
100
AcDbLayerTableRecord
  2
tekst
 70
    0
 62
  136
420
32896
  6
CONTINUOUS
370
   25
390
F
  0
ENDTAB
  0
TABLE
  2
STYLE
  5
3
330
0
100
AcDbSymbolTable
 70
    3
  0
STYLE
  5
4F
330
2
100
AcDbSymbolTableRecord
100
AcDbTextStyleTableRecord
  2
Standard
 70
    0
 40
0
 41
1
 50
0
 71
    0
 42
1
  3
txt
  4

  0
ENDTAB
  0
TABLE
  2
VIEW
  5
6
330
0
100
AcDbSymbolTable
 70
    0
  0
ENDTAB
  0
TABLE
  2
UCS
  5
7
330
0
100
AcDbSymbolTable
 70
    0
  0
ENDTAB
  0
TABLE
  2
APPID
  5
9
330
0
100
AcDbSymbolTable
 70
    1
  0
APPID
  5
12
330
9
100
AcDbSymbolTableRecord
100
AcDbRegAppTableRecord
  2
ACAD
 70
    0
  0
APPID
  5
50
330
9
100
AcDbSymbolTableRecord
100
AcDbRegAppTableRecord
  2
LibreCad
 70
    0
  0
ENDTAB
  0
TABLE
  2
DIMSTYLE
  5
A
330
0
100
AcDbSymbolTable
 70
    1
100
AcDbDimStyleTable
 71
    1
  0
DIMSTYLE
105
51
330
A
100
AcDbSymbolTableRecord
100
AcDbDimStyleTableRecord
  2
Standard
 70
    0
 40
1
 41
2.5
 42
1
 43
0.38
 44
2
 45
0
 46
0
 47
0
 48
0
 49
1
140
2.5
141
0.09
142
0
143
25.4
144
1
145
0
146
1
147
1
148
0
 71
    0
 72
    0
 73
    0
 74
    1
 75
    0
 76
    0
 77
    0
 78
    8
 79
    0
170
    0
171
    2
172
    0
173
    0
174
    0
175
    0
176
    0
177
    0
178
    0
179
    0
271
    1
272
    4
273
    2
274
    2
275
    0
276
    0
277
    2
278
   44
279
    0
280
    0
281
    0
282
    0
283
    1
284
    0
285
    0
286
    0
288
    0
289
    3
340
standard
341

371
   -2
372
   -2
  0
ENDTAB
  0
TABLE
  2
BLOCK_RECORD
  5
1
330
0
100
AcDbSymbolTable
 70
    2
  0
BLOCK_RECORD
  5
1F
330
1
100
AcDbSymbolTableRecord
100
AcDbBlockTableRecord
  2
*Model_Space
 70
    0
280
    1
281
    0
  0
BLOCK_RECORD
  5
1E
330
1
100
AcDbSymbolTableRecord
100
AcDbBlockTableRecord
  2
*Paper_Space
 70
    0
280
    1
281
    0
  0
BLOCK_RECORD
  5
52
330
1
100
AcDbSymbolTableRecord
100
AcDbBlockTableRecord
  2
*D1
 70
    0
280
    1
281
    0
  0
BLOCK_RECORD
  5
55
330
1
100
AcDbSymbolTableRecord
100
AcDbBlockTableRecord
  2
*D7
 70
    0
280
    1
281
    0
  0
BLOCK_RECORD
  5
58
330
1
100
AcDbSymbolTableRecord
100
AcDbBlockTableRecord
  2
*D10
 70
    0
280
    1
281
    0
  0
BLOCK_RECORD
  5
5B
330
1
100
AcDbSymbolTableRecord
100
AcDbBlockTableRecord
  2
*D8
 70
    0
280
    1
281
    0
  0
BLOCK_RECORD
  5
5E
330
1
100
AcDbSymbolTableRecord
100
AcDbBlockTableRecord
  2
*D2
 70
    0
280
    1
281
    0
  0
BLOCK_RECORD
  5
61
330
1
100
AcDbSymbolTableRecord
100
AcDbBlockTableRecord
  2
*D11
 70
    0
280
    1
281
    0
  0
BLOCK_RECORD
  5
64
330
1
100
AcDbSymbolTableRecord
100
AcDbBlockTableRecord
  2
*D4
 70
    0
280
    1
281
    0
  0
BLOCK_RECORD
  5
67
330
1
100
AcDbSymbolTableRecord
100
AcDbBlockTableRecord
  2
*D9
 70
    0
280
    1
281
    0
  0
BLOCK_RECORD
  5
6A
330
1
100
AcDbSymbolTableRecord
100
AcDbBlockTableRecord
  2
*D12
 70
    0
280
    1
281
    0
  0
BLOCK_RECORD
  5
6D
330
1
100
AcDbSymbolTableRecord
100
AcDbBlockTableRecord
  2
*D3
 70
    0
280
    1
281
    0
  0
BLOCK_RECORD
  5
70
330
1
100
AcDbSymbolTableRecord
100
AcDbBlockTableRecord
  2
*D6
 70
    0
280
    1
281
    0
  0
BLOCK_RECORD
  5
73
330
1
100
AcDbSymbolTableRecord
100
AcDbBlockTableRecord
  2
*D5
 70
    0
280
    1
281
    0
  0
BLOCK_RECORD
  5
76
330
1
100
AcDbSymbolTableRecord
100
AcDbBlockTableRecord
  2
*D13
 70
    0
280
    1
281
    0
  0
ENDTAB
  0
ENDSEC
  0
SECTION
  2
BLOCKS
  0
BLOCK
  5
20
330
1F
100
AcDbEntity
  8
0
100
AcDbBlockBegin
  2
*Model_Space
 70
    0
 10
0
 20
0
 30
0
  3
*Model_Space
  1

  0
ENDBLK
  5
21
330
1F
100
AcDbEntity
  8
0
100
AcDbBlockEnd
  0
BLOCK
  5
1C
330
1B
100
AcDbEntity
  8
0
100
AcDbBlockBegin
  2
*Paper_Space
 70
    0
 10
0
 20
0
 30
0
  3
*Paper_Space
  1

  0
ENDBLK
  5
1D
330
1F
100
AcDbEntity
  8
0
100
AcDbBlockEnd
  0
BLOCK
  5
53
330
52
100
AcDbEntity
  8
0
100
AcDbBlockBegin
  2
*D1
 70
    1
 10
0
 20
0
  3
*D1
  1

  0
LINE
  5
79
100
AcDbEntity
  8
rozmir
  6
ByBlock
 62
    0
370
   -2
100
AcDbLine
 10
10
 20
62.50000000000001
 11
10
 21
105
  0
SOLID
  5
7A
100
AcDbEntity
  8
rozmir
  6
ByBlock
 62
    0
370
   -2
100
AcDbTrace
 10
10
 20
62.50000000000001
 30
0
 11
9.58371534222716
 21
65
 31
0
 12
10.41628465777284
 22
65
 32
0
 13
10.41628465777284
 23
65
 33
0
  0
SOLID
  5
7B
100
AcDbEntity
  8
rozmir
  6
ByBlock
 62
    0
370
   -2
100
AcDbTrace
 10
10
 20
105
 30
0
 11
10.41628465777284
 21
102.5
 31
0
 12
9.583715342227162
 22
102.5
 32
0
 13
9.583715342227162
 23
102.5
 33
0
  0
MTEXT
  5
7C
100
AcDbEntity
  8
rozmir
  6
CONTINUOUS
 62
    0
370
   -2
100
AcDbMText
 10
7.75
 20
83.75000000000001
 30
0
 40
2.5
 41
6.250000000000156
 71
    5
 72
    1
  1
42,5
  7
standard
210
0
220
0
230
1
 50
90
 73
    2
 44
1
  0
LINE
  5
7D
100
AcDbEntity
  8
rozmir
  6
ByBlock
 62
    0
370
   -2
100
AcDbLine
 10
4.200000000000005
 20
62.50000000000001
 11
12
 21
62.50000000000001
  0
LINE
  5
7E
100
AcDbEntity
  8
rozmir
  6
ByBlock
 62
    0
370
   -2
100
AcDbLine
 10
4.199999999999999
 20
105
 11
12
 21
105
  0
ENDBLK
  5
54
330
52
100
AcDbEntity
  8
0
100
AcDbBlockEnd
  0
BLOCK
  5
56
330
55
100
AcDbEntity
  8
0
100
AcDbBlockBegin
  2
*D7
 70
    1
 10
0
 20
0
  3
*D7
  1

  0
LINE
  5
7F
100
AcDbEntity
  8
rozmir
  6
ByBlock
 62
    0
370
   -2
100
AcDbLine
 10
-2.000000000000003
 20
-79
 11
-2
 21
-31
  0
SOLID
  5
80
100
AcDbEntity
  8
rozmir
  6
ByBlock
 62
    0
370
   -2
100
AcDbTrace
 10
-2.000000000000003
 20
-79
 30
0
 11
-2.416284657772843
 21
-76.5
 31
0
 12
-1.583715342227162
 22
-76.5
 32
0
 13
-1.583715342227162
 23
-76.5
 33
0
  0
SOLID
  5
81
100
AcDbEntity
  8
rozmir
  6
ByBlock
 62
    0
370
   -2
100
AcDbTrace
 10
-2
 20
-31
 30
0
 11
-1.58371534222716
 21
-33.5
 31
0
 12
-2.416284657772841
 22
-33.5
 32
0
 13
-2.416284657772841
 23
-33.5
 33
0
  0
MTEXT
  5
82
100
AcDbEntity
  8
rozmir
  6
CONTINUOUS
 62
    0
370
   -2
100
AcDbMText
 10
-4.250000000000002
 20
-55
 30
0
 40
2.5
 41
3.333333333333333
 71
    5
 72
    1
  1
48
  7
standard
210
0
220
0
230
1
 50
90
 73
    2
 44
1
  0
LINE
  5
83
100
AcDbEntity
  8
rozmir
  6
ByBlock
 62
    0
370
   -2
100
AcDbLine
 10
-0.6999999999999913
 20
-79
 11
-4.000000000000004
 21
-79
  0
LINE
  5
84
100
AcDbEntity
  8
rozmir
  6
ByBlock
 62
    0
370
   -2
100
AcDbLine
 10
-0.7000000000000028
 20
-31
 11
-4
 21
-31
  0
ENDBLK
  5
57
330
55
100
AcDbEntity
  8
0
100
AcDbBlockEnd
  0
BLOCK
  5
59
330
58
100
AcDbEntity
  8
0
100
AcDbBlockBegin
  2
*D10
 70
    1
 10
0
 20
0
  3
*D10
  1

  0
LINE
  5
85
100
AcDbEntity
  8
rozmir
  6
ByBlock
 62
    0
370
   -2
100
AcDbLine
 10
1
 20
-22
 11
99
 21
-22
  0
SOLID
  5
86
100
AcDbEntity
  8
rozmir
  6
ByBlock
 62
    0
370
   -2
100
AcDbTrace
 10
1
 20
-22
 30
0
 11
3.5
 21
-21.58371534222716
 31
0
 12
3.5
 22
-22.41628465777284
 32
0
 13
3.5
 23
-22.41628465777284
 33
0
  0
SOLID
  5
87
100
AcDbEntity
  8
rozmir
  6
ByBlock
 62
    0
370
   -2
100
AcDbTrace
 10
99
 20
-22
 30
0
 11
96.5
 21
-22.41628465777284
 31
0
 12
96.5
 22
-21.58371534222716
 32
0
 13
96.5
 23
-21.58371534222716
 33
0
  0
MTEXT
  5
88
100
AcDbEntity
  8
rozmir
  6
CONTINUOUS
 62
    0
370
   -2
100
AcDbMText
 10
50
 20
-19.75
 30
0
 40
2.5
 41
3.055555555555711
 71
    5
 72
    1
  1
98
  7
standard
210
0
220
0
230
1
 50
0
 73
    2
 44
1
  0
LINE
  5
89
100
AcDbEntity
  8
rozmir
  6
ByBlock
 62
    0
370
   -2
100
AcDbLine
 10
1
 20
-29.30000000000001
 11
1
 21
-20
  0
LINE
  5
8A
100
AcDbEntity
  8
rozmir
  6
ByBlock
 62
    0
370
   -2
100
AcDbLine
 10
99
 20
-29.3
 11
99
 21
-20
  0
ENDBLK
  5
5A
330
58
100
AcDbEntity
  8
0
100
AcDbBlockEnd
  0
BLOCK
  5
5C
330
5B
100
AcDbEntity
  8
0
100
AcDbBlockBegin
  2
*D8
 70
    1
 10
0
 20
0
  3
*D8
  1

  0
LINE
  5
8B
100
AcDbEntity
  8
rozmir
  6
ByBlock
 62
    0
370
   -2
100
AcDbLine
 10
10
 20
-31.10000000000001
 11
10
 21
-78.90000000000001
  0
SOLID
  5
8C
100
AcDbEntity
  8
rozmir
  6
ByBlock
 62
    0
370
   -2
100
AcDbTrace
 10
10
 20
-31.10000000000001
 30
0
 11
10.41628465777284
 21
-33.60000000000001
 31
0
 12
9.583715342227162
 22
-33.60000000000001
 32
0
 13
9.583715342227162
 23
-33.60000000000001
 33
0
  0
SOLID
  5
8D
100
AcDbEntity
  8
rozmir
  6
ByBlock
 62
    0
370
   -2
100
AcDbTrace
 10
10
 20
-78.90000000000001
 30
0
 11
9.58371534222716
 21
-76.40000000000001
 31
0
 12
10.41628465777284
 22
-76.40000000000001
 32
0
 13
10.41628465777284
 23
-76.40000000000001
 33
0
  0
MTEXT
  5
8E
100
AcDbEntity
  8
rozmir
  6
CONTINUOUS
 62
    0
370
   -2
100
AcDbMText
 10
7.75
 20
-55.00000000000001
 30
0
 40
2.5
 41
6.25
 71
    5
 72
    1
  1
47,8
  7
standard
210
0
220
0
230
1
 50
90
 73
    2
 44
1
  0
LINE
  5
8F
100
AcDbEntity
  8
rozmir
  6
ByBlock
 62
    0
370
   -2
100
AcDbLine
 10
9
 20
-31.1
 11
8.000000000000002
 21
-31.10000000000001
  0
LINE
  5
90
100
AcDbEntity
  8
rozmir
  6
ByBlock
 62
    0
370
   -2
100
AcDbLine
 10
9
 20
-78.90000000000001
 11
8
 21
-78.90000000000001
  0
ENDBLK
  5
5D
330
5B
100
AcDbEntity
  8
0
100
AcDbBlockEnd
  0
BLOCK
  5
5F
330
5E
100
AcDbEntity
  8
0
100
AcDbBlockBegin
  2
*D2
 70
    1
 10
0
 20
0
  3
*D2
  1

  0
LINE
  5
91
100
AcDbEntity
  8
rozmir
  6
ByBlock
 62
    0
370
   -2
100
AcDbLine
 10
9.999999999999998
 20
105
 11
10
 21
147.5
  0
SOLID
  5
92
100
AcDbEntity
  8
rozmir
  6
ByBlock
 62
    0
370
   -2
100
AcDbTrace
 10
9.999999999999998
 20
105
 30
0
 11
9.583715342227158
 21
107.5
 31
0
 12
10.41628465777284
 22
107.5
 32
0
 13
10.41628465777284
 23
107.5
 33
0
  0
SOLID
  5
93
100
AcDbEntity
  8
rozmir
  6
ByBlock
 62
    0
370
   -2
100
AcDbTrace
 10
10
 20
147.5
 30
0
 11
10.41628465777284
 21
145
 31
0
 12
9.58371534222716
 22
145
 32
0
 13
9.58371534222716
 23
145
 33
0
  0
MTEXT
  5
94
100
AcDbEntity
  8
rozmir
  6
CONTINUOUS
 62
    0
370
   -2
100
AcDbMText
 10
7.75
 20
126.25
 30
0
 40
2.5
 41
6.250000000000156
 71
    5
 72
    1
  1
42,5
  7
standard
210
0
220
0
230
1
 50
90
 73
    2
 44
1
  0
LINE
  5
95
100
AcDbEntity
  8
rozmir
  6
ByBlock
 62
    0
370
   -2
100
AcDbLine
 10
4.200000000000008
 20
105
 11
12
 21
105
  0
LINE
  5
96
100
AcDbEntity
  8
rozmir
  6
ByBlock
 62
    0
370
   -2
100
AcDbLine
 10
4.200000000000012
 20
147.5
 11
12
 21
147.5
  0
ENDBLK
  5
60
330
5E
100
AcDbEntity
  8
0
100
AcDbBlockEnd
  0
BLOCK
  5
62
330
61
100
AcDbEntity
  8
0
100
AcDbBlockBegin
  2
*D11
 70
    1
 10
0
 20
0
  3
*D11
  1

  0
LINE
  5
97
100
AcDbEntity
  8
rozmir
  6
ByBlock
 62
    0
370
   -2
100
AcDbLine
 10
0.2999999999999972
 20
-27
 11
48.8
 21
-27
  0
SOLID
  5
98
100
AcDbEntity
  8
rozmir
  6
ByBlock
 62
    0
370
   -2
100
AcDbTrace
 10
0.2999999999999972
 20
-27
 30
0
 11
2.799999999999997
 21
-26.58371534222716
 31
0
 12
2.799999999999997
 22
-27.41628465777284
 32
0
 13
2.799999999999997
 23
-27.41628465777284
 33
0
  0
SOLID
  5
99
100
AcDbEntity
  8
rozmir
  6
ByBlock
 62
    0
370
   -2
100
AcDbTrace
 10
48.8
 20
-27
 30
0
 11
46.3
 21
-27.41628465777284
 31
0
 12
46.3
 22
-26.58371534222716
 32
0
 13
46.3
 23
-26.58371534222716
 33
0
  0
MTEXT
  5
9A
100
AcDbEntity
  8
rozmir
  6
CONTINUOUS
 62
    0
370
   -2
100
AcDbMText
 10
24.55
 20
-24.75
 30
0
 40
2.5
 41
6.250000000000156
 71
    5
 72
    1
  1
48,5
  7
standard
210
0
220
0
230
1
 50
0
 73
    2
 44
1
  0
LINE
  5
9B
100
AcDbEntity
  8
rozmir
  6
ByBlock
 62
    0
370
   -2
100
AcDbLine
 10
0.2999999999999972
 20
-30
 11
0.2999999999999973
 21
-25
  0
LINE
  5
9C
100
AcDbEntity
  8
rozmir
  6
ByBlock
 62
    0
370
   -2
100
AcDbLine
 10
48.8
 20
-31.8
 11
48.8
 21
-25
  0
ENDBLK
  5
63
330
61
100
AcDbEntity
  8
0
100
AcDbBlockEnd
  0
BLOCK
  5
65
330
64
100
AcDbEntity
  8
0
100
AcDbBlockBegin
  2
*D4
 70
    1
 10
0
 20
0
  3
*D4
  1

  0
LINE
  5
9D
100
AcDbEntity
  8
rozmir
  6
ByBlock
 62
    0
370
   -2
100
AcDbLine
 10
-5.000000000000012
 20
0
 11
-5
 21
192.5
  0
SOLID
  5
9E
100
AcDbEntity
  8
rozmir
  6
ByBlock
 62
    0
370
   -2
100
AcDbTrace
 10
-5.000000000000012
 20
0
 30
0
 11
-5.416284657772851
 21
2.5
 31
0
 12
-4.583715342227171
 22
2.5
 32
0
 13
-4.583715342227171
 23
2.5
 33
0
  0
SOLID
  5
9F
100
AcDbEntity
  8
rozmir
  6
ByBlock
 62
    0
370
   -2
100
AcDbTrace
 10
-5
 20
192.5
 30
0
 11
-4.583715342227159
 21
190
 31
0
 12
-5.416284657772841
 22
190
 32
0
 13
-5.416284657772841
 23
190
 33
0
  0
MTEXT
  5
A0
100
AcDbEntity
  8
rozmir
  6
CONTINUOUS
 62
    0
370
   -2
100
AcDbMText
 10
-7.250000000000005
 20
96.25
 30
0
 40
2.5
 41
7.361111111111267
 71
    5
 72
    1
  1
192,5
  7
standard
210
0
220
0
230
1
 50
90
 73
    2
 44
1
  0
LINE
  5
A1
100
AcDbEntity
  8
rozmir
  6
ByBlock
 62
    0
370
   -2
100
AcDbLine
 10
-1
 20
1.224646799147353e-16
 11
-7.000000000000012
 21
2.449293598294706e-16
  0
LINE
  5
A2
100
AcDbEntity
  8
rozmir
  6
ByBlock
 62
    0
370
   -2
100
AcDbLine
 10
-0.9999999999999858
 20
192.5
 11
-7
 21
192.5
  0
ENDBLK
  5
66
330
64
100
AcDbEntity
  8
0
100
AcDbBlockEnd
  0
BLOCK
  5
68
330
67
100
AcDbEntity
  8
0
100
AcDbBlockBegin
  2
*D9
 70
    1
 10
0
 20
0
  3
*D9
  1

  0
LINE
  5
A3
100
AcDbEntity
  8
rozmir
  6
ByBlock
 62
    0
370
   -2
100
AcDbLine
 10
1.09999999999998
 20
-40
 11
98.90000000000001
 21
-40
  0
SOLID
  5
A4
100
AcDbEntity
  8
rozmir
  6
ByBlock
 62
    0
370
   -2
100
AcDbTrace
 10
1.09999999999998
 20
-40
 30
0
 11
3.59999999999998
 21
-39.58371534222716
 31
0
 12
3.59999999999998
 22
-40.41628465777284
 32
0
 13
3.59999999999998
 23
-40.41628465777284
 33
0
  0
SOLID
  5
A5
100
AcDbEntity
  8
rozmir
  6
ByBlock
 62
    0
370
   -2
100
AcDbTrace
 10
98.90000000000001
 20
-40
 30
0
 11
96.40000000000001
 21
-40.41628465777284
 31
0
 12
96.40000000000001
 22
-39.58371534222716
 32
0
 13
96.40000000000001
 23
-39.58371534222716
 33
0
  0
MTEXT
  5
A6
100
AcDbEntity
  8
rozmir
  6
CONTINUOUS
 62
    0
370
   -2
100
AcDbMText
 10
49.99999999999999
 20
-37.75
 30
0
 40
2.5
 41
5.972222222222378
 71
    5
 72
    1
  1
97,8
  7
standard
210
0
220
0
230
1
 50
0
 73
    2
 44
1
  0
LINE
  5
A7
100
AcDbEntity
  8
rozmir
  6
ByBlock
 62
    0
370
   -2
100
AcDbLine
 10
1.1
 20
-39
 11
1.09999999999998
 21
-38
  0
LINE
  5
A8
100
AcDbEntity
  8
rozmir
  6
ByBlock
 62
    0
370
   -2
100
AcDbLine
 10
98.90000000000001
 20
-39
 11
98.90000000000001
 21
-38
  0
ENDBLK
  5
69
330
67
100
AcDbEntity
  8
0
100
AcDbBlockEnd
  0
BLOCK
  5
6B
330
6A
100
AcDbEntity
  8
0
100
AcDbBlockBegin
  2
*D12
 70
    1
 10
0
 20
0
  3
*D12
  1

  0
LINE
  5
A9
100
AcDbEntity
  8
rozmir
  6
ByBlock
 62
    0
370
   -2
100
AcDbLine
 10
9.999999999999996
 20
10
 11
10
 21
62.50000000000001
  0
SOLID
  5
AA
100
AcDbEntity
  8
rozmir
  6
ByBlock
 62
    0
370
   -2
100
AcDbTrace
 10
9.999999999999996
 20
10
 30
0
 11
9.583715342227157
 21
12.5
 31
0
 12
10.41628465777284
 22
12.5
 32
0
 13
10.41628465777284
 23
12.5
 33
0
  0
SOLID
  5
AB
100
AcDbEntity
  8
rozmir
  6
ByBlock
 62
    0
370
   -2
100
AcDbTrace
 10
10
 20
62.50000000000001
 30
0
 11
10.41628465777284
 21
60.00000000000001
 31
0
 12
9.58371534222716
 22
60.00000000000001
 32
0
 13
9.58371534222716
 23
60.00000000000001
 33
0
  0
MTEXT
  5
AC
100
AcDbEntity
  8
rozmir
  6
CONTINUOUS
 62
    0
370
   -2
100
AcDbMText
 10
7.749999999999998
 20
36.25
 30
0
 40
2.5
 41
5.972222222222532
 71
    5
 72
    1
  1
52,5
  7
standard
210
0
220
0
230
1
 50
90
 73
    2
 44
1
  0
LINE
  5
AD
100
AcDbEntity
  8
rozmir
  6
ByBlock
 62
    0
370
   -2
100
AcDbLine
 10
4.200000000000001
 20
10
 11
12
 21
10
  0
LINE
  5
AE
100
AcDbEntity
  8
rozmir
  6
ByBlock
 62
    0
370
   -2
100
AcDbLine
 10
4.200000000000005
 20
62.50000000000001
 11
12
 21
62.50000000000001
  0
ENDBLK
  5
6C
330
6A
100
AcDbEntity
  8
0
100
AcDbBlockEnd
  0
BLOCK
  5
6E
330
6D
100
AcDbEntity
  8
0
100
AcDbBlockBegin
  2
*D3
 70
    1
 10
0
 20
0
  3
*D3
  1

  0
LINE
  5
AF
100
AcDbEntity
  8
rozmir
  6
ByBlock
 62
    0
370
   -2
100
AcDbLine
 10
9.999999999999998
 20
147.5
 11
10
 21
190
  0
SOLID
  5
B0
100
AcDbEntity
  8
rozmir
  6
ByBlock
 62
    0
370
   -2
100
AcDbTrace
 10
9.999999999999998
 20
147.5
 30
0
 11
9.583715342227158
 21
150
 31
0
 12
10.41628465777284
 22
150
 32
0
 13
10.41628465777284
 23
150
 33
0
  0
SOLID
  5
B1
100
AcDbEntity
  8
rozmir
  6
ByBlock
 62
    0
370
   -2
100
AcDbTrace
 10
10
 20
190
 30
0
 11
10.41628465777284
 21
187.5
 31
0
 12
9.58371534222716
 22
187.5
 32
0
 13
9.58371534222716
 23
187.5
 33
0
  0
MTEXT
  5
B2
100
AcDbEntity
  8
rozmir
  6
CONTINUOUS
 62
    0
370
   -2
100
AcDbMText
 10
7.75
 20
168.75
 30
0
 40
2.5
 41
6.250000000000156
 71
    5
 72
    1
  1
42,5
  7
standard
210
0
220
0
230
1
 50
90
 73
    2
 44
1
  0
LINE
  5
B3
100
AcDbEntity
  8
rozmir
  6
ByBlock
 62
    0
370
   -2
100
AcDbLine
 10
4.200000000000012
 20
147.5
 11
12
 21
147.5
  0
LINE
  5
B4
100
AcDbEntity
  8
rozmir
  6
ByBlock
 62
    0
370
   -2
100
AcDbLine
 10
4.200000000000014
 20
190
 11
12
 21
190
  0
ENDBLK
  5
6F
330
6D
100
AcDbEntity
  8
0
100
AcDbBlockEnd
  0
BLOCK
  5
71
330
70
100
AcDbEntity
  8
0
100
AcDbBlockBegin
  2
*D6
 70
    1
 10
0
 20
0
  3
*D6
  1

  0
LINE
  5
B5
100
AcDbEntity
  8
rozmir
  6
ByBlock
 62
    0
370
   -2
100
AcDbLine
 10
160
 20
-10
 11
210
 21
-10
  0
SOLID
  5
B6
100
AcDbEntity
  8
rozmir
  6
ByBlock
 62
    0
370
   -2
100
AcDbTrace
 10
160
 20
-10
 30
0
 11
162.5
 21
-9.58371534222716
 31
0
 12
162.5
 22
-10.41628465777284
 32
0
 13
162.5
 23
-10.41628465777284
 33
0
  0
SOLID
  5
B7
100
AcDbEntity
  8
rozmir
  6
ByBlock
 62
    0
370
   -2
100
AcDbTrace
 10
210
 20
-10
 30
0
 11
207.5
 21
-10.41628465777284
 31
0
 12
207.5
 22
-9.58371534222716
 32
0
 13
207.5
 23
-9.58371534222716
 33
0
  0
MTEXT
  5
B8
100
AcDbEntity
  8
rozmir
  6
CONTINUOUS
 62
    0
370
   -2
100
AcDbMText
 10
185
 20
-7.75
 30
0
 40
2.5
 41
3.055555555555711
 71
    5
 72
    1
  1
50
  7
standard
210
0
220
0
230
1
 50
0
 73
    2
 44
1
  0
LINE
  5
B9
100
AcDbEntity
  8
rozmir
  6
ByBlock
 62
    0
370
   -2
100
AcDbLine
 10
160
 20
-1
 11
160
 21
-12
  0
LINE
  5
BA
100
AcDbEntity
  8
rozmir
  6
ByBlock
 62
    0
370
   -2
100
AcDbLine
 10
210
 20
-1
 11
210
 21
-12
  0
ENDBLK
  5
72
330
70
100
AcDbEntity
  8
0
100
AcDbBlockEnd
  0
BLOCK
  5
74
330
73
100
AcDbEntity
  8
0
100
AcDbBlockBegin
  2
*D5
 70
    1
 10
0
 20
0
  3
*D5
  1

  0
LINE
  5
BB
100
AcDbEntity
  8
rozmir
  6
ByBlock
 62
    0
370
   -2
100
AcDbLine
 10
0
 20
-10
 11
100
 21
-10
  0
SOLID
  5
BC
100
AcDbEntity
  8
rozmir
  6
ByBlock
 62
    0
370
   -2
100
AcDbTrace
 10
0
 20
-10
 30
0
 11
2.5
 21
-9.58371534222716
 31
0
 12
2.5
 22
-10.41628465777284
 32
0
 13
2.5
 23
-10.41628465777284
 33
0
  0
SOLID
  5
BD
100
AcDbEntity
  8
rozmir
  6
ByBlock
 62
    0
370
   -2
100
AcDbTrace
 10
100
 20
-10
 30
0
 11
97.5
 21
-10.41628465777284
 31
0
 12
97.5
 22
-9.58371534222716
 32
0
 13
97.5
 23
-9.58371534222716
 33
0
  0
MTEXT
  5
BE
100
AcDbEntity
  8
rozmir
  6
CONTINUOUS
 62
    0
370
   -2
100
AcDbMText
 10
50
 20
-7.75
 30
0
 40
2.5
 41
4.444444444444445
 71
    5
 72
    1
  1
100
  7
standard
210
0
220
0
230
1
 50
0
 73
    2
 44
1
  0
LINE
  5
BF
100
AcDbEntity
  8
rozmir
  6
ByBlock
 62
    0
370
   -2
100
AcDbLine
 10
-1.83697019872103e-16
 20
-1
 11
-3.673940397442059e-16
 21
-12
  0
LINE
  5
C0
100
AcDbEntity
  8
rozmir
  6
ByBlock
 62
    0
370
   -2
100
AcDbLine
 10
100
 20
-1
 11
100
 21
-12
  0
ENDBLK
  5
75
330
73
100
AcDbEntity
  8
0
100
AcDbBlockEnd
  0
BLOCK
  5
77
330
76
100
AcDbEntity
  8
0
100
AcDbBlockBegin
  2
*D13
 70
    1
 10
0
 20
0
  3
*D13
  1

  0
LINE
  5
C1
100
AcDbEntity
  8
rozmir
  6
ByBlock
 62
    0
370
   -2
100
AcDbLine
 10
10
 20
0
 11
10
 21
10
  0
SOLID
  5
C2
100
AcDbEntity
  8
rozmir
  6
ByBlock
 62
    0
370
   -2
100
AcDbTrace
 10
10
 20
0
 30
0
 11
9.58371534222716
 21
2.5
 31
0
 12
10.41628465777284
 22
2.5
 32
0
 13
10.41628465777284
 23
2.5
 33
0
  0
SOLID
  5
C3
100
AcDbEntity
  8
rozmir
  6
ByBlock
 62
    0
370
   -2
100
AcDbTrace
 10
10
 20
10
 30
0
 11
10.41628465777284
 21
7.500000000000002
 31
0
 12
9.58371534222716
 22
7.500000000000002
 32
0
 13
9.58371534222716
 23
7.500000000000002
 33
0
  0
MTEXT
  5
C4
100
AcDbEntity
  8
rozmir
  6
CONTINUOUS
 62
    0
370
   -2
100
AcDbMText
 10
7.75
 20
5.000000000000001
 30
0
 40
2.5
 41
2.5
 71
    5
 72
    1
  1
10
  7
standard
210
0
220
0
230
1
 50
90
 73
    2
 44
1
  0
LINE
  5
C5
100
AcDbEntity
  8
rozmir
  6
ByBlock
 62
    0
370
   -2
100
AcDbLine
 10
4.2
 20
0
 11
12
 21
0
  0
LINE
  5
C6
100
AcDbEntity
  8
rozmir
  6
ByBlock
 62
    0
370
   -2
100
AcDbLine
 10
4.200000000000001
 20
10
 11
12
 21
10
  0
ENDBLK
  5
78
330
76
100
AcDbEntity
  8
0
100
AcDbBlockEnd
  0
ENDSEC
  0
SECTION
  2
ENTITIES
  0
LWPOLYLINE
  5
C7
100
AcDbEntity
  8
karkas
  6
ByLayer
 62
  256
370
   -1
100
AcDbPolyline
 90
    4
 70
    1
 43
0
 10
0
 20
0
 10
3.2
 20
0
 10
3.200000000000014
 20
192.5
 10
1.4210854715202e-14
 20
192.5
  0
LWPOLYLINE
  5
C8
100
AcDbEntity
  8
karkas
  6
ByLayer
 62
  256
370
   -1
100
AcDbPolyline
 90
    4
 70
    1
 43
0
 10
160
 20
0
 10
163.2
 20
0
 10
163.2
 20
192.5
 10
160
 20
192.5
  0
LWPOLYLINE
  5
C9
100
AcDbEntity
  8
karkas
  6
ByLayer
 62
  256
370
   -1
100
AcDbPolyline
 90
    4
 70
    1
 43
0
 10
163.2
 20
10
 10
206.8
 20
10
 10
206.8
 20
12.5
 10
163.2
 20
12.5
  0
LWPOLYLINE
  5
CA
100
AcDbEntity
  8
karkas
  6
ByLayer
 62
  256
370
   -1
100
AcDbPolyline
 90
    4
 70
    1
 43
0
 10
163.2
 20
62.5
 10
206.8
 20
62.5
 10
206.8
 20
65
 10
163.2
 20
65
  0
LWPOLYLINE
  5
CB
100
AcDbEntity
  8
karkas
  6
ByLayer
 62
  256
370
   -1
100
AcDbPolyline
 90
    4
 70
    1
 43
0
 10
163.2
 20
105
 10
206.8
 20
105
 10
206.8
 20
107.5
 10
163.2
 20
107.5
  0
LWPOLYLINE
  5
CC
100
AcDbEntity
  8
karkas
  6
ByLayer
 62
  256
370
   -1
100
AcDbPolyline
 90
    4
 70
    1
 43
0
 10
163.2
 20
147.5
 10
206.8
 20
147.5
 10
206.8
 20
150
 10
163.2
 20
150
  0
LWPOLYLINE
  5
CD
100
AcDbEntity
  8
karkas
  6
ByLayer
 62
  256
370
   -1
100
AcDbPolyline
 90
    4
 70
    1
 43
0
 10
163.2
 20
190
 10
206.8
 20
190
 10
206.8
 20
192.5
 10
163.2
 20
192.5
  0
LWPOLYLINE
  5
CE
100
AcDbEntity
  8
karkas
  6
ByLayer
 62
  256
370
   -1
100
AcDbPolyline
 90
    4
 70
    1
 43
0
 10
206.8
 20
0
 10
210
 20
0
 10
210
 20
192.5
 10
206.8
 20
192.5
  0
LWPOLYLINE
  5
CF
100
AcDbEntity
  8
karkas
  6
ByLayer
 62
  256
370
   -1
100
AcDbPolyline
 90
    4
 70
    1
 43
0
 10
3.2
 20
10
 10
96.8
 20
10
 10
96.80000000000001
 20
12.5
 10
3.2
 20
12.5
  0
LWPOLYLINE
  5
D0
100
AcDbEntity
  8
karkas
  6
ByLayer
 62
  256
370
   -1
100
AcDbPolyline
 90
    4
 70
    1
 43
0
 10
3.2
 20
62.5
 10
96.8
 20
62.5
 10
96.80000000000001
 20
65
 10
3.2
 20
65
  0
LWPOLYLINE
  5
D1
100
AcDbEntity
  8
karkas
  6
ByLayer
 62
  256
370
   -1
100
AcDbPolyline
 90
    4
 70
    1
 43
0
 10
3.199999999999999
 20
105
 10
96.8
 20
105
 10
96.80000000000001
 20
107.5
 10
3.199999999999999
 20
107.5
  0
LWPOLYLINE
  5
D2
100
AcDbEntity
  8
karkas
  6
ByLayer
 62
  256
370
   -1
100
AcDbPolyline
 90
    4
 70
    1
 43
0
 10
3.2
 20
147.5
 10
96.8
 20
147.5
 10
96.80000000000001
 20
150
 10
3.2
 20
150
  0
LWPOLYLINE
  5
D3
100
AcDbEntity
  8
karkas
  6
ByLayer
 62
  256
370
   -1
100
AcDbPolyline
 90
    4
 70
    1
 43
0
 10
3.2
 20
190
 10
96.8
 20
190
 10
96.80000000000001
 20
192.5
 10
3.2
 20
192.5
  0
LWPOLYLINE
  5
D4
100
AcDbEntity
  8
karkas
  6
ByLayer
 62
  256
370
   -1
100
AcDbPolyline
 90
    4
 70
    1
 43
0
 10
96.8
 20
0
 10
100
 20
0
 10
100
 20
192.5
 10
96.80000000000001
 20
192.5
  0
LWPOLYLINE
  5
D5
100
AcDbEntity
  8
karkas
  6
ByLayer
 62
  256
370
   -1
100
AcDbPolyline
 90
    2
 70
    0
 43
0
 10
0.9999999999999998
 20
-30.6
 10
99.00000000000001
 20
-30.6
  0
LWPOLYLINE
  5
D6
100
AcDbEntity
  8
karkas
  6
ByLayer
 62
  256
370
   -1
100
AcDbPolyline
 90
    2
 70
    0
 43
0
 10
0.5999999999999954
 20
-79
 10
0.6000000000000014
 20
-30.99999999999999
  0
LWPOLYLINE
  5
D7
100
AcDbEntity
  8
karkas
  6
ByLayer
 62
  256
370
   -1
100
AcDbPolyline
 90
    6
 70
    1
 43
0
 10
1
 20
-30.3
 10
99
 20
-30.3
 10
99
 20
-31
 10
97.2
 20
-32.8
 10
2.8
 20
-32.8
 10
0.9999999999999998
 20
-31.00000000000001
  0
LWPOLYLINE
  5
D8
100
AcDbEntity
  8
karkas
  6
ByLayer
 62
  256
370
   -1
100
AcDbPolyline
 90
    2
 70
    0
 43
0
 10
99
 20
-79.39999999999999
 10
1
 20
-79.39999999999998
  0
LWPOLYLINE
  5
D9
100
AcDbEntity
  8
karkas
  6
ByLayer
 62
  256
370
   -1
100
AcDbPolyline
 90
    7
 70
    0
 43
0
 10
99.7
 20
-31
 10
99.7
 20
-79
 10
99
 20
-79
 10
97.2
 20
-77.2
 10
97.2
 20
-32.8
 10
99
 20
-31
 10
99.7
 20
-31
  0
LWPOLYLINE
  5
DA
100
AcDbEntity
  8
karkas
  6
ByLayer
 62
  256
370
   -1
100
AcDbPolyline
 90
    2
 70
    0
 43
0
 10
99.40000000000001
 20
-31
 10
99.40000000000001
 20
-79.00000000000001
  0
LWPOLYLINE
  5
DB
100
AcDbEntity
  8
karkas
  6
ByLayer
 62
  256
370
   -1
100
AcDbPolyline
 90
    6
 70
    1
 43
0
 10
99
 20
-79.7
 10
1
 20
-79.69999999999999
 10
1
 20
-78.99999999999999
 10
2.800000000000011
 20
-77.19999999999999
 10
97.2
 20
-77.19999999999999
 10
99
 20
-79
  0
LWPOLYLINE
  5
DC
100
AcDbEntity
  8
karkas
  6
ByLayer
 62
  256
370
   -1
100
AcDbPolyline
 90
    7
 70
    0
 43
0
 10
50
 20
10
 10
50
 20
7.900000000000001
 10
50.1
 20
7.800000000000002
 10
50.2
 20
7.800000000000002
 10
50.3
 20
7.900000000000001
 10
50.3
 20
10
 10
50
 20
10
  0
LINE
  5
DD
100
AcDbEntity
  8
karkas
  6
ByLayer
 62
  256
370
   -1
100
AcDbLine
 10
163.2
 20
7.800000000000001
 11
206.8
 21
7.800000000000001
  0
LINE
  5
DE
100
AcDbEntity
  8
karkas
  6
ByLayer
 62
  256
370
   -1
100
AcDbLine
 10
163.2
 20
60.3
 11
206.8
 21
60.3
  0
LINE
  5
DF
100
AcDbEntity
  8
karkas
  6
ByLayer
 62
  256
370
   -1
100
AcDbLine
 10
163.2
 20
102.8
 11
206.8
 21
102.8
  0
LINE
  5
E0
100
AcDbEntity
  8
karkas
  6
ByLayer
 62
  256
370
   -1
100
AcDbLine
 10
163.2
 20
145.3
 11
206.8
 21
145.3
  0
LINE
  5
E1
100
AcDbEntity
  8
karkas
  6
ByLayer
 62
  256
370
   -1
100
AcDbLine
 10
163.2000000000001
 20
187.8
 11
206.8000000000001
 21
187.8
  0
LWPOLYLINE
  5
E2
100
AcDbEntity
  8
karkas
  6
ByLayer
 62
  256
370
   -1
100
AcDbPolyline
 90
   10
 70
    0
 43
0
 10
-1.4210854715202e-14
 20
-30
 10
3.199999999999989
 20
-30
 10
3.199999999999989
 20
-30.2
 10
3.09999999999998
 20
-30.3
 10
0.4999999999999858
 20
-30.30000000000001
 10
0.2999999999999829
 20
-30.5
 10
0.2999999999999828
 20
-33.10000000000001
 10
0.1999999999999884
 20
-33.2
 10
-1.439455173507411e-14
 20
-33.2
 10
-1.4210854715202e-14
 20
-30
  0
LWPOLYLINE
  5
E3
100
AcDbEntity
  8
karkas
  6
ByLayer
 62
  256
370
   -1
100
AcDbPolyline
 90
   10
 70
    0
 43
0
 10
0
 20
-80
 10
1.959434878635765e-16
 20
-76.8
 10
0.200000000000003
 20
-76.8
 10
0.2999999999999973
 20
-76.90000000000001
 10
0.3000000000000114
 20
-79.5
 10
0.5
 20
-79.7
 10
3.100000000000006
 20
-79.7
 10
3.2
 20
-79.8
 10
3.2
 20
-80
 10
0
 20
-80
  0
LWPOLYLINE
  5
E4
100
AcDbEntity
  8
karkas
  6
ByLayer
 62
  256
370
   -1
100
AcDbPolyline
 90
   10
 70
    0
 43
0
 10
100
 20
-80
 10
96.80000000000001
 20
-80
 10
96.80000000000001
 20
-79.8
 10
96.90000000000002
 20
-79.7
 10
99.50000000000001
 20
-79.69999999999999
 10
99.70000000000002
 20
-79.5
 10
99.7
 20
-76.89999999999999
 10
99.8
 20
-76.8
 10
100
 20
-76.8
 10
100
 20
-80
  0
LWPOLYLINE
  5
E5
100
AcDbEntity
  8
karkas
  6
ByLayer
 62
  256
370
   -1
100
AcDbPolyline
 90
   10
 70
    0
 43
0
 10
100
 20
-29.99999999999999
 10
100
 20
-33.19999999999999
 10
99.8
 20
-33.19999999999999
 10
99.7
 20
-33.09999999999998
 10
99.69999999999999
 20
-30.49999999999999
 10
99.5
 20
-30.29999999999998
 10
96.89999999999999
 20
-30.29999999999998
 10
96.8
 20
-30.19999999999999
 10
96.8
 20
-29.99999999999999
 10
100
 20
-29.99999999999999
  0
LWPOLYLINE
  5
E6
100
AcDbEntity
  8
polka
  6
ByLayer
 62
  256
370
   -1
100
AcDbPolyline
 90
    5
 70
    1
 43
0
 10
1.1
 20
-31.1
 10
98.90000000000001
 20
-31.1
 10
98.90000000000001
 20
-78.90000000000001
 10
1.1
 20
-78.90000000000001
 10
1.1
 20
-78.90000000000001
  0
DIMENSION
  5
E7
100
AcDbEntity
  8
rozmir
  6
ByLayer
 62
  256
370
   -1
100
AcDbDimension
  2
*D1
 10
10
 20
105
 30
0
 11
7.75
 21
83.75000000000001
 31
0
 70
   32
 71
    5
  3
Standard
 53
0
210
0
220
0
230
1
100
AcDbAlignedDimension
 13
3.200000000000005
 23
62.50000000000001
 33
0
 14
3.199999999999999
 24
105
 34
0
 50
90
100
AcDbRotatedDimension
  0
DIMENSION
  5
E8
100
AcDbEntity
  8
rozmir
  6
ByLayer
 62
  256
370
   -1
100
AcDbDimension
  2
*D2
 10
10
 20
147.5
 30
0
 11
7.75
 21
126.25
 31
0
 70
   32
 71
    5
  3
Standard
 53
0
210
0
220
0
230
1
100
AcDbAlignedDimension
 13
3.200000000000008
 23
105
 33
0
 14
3.200000000000011
 24
147.5
 34
0
 50
90
100
AcDbRotatedDimension
  0
DIMENSION
  5
E9
100
AcDbEntity
  8
rozmir
  6
ByLayer
 62
  256
370
   -1
100
AcDbDimension
  2
*D3
 10
10
 20
190
 30
0
 11
7.75
 21
168.75
 31
0
 70
   32
 71
    5
  3
Standard
 53
0
210
0
220
0
230
1
100
AcDbAlignedDimension
 13
3.200000000000011
 23
147.5
 33
0
 14
3.200000000000014
 24
190
 34
0
 50
90
100
AcDbRotatedDimension
  0
DIMENSION
  5
EA
100
AcDbEntity
  8
rozmir
  6
ByLayer
 62
  256
370
   -1
100
AcDbDimension
  2
*D4
 10
-5
 20
192.5
 30
0
 11
-7.250000000000005
 21
96.25
 31
0
 70
   32
 71
    5
  3
Standard
 53
0
210
0
220
0
230
1
100
AcDbAlignedDimension
 13
0
 23
0
 33
0
 14
1.4210854715202e-14
 24
192.5
 34
0
 50
90
100
AcDbRotatedDimension
  0
DIMENSION
  5
EB
100
AcDbEntity
  8
rozmir
  6
ByLayer
 62
  256
370
   -1
100
AcDbDimension
  2
*D5
 10
100
 20
-10
 30
0
 11
50
 21
-7.75
 31
0
 70
   32
 71
    5
  3
Standard
 53
0
210
0
220
0
230
1
100
AcDbAlignedDimension
 13
0
 23
0
 33
0
 14
100
 24
0
 34
0
100
AcDbRotatedDimension
  0
DIMENSION
  5
EC
100
AcDbEntity
  8
rozmir
  6
ByLayer
 62
  256
370
   -1
100
AcDbDimension
  2
*D6
 10
210
 20
-10
 30
0
 11
185
 21
-7.75
 31
0
 70
   32
 71
    5
  3
Standard
 53
0
210
0
220
0
230
1
100
AcDbAlignedDimension
 13
160
 23
0
 33
0
 14
210
 24
0
 34
0
100
AcDbRotatedDimension
  0
DIMENSION
  5
ED
100
AcDbEntity
  8
rozmir
  6
ByLayer
 62
  256
370
   -1
100
AcDbDimension
  2
*D7
 10
-2
 20
-31
 30
0
 11
-4.250000000000002
 21
-55
 31
0
 70
   32
 71
    5
  3
Standard
 53
0
210
0
220
0
230
1
100
AcDbAlignedDimension
 13
0.3000000000000088
 23
-79
 33
0
 14
0.2999999999999972
 24
-31
 34
0
 50
90
100
AcDbRotatedDimension
  0
DIMENSION
  5
EE
100
AcDbEntity
  8
rozmir
  6
ByLayer
 62
  256
370
   -1
100
AcDbDimension
  2
*D8
 10
10
 20
-78.90000000000001
 30
0
 11
7.75
 21
-55.00000000000001
 31
0
 70
   32
 71
    5
  3
Standard
 53
0
210
0
220
0
230
1
100
AcDbAlignedDimension
 13
10
 23
-31.1
 33
0
 14
10
 24
-78.90000000000001
 34
0
 50
90
100
AcDbRotatedDimension
  0
DIMENSION
  5
EF
100
AcDbEntity
  8
rozmir
  6
ByLayer
 62
  256
370
   -1
100
AcDbDimension
  2
*D9
 10
98.90000000000001
 20
-40
 30
0
 11
49.99999999999999
 21
-37.75
 31
0
 70
   32
 71
    5
  3
Standard
 53
0
210
0
220
0
230
1
100
AcDbAlignedDimension
 13
1.1
 23
-40
 33
0
 14
98.90000000000001
 24
-40
 34
0
100
AcDbRotatedDimension
  0
LWPOLYLINE
  5
F0
100
AcDbEntity
  8
karkas
  6
ByLayer
 62
  256
370
   -1
100
AcDbPolyline
 90
    7
 70
    0
 43
0
 10
48.8
 20
190
 10
48.8
 20
187.9
 10
48.90000000000001
 20
187.8
 10
49.00000000000001
 20
187.8
 10
49.1
 20
187.9
 10
49.09999999999999
 20
190
 10
48.8
 20
190
  0
LWPOLYLINE
  5
F1
100
AcDbEntity
  8
karkas
  6
ByLayer
 62
  256
370
   -1
100
AcDbPolyline
 90
    7
 70
    0
 43
0
 10
48.8
 20
147.5
 10
48.8
 20
145.4
 10
48.9
 20
145.3
 10
49
 20
145.3
 10
49.09999999999999
 20
145.4
 10
49.09999999999999
 20
147.5
 10
48.8
 20
147.5
  0
LWPOLYLINE
  5
F2
100
AcDbEntity
  8
karkas
  6
ByLayer
 62
  256
370
   -1
100
AcDbPolyline
 90
    7
 70
    0
 43
0
 10
48.8
 20
105
 10
48.8
 20
102.9
 10
48.9
 20
102.8
 10
49
 20
102.8
 10
49.09999999999999
 20
102.9
 10
49.09999999999999
 20
105
 10
48.8
 20
105
  0
LWPOLYLINE
  5
F3
100
AcDbEntity
  8
karkas
  6
ByLayer
 62
  256
370
   -1
100
AcDbPolyline
 90
    7
 70
    0
 43
0
 10
48.8
 20
62.5
 10
48.8
 20
60.39999999999999
 10
48.90000000000001
 20
60.3
 10
49.00000000000001
 20
60.3
 10
49.1
 20
60.39999999999999
 10
49.09999999999999
 20
62.5
 10
48.8
 20
62.5
  0
LWPOLYLINE
  5
F4
100
AcDbEntity
  8
karkas
  6
ByLayer
 62
  256
370
   -1
100
AcDbPolyline
 90
    4
 70
    1
 43
0
 10
48.8
 20
-77.2
 10
51.3
 20
-77.2
 10
51.3
 20
-32.8
 10
48.8
 20
-32.8
  0
DIMENSION
  5
F5
100
AcDbEntity
  8
rozmir
  6
ByLayer
 62
  256
370
   -1
100
AcDbDimension
  2
*D10
 10
99
 20
-22
 30
0
 11
50
 21
-19.75
 31
0
 70
   32
 71
    5
  3
Standard
 53
0
210
0
220
0
230
1
100
AcDbAlignedDimension
 13
1
 23
-30.30000000000001
 33
0
 14
99
 24
-30.3
 34
0
100
AcDbRotatedDimension
  0
DIMENSION
  5
F6
100
AcDbEntity
  8
rozmir
  6
ByLayer
 62
  256
370
   -1
100
AcDbDimension
  2
*D11
 10
48.8
 20
-27
 30
0
 11
24.55
 21
-24.75
 31
0
 70
   32
 71
    5
  3
Standard
 53
0
210
0
220
0
230
1
100
AcDbAlignedDimension
 13
0.2999999999999972
 23
-31
 33
0
 14
48.8
 24
-32.8
 34
0
100
AcDbRotatedDimension
  0
LWPOLYLINE
  5
F7
100
AcDbEntity
  8
karkas
  6
DASHED2
 62
  256
370
   -1
100
AcDbPolyline
 90
    4
 70
    0
 43
0
 10
163.2
 20
12.5
 10
161
 20
12.5
 10
161
 20
10
 10
163.2
 20
10
  0
LWPOLYLINE
  5
F8
100
AcDbEntity
  8
karkas
  6
DASHED2
 62
  256
370
   -1
100
AcDbPolyline
 90
    2
 70
    0
 43
0
 10
161
 20
10
 10
163.2
 20
7.800000000000001
  0
LWPOLYLINE
  5
F9
100
AcDbEntity
  8
karkas
  6
DASHED2
 62
  256
370
   -1
100
AcDbPolyline
 90
    4
 70
    0
 43
0
 10
206.8
 20
12.50000000000005
 10
209.0000000000001
 20
12.50000000000005
 10
209.0000000000001
 20
10.00000000000005
 10
206.8000000000001
 20
10.00000000000005
  0
LWPOLYLINE
  5
FA
100
AcDbEntity
  8
karkas
  6
DASHED2
 62
  256
370
   -1
100
AcDbPolyline
 90
    2
 70
    0
 43
0
 10
209.0000000000001
 20
10.00000000000005
 10
206.8000000000001
 20
7.800000000000051
  0
LWPOLYLINE
  5
FB
100
AcDbEntity
  8
karkas
  6
DASHED2
 62
  256
370
   -1
100
AcDbPolyline
 90
    2
 70
    0
 43
0
 10
161
 20
10.3
 10
209
 20
10.3
  0
LWPOLYLINE
  5
FC
100
AcDbEntity
  8
karkas
  6
ByLayer
 62
  256
370
   -1
100
AcDbPolyline
 90
    7
 70
    0
 43
0
 10
0.2999999999999912
 20
-79
 10
0.2999999999999972
 20
-31
 10
0.9999999999999964
 20
-31
 10
2.799999999999997
 20
-32.8
 10
2.799999999999991
 20
-77.2
 10
0.9999999999999976
 20
-79
 10
0.2999999999999912
 20
-79
  0
DIMENSION
  5
FD
100
AcDbEntity
  8
rozmir
  6
ByLayer
 62
  256
370
   -1
100
AcDbDimension
  2
*D12
 10
10
 20
62
 30
0
 11
7.749999999999998
 21
36.25
 31
0
 70
   32
 71
    5
  3
Standard
 53
0
210
0
220
0
230
1
100
AcDbAlignedDimension
 13
3.200000000000001
 23
10
 33
0
 14
3.200000000000005
 24
62.50000000000001
 34
0
 50
90
100
AcDbRotatedDimension
  0
DIMENSION
  5
FE
100
AcDbEntity
  8
rozmir
  6
ByLayer
 62
  256
370
   -1
100
AcDbDimension
  2
*D13
 10
10
 20
10
 30
0
 11
7.75
 21
5.000000000000001
 31
0
 70
   32
 71
    5
  3
Standard
 53
0
210
0
220
0
230
1
100
AcDbAlignedDimension
 13
3.2
 23
0
 33
0
 14
3.200000000000001
 24
10
 34
0
 50
90
100
AcDbRotatedDimension
  0
ENDSEC
  0
SECTION
  2
OBJECTS
  0
DICTIONARY
  5
C
330
0
100
AcDbDictionary
281
    1
  3
ACAD_GROUP
350
D
  0
DICTIONARY
  5
D
330
C
100
AcDbDictionary
281
    1
  0
ENDSEC
  0
EOF
