999
dxfrw 0.6.3
  0
SECTION
  2
HEADER
  9
$ACADVER
  1
AC1021
  9
$DWGCODEPAGE
  3
ANSI_1252
  9
$INSBASE
 10
0
 20
0
 30
0
  9
$EXTMIN
 10
-7.500000000000015
 20
-46.00000000000001
 30
0
  9
$EXTMAX
 10
202
 20
203.5
 30
0
  9
$LIMMIN
 10
0
 20
0
  9
$LIMMAX
 10
420
 20
297
  9
$ORTHOMODE
 70
    0
  9
$REGENMODE
 70
    1
  9
$FILLMODE
 70
    1
  9
$QTEXTMODE
 70
    0
  9
$MIRRTEXT
 70
    0
  9
$LTSCALE
 40
1
  9
$ATTMODE
 70
    0
  9
$TEXTSIZE
 40
2.5
  9
$TRACEWID
 40
15.68
  9
$TEXTSTYLE
  7
STANDARD
  9
$CLAYER
  8
rozmir
  9
$CELTYPE
  6
BYLAYER
  9
$CECOLOR
 62
  256
  9
$CELTSCALE
 40
1
  9
$DISPSILH
 70
    0
  9
$DIMSCALE
 40
1
  9
$DIMASZ
 40
2.5
  9
$DIMEXO
 40
1
  9
$DIMDLI
 40
3.75
  9
$DIMRND
 40
0
  9
$DIMDLE
 40
0
  9
$DIMEXE
 40
2
  9
$DIMTP
 40
0
  9
$DIMTM
 40
0
  9
$DIMTXT
 40
2.5
  9
$DIMCEN
 40
2.5
  9
$DIMTSZ
 40
0
  9
$DIMTOL
 70
    0
  9
$DIMLIM
 70
    0
  9
$DIMTIH
 70
    0
  9
$DIMTOH
 70
    0
  9
$DIMSE1
 70
    0
  9
$DIMSE2
 70
    0
  9
$DIMTAD
 70
    1
  9
$DIMZIN
 70
    8
  9
$DIMBLK
  1

  9
$DIMASO
 70
    1
  9
$DIMSHO
 70
    1
  9
$DIMPOST
  1

  9
$DIMAPOST
  1

  9
$DIMALT
 70
    0
  9
$DIMALTD
 70
    3
  9
$DIMALTF
 40
0.03937
  9
$DIMLFAC
 40
1
  9
$DIMTOFL
 70
    1
  9
$DIMTVP
 40
0
  9
$DIMTIX
 70
    0
  9
$DIMSOXD
 70
    0
  9
$DIMSAH
 70
    0
  9
$DIMBLK1
  1

  9
$DIMBLK2
  1

  9
$DIMSTYLE
  2
STANDARD
  9
$DIMCLRD
 70
    0
  9
$DIMCLRE
 70
    0
  9
$DIMCLRT
 70
    0
  9
$DIMTFAC
 40
1
  9
$DIMGAP
 40
1
  9
$DIMJUST
 70
    0
  9
$DIMSD1
 70
    0
  9
$DIMSD2
 70
    0
  9
$DIMTOLJ
 70
    0
  9
$DIMTZIN
 70
    8
  9
$DIMALTZ
 70
    0
  9
$DIMALTTZ
 70
    0
  9
$DIMUPT
 70
    0
  9
$DIMDEC
 70
    1
  9
$DIMTDEC
 70
    2
  9
$DIMALTU
 70
    2
  9
$DIMALTTD
 70
    3
  9
$DIMTXSTY
  7
standard
  9
$DIMAUNIT
 70
    0
  9
$DIMADEC
 70
    0
  9
$DIMALTRND
 40
0
  9
$DIMAZIN
 70
    0
  9
$DIMDSEP
 70
   44
  9
$DIMATFIT
 70
    3
  9
$DIMFRAC
 70
    0
  9
$DIMLDRBLK
  1
STANDARD
  9
$DIMLUNIT
 70
    2
  9
$DIMLWD
 70
   -2
  9
$DIMLWE
 70
   -2
  9
$DIMTMOVE
 70
    0
  9
$DIMFXL
 40
1
  9
$DIMFXLON
 70
    0
  9
$DIMJOGANG
 40
0.7854
  9
$DIMTFILL
 70
    0
  9
$DIMTFILLCLR
 70
    0
  9
$DIMARCSYM
 70
    0
  9
$DIMLTYPE
  6

  9
$DIMLTEX1
  6

  9
$DIMLTEX2
  6

  9
$LUNITS
 70
    2
  9
$LUPREC
 70
    2
  9
$SKETCHINC
 40
1
  9
$FILLETRAD
 40
0
  9
$AUNITS
 70
    0
  9
$AUPREC
 70
    2
  9
$MENU
  1
.
  9
$ELEVATION
 40
0
  9
$PELEVATION
 40
0
  9
$THICKNESS
 40
0
  9
$LIMCHECK
 70
    0
  9
$CHAMFERA
 40
0
  9
$CHAMFERB
 40
0
  9
$CHAMFERC
 40
0
  9
$CHAMFERD
 40
0
  9
$SKPOLY
 70
    0
  9
$USRTIMER
 70
    1
  9
$ANGBASE
 50
0
  9
$ANGDIR
 70
    0
  9
$PDMODE
 70
   34
  9
$PDSIZE
 40
0
  9
$PLINEWID
 40
0
  9
$SPLFRAME
 70
    0
  9
$SPLINETYPE
 70
    2
  9
$SPLINESEGS
 70
    8
  9
$HANDSEED
  5
20000
  9
$SURFTAB1
 70
    6
  9
$SURFTAB2
 70
    6
  9
$SURFTYPE
 70
    6
  9
$SURFU
 70
    6
  9
$SURFV
 70
    6
  9
$UCSBASE
  2

  9
$UCSNAME
  2

  9
$UCSORG
 10
0
 20
0
 30
0
  9
$UCSXDIR
 10
1
 20
0
 30
0
  9
$UCSYDIR
 10
0
 20
1
 30
0
  9
$UCSORTHOREF
  2

  9
$UCSORTHOVIEW
 70
    0
  9
$UCSORGTOP
 10
0
 20
0
 30
0
  9
$UCSORGBOTTOM
 10
0
 20
0
 30
0
  9
$UCSORGLEFT
 10
0
 20
0
 30
0
  9
$UCSORGRIGHT
 10
0
 20
0
 30
0
  9
$UCSORGFRONT
 10
0
 20
0
 30
0
  9
$UCSORGBACK
 10
0
 20
0
 30
0
  9
$PUCSBASE
  2

  9
$PUCSNAME
  2

  9
$PUCSORG
 10
0
 20
0
 30
0
  9
$PUCSXDIR
 10
1
 20
0
 30
0
  9
$PUCSYDIR
 10
0
 20
1
 30
0
  9
$PUCSORTHOREF
  2

  9
$PUCSORTHOVIEW
 70
    0
  9
$PUCSORGTOP
 10
0
 20
0
 30
0
  9
$PUCSORGBOTTOM
 10
0
 20
0
 30
0
  9
$PUCSORGLEFT
 10
0
 20
0
 30
0
  9
$PUCSORGRIGHT
 10
0
 20
0
 30
0
  9
$PUCSORGFRONT
 10
0
 20
0
 30
0
  9
$PUCSORGBACK
 10
0
 20
0
 30
0
  9
$USERI1
 70
    0
  9
$USERI2
 70
    0
  9
$USERI3
 70
    0
  9
$USERI4
 70
    0
  9
$USERI5
 70
    0
  9
$USERR1
 40
0
  9
$USERR2
 40
0
  9
$USERR3
 40
0
  9
$USERR4
 40
0
  9
$USERR5
 40
0
  9
$WORLDVIEW
 70
    1
  9
$SHADEDGE
 70
    3
  9
$SHADEDIF
 70
   70
  9
$TILEMODE
 70
    1
  9
$MAXACTVP
 70
   64
  9
$PINSBASE
 10
4.875242326332796
 20
3.68578352180937
 30
0
  9
$PLIMCHECK
 70
    0
  9
$PEXTMIN
 10
0
 20
0
 30
0
  9
$PEXTMAX
 10
0
 20
0
 30
0
  9
$GRIDMODE
 70
    1
  9
$SNAPSTYLE
 70
    0
  9
$GRIDUNIT
 10
0
 20
0
  9
$PLIMMIN
 10
0
 20
0
  9
$PLIMMAX
 10
29.7
 20
21
  9
$UNITMODE
 70
    0
  9
$VISRETAIN
 70
    1
  9
$PLINEGEN
 70
    0
  9
$PSLTSCALE
 70
    1
  9
$TREEDEPTH
 70
 3020
  9
$CMLSTYLE
  2
Standard
  9
$CMLJUST
 70
    0
  9
$CMLSCALE
 40
20
  9
$PROXYGRAPHICS
 70
    1
  9
$MEASUREMENT
 70
    1
  9
$CELWEIGHT
370
   -1
  9
$ENDCAPS
280
    0
  9
$JOINSTYLE
280
    0
  9
$LWDISPLAY
290
    0
  9
$INSUNITS
 70
    5
  9
$HYPERLINKBASE
  1

  9
$STYLESHEET
  1

  9
$XEDIT
290
    1
  9
$CEPSNTYPE
380
    0
  9
$PSTYLEMODE
290
    1
  9
$EXTNAMES
290
    1
  9
$PSVPSCALE
 40
0.07471719541535289
  9
$OLESTARTUP
290
    0
  9
$SORTENTS
280
  127
  9
$INDEXCTL
280
    0
  9
$HIDETEXT
280
    1
  9
$XCLIPFRAME
290
    0
  9
$HALOGAP
280
    0
  9
$OBSCOLOR
 70
  257
  9
$OBSLTYPE
280
    0
  9
$INTERSECTIONDISPLAY
280
    0
  9
$INTERSECTIONCOLOR
 70
  257
  9
$DIMASSOC
280
    1
  9
$PROJECTNAME
  1

  9
$CAMERADISPLAY
290
    0
  9
$LENSLENGTH
 40
50
  9
$CAMERAHEIGHT
 40
0
  9
$STEPSPERSEC
 40
2
  9
$STEPSIZE
 40
50
  9
$3DDWFPREC
 40
2
  9
$PSOLWIDTH
 40
5
  9
$PSOLHEIGHT
 40
80
  9
$LOFTANG1
 40
1.570796326794897
  9
$LOFTANG2
 40
1.570796326794897
  9
$LOFTMAG1
 40
0
  9
$LOFTMAG2
 40
0
  9
$LOFTPARAM
 70
    7
  9
$LOFTNORMALS
280
    1
  9
$LATITUDE
 40
1
  9
$LONGITUDE
 40
1
  9
$NORTHDIRECTION
 40
0
  9
$TIMEZONE
 70
-8000
  9
$LIGHTGLYPHDISPLAY
280
    1
  9
$TILEMODELIGHTSYNCH
280
    1
  9
$SOLIDHIST
280
    1
  9
$SHOWHIST
280
    1
  9
$DWFFRAME
280
    2
  9
$DGNFRAME
280
    0
  9
$REALWORLDSCALE
290
    1
  9
$INTERFERECOLOR
 62
    1
  9
$CSHADOW
280
    0
  9
$SHADOWPLANELOCATION
 40
0
  0
ENDSEC
  0
SECTION
  2
CLASSES
  0
ENDSEC
  0
SECTION
  2
TABLES
  0
TABLE
  2
VPORT
  5
8
330
0
100
AcDbSymbolTable
 70
    1
  0
VPORT
  5
31
330
2
100
AcDbSymbolTableRecord
100
AcDbViewportTableRecord
  2
*ACTIVE
 70
    0
 10
0
 20
0
 11
1
 21
1
 12
176.0668282548476
 22
103.4975761772853
 13
0
 23
0
 14
10
 24
10
 15
10
 25
10
 16
0
 26
0
 36
1
 17
0
 27
0
 37
0
 40
256.4113573407203
 41
1.987870619946092
 42
50
 43
0
 44
0
 50
0
 51
0
 71
    0
 72
  100
 73
    1
 74
    3
 75
    0
 76
    1
 77
    0
 78
    0
281
    0
 65
    1
110
0
120
0
130
0
111
1
121
0
131
0
112
0
122
1
132
0
 79
    0
146
0
348
10020
 60
    7
 61
    5
292
1
282
    1
141
0
142
0
 63
  250
421
3358443
  0
ENDTAB
  0
TABLE
  2
LTYPE
  5
5
330
0
100
AcDbSymbolTable
 70
    4
  0
LTYPE
  5
14
330
5
100
AcDbSymbolTableRecord
100
AcDbLinetypeTableRecord
  2
ByBlock
 70
    0
  3

 72
   65
 73
    0
 40
0
  0
LTYPE
  5
15
330
5
100
AcDbSymbolTableRecord
100
AcDbLinetypeTableRecord
  2
ByLayer
 70
    0
  3

 72
   65
 73
    0
 40
0
  0
LTYPE
  5
16
330
5
100
AcDbSymbolTableRecord
100
AcDbLinetypeTableRecord
  2
Continuous
 70
    0
  3
Solid line
 72
   65
 73
    0
 40
0
  0
LTYPE
  5
32
330
5
100
AcDbSymbolTableRecord
100
AcDbLinetypeTableRecord
  2
DOT
 70
    0
  3
Dot . . . . . . . . . . . . . . . . . . . . . .
 72
   65
 73
    2
 40
6.35
 49
0
 74
    0
 49
-6.35
 74
    0
  0
LTYPE
  5
33
330
5
100
AcDbSymbolTableRecord
100
AcDbLinetypeTableRecord
  2
DOTTINY
 70
    0
  3
Dot (.15x) .....................................
 72
   65
 73
    2
 40
0.9525
 49
0
 74
    0
 49
-0.9525
 74
    0
  0
LTYPE
  5
34
330
5
100
AcDbSymbolTableRecord
100
AcDbLinetypeTableRecord
  2
DOT2
 70
    0
  3
Dot (.5x) .....................................
 72
   65
 73
    2
 40
3.175
 49
0
 74
    0
 49
-3.175
 74
    0
  0
LTYPE
  5
35
330
5
100
AcDbSymbolTableRecord
100
AcDbLinetypeTableRecord
  2
DOTX2
 70
    0
  3
Dot (2x) .  .  .  .  .  .  .  .  .  .  .  .  .
 72
   65
 73
    2
 40
12.7
 49
0
 74
    0
 49
-12.7
 74
    0
  0
LTYPE
  5
36
330
5
100
AcDbSymbolTableRecord
100
AcDbLinetypeTableRecord
  2
DASHED
 70
    0
  3
Dashed _ _ _ _ _ _ _ _ _ _ _ _ _ _ _ _ _
 72
   65
 73
    2
 40
19.05
 49
12.7
 74
    0
 49
-6.35
 74
    0
  0
LTYPE
  5
37
330
5
100
AcDbSymbolTableRecord
100
AcDbLinetypeTableRecord
  2
DASHEDTINY
 70
    0
  3
Dashed (.15x) _ _ _ _ _ _ _ _ _ _ _ _ _ _ _ _ _
 72
   65
 73
    2
 40
2.8575
 49
1.905
 74
    0
 49
-0.9525
 74
    0
  0
LTYPE
  5
38
330
5
100
AcDbSymbolTableRecord
100
AcDbLinetypeTableRecord
  2
DASHED2
 70
    0
  3
Dashed (.5x) _ _ _ _ _ _ _ _ _ _ _ _ _ _ _ _ _
 72
   65
 73
    2
 40
9.524999999999999
 49
6.35
 74
    0
 49
-3.175
 74
    0
  0
LTYPE
  5
39
330
5
100
AcDbSymbolTableRecord
100
AcDbLinetypeTableRecord
  2
DASHEDX2
 70
    0
  3
Dashed (2x) ____  ____  ____  ____  ____  ___
 72
   65
 73
    2
 40
38.09999999999999
 49
25.4
 74
    0
 49
-12.7
 74
    0
  0
LTYPE
  5
3A
330
5
100
AcDbSymbolTableRecord
100
AcDbLinetypeTableRecord
  2
DASHDOT
 70
    0
  3
Dash dot __ . __ . __ . __ . __ . __ . __ . __
 72
   65
 73
    4
 40
25.4
 49
12.7
 74
    0
 49
-6.35
 74
    0
 49
0
 74
    0
 49
-6.35
 74
    0
  0
LTYPE
  5
3B
330
5
100
AcDbSymbolTableRecord
100
AcDbLinetypeTableRecord
  2
DASHDOTTINY
 70
    0
  3
Dash dot (.15x) _._._._._._._._._._._._._._._.
 72
   65
 73
    4
 40
3.81
 49
1.905
 74
    0
 49
-0.9525
 74
    0
 49
0
 74
    0
 49
-0.9525
 74
    0
  0
LTYPE
  5
3C
330
5
100
AcDbSymbolTableRecord
100
AcDbLinetypeTableRecord
  2
DASHDOT2
 70
    0
  3
Dash dot (.5x) _._._._._._._._._._._._._._._.
 72
   65
 73
    4
 40
12.7
 49
6.35
 74
    0
 49
-3.175
 74
    0
 49
0
 74
    0
 49
-3.175
 74
    0
  0
LTYPE
  5
3D
330
5
100
AcDbSymbolTableRecord
100
AcDbLinetypeTableRecord
  2
DASHDOTX2
 70
    0
  3
Dash dot (2x) ____  .  ____  .  ____  .  ___
 72
   65
 73
    4
 40
50.8
 49
25.4
 74
    0
 49
-12.7
 74
    0
 49
0
 74
    0
 49
-12.7
 74
    0
  0
LTYPE
  5
3E
330
5
100
AcDbSymbolTableRecord
100
AcDbLinetypeTableRecord
  2
DIVIDE
 70
    0
  3
Divide ____ . . ____ . . ____ . . ____ . . ____
 72
   65
 73
    6
 40
31.75
 49
12.7
 74
    0
 49
-6.35
 74
    0
 49
0
 74
    0
 49
-6.35
 74
    0
 49
0
 74
    0
 49
-6.35
 74
    0
  0
LTYPE
  5
3F
330
5
100
AcDbSymbolTableRecord
100
AcDbLinetypeTableRecord
  2
DIVIDETINY
 70
    0
  3
Divide (.15x) __..__..__..__..__..__..__..__.._
 72
   65
 73
    6
 40
4.7625
 49
1.905
 74
    0
 49
-0.9525
 74
    0
 49
0
 74
    0
 49
-0.9525
 74
    0
 49
0
 74
    0
 49
-0.9525
 74
    0
  0
LTYPE
  5
40
330
5
100
AcDbSymbolTableRecord
100
AcDbLinetypeTableRecord
  2
DIVIDE2
 70
    0
  3
Divide (.5x) __..__..__..__..__..__..__..__.._
 72
   65
 73
    6
 40
15.875
 49
6.35
 74
    0
 49
-3.175
 74
    0
 49
0
 74
    0
 49
-3.175
 74
    0
 49
0
 74
    0
 49
-3.175
 74
    0
  0
LTYPE
  5
41
330
5
100
AcDbSymbolTableRecord
100
AcDbLinetypeTableRecord
  2
DIVIDEX2
 70
    0
  3
Divide (2x) ________  .  .  ________  .  .  _
 72
   65
 73
    6
 40
63.5
 49
25.4
 74
    0
 49
-12.7
 74
    0
 49
0
 74
    0
 49
-12.7
 74
    0
 49
0
 74
    0
 49
-12.7
 74
    0
  0
LTYPE
  5
42
330
5
100
AcDbSymbolTableRecord
100
AcDbLinetypeTableRecord
  2
BORDER
 70
    0
  3
Border __ __ . __ __ . __ __ . __ __ . __ __ .
 72
   65
 73
    6
 40
44.45
 49
12.7
 74
    0
 49
-6.35
 74
    0
 49
12.7
 74
    0
 49
-6.35
 74
    0
 49
0
 74
    0
 49
-6.35
 74
    0
  0
LTYPE
  5
43
330
5
100
AcDbSymbolTableRecord
100
AcDbLinetypeTableRecord
  2
BORDERTINY
 70
    0
  3
Border (.15x) __.__.__.__.__.__.__.__.__.__.__.
 72
   65
 73
    6
 40
6.6675
 49
1.905
 74
    0
 49
-0.9525
 74
    0
 49
1.905
 74
    0
 49
-0.9525
 74
    0
 49
0
 74
    0
 49
-0.9525
 74
    0
  0
LTYPE
  5
44
330
5
100
AcDbSymbolTableRecord
100
AcDbLinetypeTableRecord
  2
BORDER2
 70
    0
  3
Border (.5x) __.__.__.__.__.__.__.__.__.__.__.
 72
   65
 73
    6
 40
22.225
 49
6.35
 74
    0
 49
-3.175
 74
    0
 49
6.35
 74
    0
 49
-3.175
 74
    0
 49
0
 74
    0
 49
-3.175
 74
    0
  0
LTYPE
  5
45
330
5
100
AcDbSymbolTableRecord
100
AcDbLinetypeTableRecord
  2
BORDERX2
 70
    0
  3
Border (2x) ____  ____  .  ____  ____  .  ___
 72
   65
 73
    6
 40
88.89999999999999
 49
25.4
 74
    0
 49
-12.7
 74
    0
 49
25.4
 74
    0
 49
-12.7
 74
    0
 49
0
 74
    0
 49
-12.7
 74
    0
  0
LTYPE
  5
46
330
5
100
AcDbSymbolTableRecord
100
AcDbLinetypeTableRecord
  2
CENTER
 70
    0
  3
Center ____ _ ____ _ ____ _ ____ _ ____ _ ____
 72
   65
 73
    4
 40
50.8
 49
31.75
 74
    0
 49
-6.35
 74
    0
 49
6.35
 74
    0
 49
-6.35
 74
    0
  0
LTYPE
  5
47
330
5
100
AcDbSymbolTableRecord
100
AcDbLinetypeTableRecord
  2
CENTERTINY
 70
    0
  3
Center (.15x) ___ _ ___ _ ___ _ ___ _ ___ _ ___
 72
   65
 73
    4
 40
7.619999999999999
 49
4.7625
 74
    0
 49
-0.9525
 74
    0
 49
0.9525
 74
    0
 49
-0.9525
 74
    0
  0
LTYPE
  5
48
330
5
100
AcDbSymbolTableRecord
100
AcDbLinetypeTableRecord
  2
CENTER2
 70
    0
  3
Center (.5x) ___ _ ___ _ ___ _ ___ _ ___ _ ___
 72
   65
 73
    4
 40
28.575
 49
19.05
 74
    0
 49
-3.175
 74
    0
 49
3.175
 74
    0
 49
-3.175
 74
    0
  0
LTYPE
  5
49
330
5
100
AcDbSymbolTableRecord
100
AcDbLinetypeTableRecord
  2
CENTERX2
 70
    0
  3
Center (2x) ________  __  ________  __  _____
 72
   65
 73
    4
 40
101.6
 49
63.5
 74
    0
 49
-12.7
 74
    0
 49
12.7
 74
    0
 49
-12.7
 74
    0
  0
ENDTAB
  0
TABLE
  2
LAYER
  5
2
330
0
100
AcDbSymbolTable
 70
    1
  0
LAYER
  5
10
330
2
100
AcDbSymbolTableRecord
100
AcDbLayerTableRecord
  2
0
 70
    0
 62
    7
  6
CONTINUOUS
370
   -3
390
F
1001
LibreCad
1070
    1
  0
LAYER
  5
4A
330
2
100
AcDbSymbolTableRecord
100
AcDbLayerTableRecord
  2
akum
 70
    0
 62
    4
  6
CONTINUOUS
370
   50
390
F
  0
LAYER
  5
4B
330
2
100
AcDbSymbolTableRecord
100
AcDbLayerTableRecord
  2
droty1
 70
    0
 62
    5
  6
CONTINUOUS
370
   50
390
F
  0
LAYER
  5
4C
330
2
100
AcDbSymbolTableRecord
100
AcDbLayerTableRecord
  2
droty2
 70
    0
 62
    1
  6
CONTINUOUS
370
   50
390
F
  0
LAYER
  5
4D
330
2
100
AcDbSymbolTableRecord
100
AcDbLayerTableRecord
  2
droty3
 70
    0
 62
   96
420
32768
  6
CONTINUOUS
370
   50
390
F
  0
LAYER
  5
4E
330
2
100
AcDbSymbolTableRecord
100
AcDbLayerTableRecord
  2
karkas
 70
    0
 62
  136
420
32896
  6
CONTINUOUS
370
   50
390
F
  0
LAYER
  5
4F
330
2
100
AcDbSymbolTableRecord
100
AcDbLayerTableRecord
  2
krepezh
 70
    0
 62
    5
  6
CONTINUOUS
370
   50
390
F
  0
LAYER
  5
50
330
2
100
AcDbSymbolTableRecord
100
AcDbLayerTableRecord
  2
polka
 70
    0
 62
    2
  6
CONTINUOUS
370
   50
390
F
  0
LAYER
  5
51
330
2
100
AcDbSymbolTableRecord
100
AcDbLayerTableRecord
  2
rozmir
 70
    0
 62
    4
  6
CONTINUOUS
370
   13
390
F
  0
LAYER
  5
52
330
2
100
AcDbSymbolTableRecord
100
AcDbLayerTableRecord
  2
tekst
 70
    0
 62
  136
420
32896
  6
CONTINUOUS
370
   25
390
F
  0
ENDTAB
  0
TABLE
  2
STYLE
  5
3
330
0
100
AcDbSymbolTable
 70
    3
  0
STYLE
  5
53
330
2
100
AcDbSymbolTableRecord
100
AcDbTextStyleTableRecord
  2
cyrillic_ii
 70
    0
 40
0
 41
1
 50
0
 71
    0
 42
1
  3
cyrillic_ii
  4

  0
STYLE
  5
54
330
2
100
AcDbSymbolTableRecord
100
AcDbTextStyleTableRecord
  2
Standard
 70
    0
 40
0
 41
1
 50
0
 71
    0
 42
1
  3
txt
  4

  0
ENDTAB
  0
TABLE
  2
VIEW
  5
6
330
0
100
AcDbSymbolTable
 70
    0
  0
ENDTAB
  0
TABLE
  2
UCS
  5
7
330
0
100
AcDbSymbolTable
 70
    0
  0
ENDTAB
  0
TABLE
  2
APPID
  5
9
330
0
100
AcDbSymbolTable
 70
    1
  0
APPID
  5
12
330
9
100
AcDbSymbolTableRecord
100
AcDbRegAppTableRecord
  2
ACAD
 70
    0
  0
APPID
  5
55
330
9
100
AcDbSymbolTableRecord
100
AcDbRegAppTableRecord
  2
LibreCad
 70
    0
  0
ENDTAB
  0
TABLE
  2
DIMSTYLE
  5
A
330
0
100
AcDbSymbolTable
 70
    1
100
AcDbDimStyleTable
 71
    1
  0
DIMSTYLE
105
56
330
A
100
AcDbSymbolTableRecord
100
AcDbDimStyleTableRecord
  2
Standard
 70
    0
 40
1
 41
2.5
 42
1
 43
0.38
 44
2
 45
0
 46
0
 47
0
 48
0
 49
1
140
2.5
141
0.09
142
0
143
25.4
144
1
145
0
146
1
147
1
148
0
 71
    0
 72
    0
 73
    0
 74
    1
 75
    0
 76
    0
 77
    0
 78
    8
 79
    0
170
    0
171
    2
172
    0
173
    0
174
    0
175
    0
176
    0
177
    0
178
    0
179
    0
271
    1
272
    4
273
    2
274
    2
275
    0
276
    0
277
    2
278
   44
279
    0
280
    0
281
    0
282
    0
283
    1
284
    0
285
    0
286
    0
288
    0
289
    3
340
standard
341

371
   -2
372
   -2
  0
ENDTAB
  0
TABLE
  2
BLOCK_RECORD
  5
1
330
0
100
AcDbSymbolTable
 70
    2
  0
BLOCK_RECORD
  5
1F
330
1
100
AcDbSymbolTableRecord
100
AcDbBlockTableRecord
  2
*Model_Space
 70
    0
280
    1
281
    0
  0
BLOCK_RECORD
  5
1E
330
1
100
AcDbSymbolTableRecord
100
AcDbBlockTableRecord
  2
*Paper_Space
 70
    0
280
    1
281
    0
  0
BLOCK_RECORD
  5
57
330
1
100
AcDbSymbolTableRecord
100
AcDbBlockTableRecord
  2
*D22
 70
    0
280
    1
281
    0
  0
BLOCK_RECORD
  5
5A
330
1
100
AcDbSymbolTableRecord
100
AcDbBlockTableRecord
  2
*D21
 70
    0
280
    1
281
    0
  0
BLOCK_RECORD
  5
5D
330
1
100
AcDbSymbolTableRecord
100
AcDbBlockTableRecord
  2
*D5
 70
    0
280
    1
281
    0
  0
BLOCK_RECORD
  5
60
330
1
100
AcDbSymbolTableRecord
100
AcDbBlockTableRecord
  2
*D7
 70
    0
280
    1
281
    0
  0
BLOCK_RECORD
  5
63
330
1
100
AcDbSymbolTableRecord
100
AcDbBlockTableRecord
  2
*D8
 70
    0
280
    1
281
    0
  0
BLOCK_RECORD
  5
66
330
1
100
AcDbSymbolTableRecord
100
AcDbBlockTableRecord
  2
*D4
 70
    0
280
    1
281
    0
  0
BLOCK_RECORD
  5
69
330
1
100
AcDbSymbolTableRecord
100
AcDbBlockTableRecord
  2
*D13
 70
    0
280
    1
281
    0
  0
BLOCK_RECORD
  5
6C
330
1
100
AcDbSymbolTableRecord
100
AcDbBlockTableRecord
  2
*D15
 70
    0
280
    1
281
    0
  0
BLOCK_RECORD
  5
6F
330
1
100
AcDbSymbolTableRecord
100
AcDbBlockTableRecord
  2
*D1
 70
    0
280
    1
281
    0
  0
BLOCK_RECORD
  5
72
330
1
100
AcDbSymbolTableRecord
100
AcDbBlockTableRecord
  2
*D12
 70
    0
280
    1
281
    0
  0
BLOCK_RECORD
  5
75
330
1
100
AcDbSymbolTableRecord
100
AcDbBlockTableRecord
  2
*D10
 70
    0
280
    1
281
    0
  0
BLOCK_RECORD
  5
78
330
1
100
AcDbSymbolTableRecord
100
AcDbBlockTableRecord
  2
*D17
 70
    0
280
    1
281
    0
  0
BLOCK_RECORD
  5
7B
330
1
100
AcDbSymbolTableRecord
100
AcDbBlockTableRecord
  2
*D9
 70
    0
280
    1
281
    0
  0
BLOCK_RECORD
  5
7E
330
1
100
AcDbSymbolTableRecord
100
AcDbBlockTableRecord
  2
*D23
 70
    0
280
    1
281
    0
  0
BLOCK_RECORD
  5
81
330
1
100
AcDbSymbolTableRecord
100
AcDbBlockTableRecord
  2
*D18
 70
    0
280
    1
281
    0
  0
BLOCK_RECORD
  5
84
330
1
100
AcDbSymbolTableRecord
100
AcDbBlockTableRecord
  2
*D25
 70
    0
280
    1
281
    0
  0
BLOCK_RECORD
  5
87
330
1
100
AcDbSymbolTableRecord
100
AcDbBlockTableRecord
  2
*D16
 70
    0
280
    1
281
    0
  0
BLOCK_RECORD
  5
8A
330
1
100
AcDbSymbolTableRecord
100
AcDbBlockTableRecord
  2
*D14
 70
    0
280
    1
281
    0
  0
BLOCK_RECORD
  5
8D
330
1
100
AcDbSymbolTableRecord
100
AcDbBlockTableRecord
  2
*D3
 70
    0
280
    1
281
    0
  0
BLOCK_RECORD
  5
90
330
1
100
AcDbSymbolTableRecord
100
AcDbBlockTableRecord
  2
*D24
 70
    0
280
    1
281
    0
  0
BLOCK_RECORD
  5
93
330
1
100
AcDbSymbolTableRecord
100
AcDbBlockTableRecord
  2
*D6
 70
    0
280
    1
281
    0
  0
BLOCK_RECORD
  5
96
330
1
100
AcDbSymbolTableRecord
100
AcDbBlockTableRecord
  2
*D2
 70
    0
280
    1
281
    0
  0
BLOCK_RECORD
  5
99
330
1
100
AcDbSymbolTableRecord
100
AcDbBlockTableRecord
  2
*D11
 70
    0
280
    1
281
    0
  0
BLOCK_RECORD
  5
9C
330
1
100
AcDbSymbolTableRecord
100
AcDbBlockTableRecord
  2
*D19
 70
    0
280
    1
281
    0
  0
BLOCK_RECORD
  5
9F
330
1
100
AcDbSymbolTableRecord
100
AcDbBlockTableRecord
  2
*D20
 70
    0
280
    1
281
    0
  0
ENDTAB
  0
ENDSEC
  0
SECTION
  2
BLOCKS
  0
BLOCK
  5
20
330
1F
100
AcDbEntity
  8
0
100
AcDbBlockBegin
  2
*Model_Space
 70
    0
 10
0
 20
0
 30
0
  3
*Model_Space
  1

  0
ENDBLK
  5
21
330
1F
100
AcDbEntity
  8
0
100
AcDbBlockEnd
  0
BLOCK
  5
1C
330
1B
100
AcDbEntity
  8
0
100
AcDbBlockBegin
  2
*Paper_Space
 70
    0
 10
0
 20
0
 30
0
  3
*Paper_Space
  1

  0
ENDBLK
  5
1D
330
1F
100
AcDbEntity
  8
0
100
AcDbBlockEnd
  0
BLOCK
  5
58
330
57
100
AcDbEntity
  8
0
100
AcDbBlockBegin
  2
*D22
 70
    1
 10
0
 20
0
  3
*D22
  1

  0
LINE
  5
A2
100
AcDbEntity
  8
rozmir
  6
ByBlock
 62
    0
370
   -2
100
AcDbLine
 10
102
 20
95
 11
144
 21
95
  0
SOLID
  5
A3
100
AcDbEntity
  8
rozmir
  6
ByBlock
 62
    0
370
   -2
100
AcDbTrace
 10
102
 20
95
 30
0
 11
104.5
 21
95.41628465777283
 31
0
 12
104.5
 22
94.58371534222717
 32
0
 13
104.5
 23
94.58371534222717
 33
0
  0
SOLID
  5
A4
100
AcDbEntity
  8
rozmir
  6
ByBlock
 62
    0
370
   -2
100
AcDbTrace
 10
144
 20
95
 30
0
 11
141.5
 21
94.58371534222717
 31
0
 12
141.5
 22
95.41628465777283
 32
0
 13
141.5
 23
95.41628465777283
 33
0
  0
MTEXT
  5
A5
100
AcDbEntity
  8
rozmir
  6
CONTINUOUS
 62
    0
370
   -2
100
AcDbMText
 10
123
 20
97.25
 30
0
 40
2.5
 41
3.333333333333333
 71
    5
 72
    1
  1
42
  7
standard
210
0
220
0
230
1
 50
0
 73
    2
 44
1
  0
LINE
  5
A6
100
AcDbEntity
  8
rozmir
  6
ByBlock
 62
    0
370
   -2
100
AcDbLine
 10
102
 20
99
 11
102
 21
93
  0
LINE
  5
A7
100
AcDbEntity
  8
rozmir
  6
ByBlock
 62
    0
370
   -2
100
AcDbLine
 10
144
 20
99
 11
144
 21
93
  0
ENDBLK
  5
59
330
57
100
AcDbEntity
  8
0
100
AcDbBlockEnd
  0
BLOCK
  5
5B
330
5A
100
AcDbEntity
  8
0
100
AcDbBlockBegin
  2
*D21
 70
    1
 10
0
 20
0
  3
*D21
  1

  0
LINE
  5
A8
100
AcDbEntity
  8
rozmir
  6
ByBlock
 62
    0
370
   -2
100
AcDbLine
 10
2
 20
95
 11
60
 21
95
  0
SOLID
  5
A9
100
AcDbEntity
  8
rozmir
  6
ByBlock
 62
    0
370
   -2
100
AcDbTrace
 10
2
 20
95
 30
0
 11
4.5
 21
95.41628465777283
 31
0
 12
4.5
 22
94.58371534222717
 32
0
 13
4.5
 23
94.58371534222717
 33
0
  0
SOLID
  5
AA
100
AcDbEntity
  8
rozmir
  6
ByBlock
 62
    0
370
   -2
100
AcDbTrace
 10
60
 20
95
 30
0
 11
57.5
 21
94.58371534222717
 31
0
 12
57.5
 22
95.41628465777283
 32
0
 13
57.5
 23
95.41628465777283
 33
0
  0
MTEXT
  5
AB
100
AcDbEntity
  8
rozmir
  6
CONTINUOUS
 62
    0
370
   -2
100
AcDbMText
 10
31
 20
97.25
 30
0
 40
2.5
 41
3.055555555555711
 71
    5
 72
    1
  1
58
  7
standard
210
0
220
0
230
1
 50
0
 73
    2
 44
1
  0
LINE
  5
AC
100
AcDbEntity
  8
rozmir
  6
ByBlock
 62
    0
370
   -2
100
AcDbLine
 10
2
 20
99
 11
2
 21
93
  0
LINE
  5
AD
100
AcDbEntity
  8
rozmir
  6
ByBlock
 62
    0
370
   -2
100
AcDbLine
 10
60
 20
99
 11
60
 21
93
  0
ENDBLK
  5
5C
330
5A
100
AcDbEntity
  8
0
100
AcDbBlockEnd
  0
BLOCK
  5
5E
330
5D
100
AcDbEntity
  8
0
100
AcDbBlockBegin
  2
*D5
 70
    1
 10
0
 20
0
  3
*D5
  1

  0
LINE
  5
AE
100
AcDbEntity
  8
rozmir
  6
ByBlock
 62
    0
370
   -2
100
AcDbLine
 10
96
 20
133
 11
96
 21
160
  0
SOLID
  5
AF
100
AcDbEntity
  8
rozmir
  6
ByBlock
 62
    0
370
   -2
100
AcDbTrace
 10
96
 20
133
 30
0
 11
95.58371534222717
 21
135.5
 31
0
 12
96.41628465777283
 22
135.5
 32
0
 13
96.41628465777283
 23
135.5
 33
0
  0
SOLID
  5
B0
100
AcDbEntity
  8
rozmir
  6
ByBlock
 62
    0
370
   -2
100
AcDbTrace
 10
96
 20
160
 30
0
 11
96.41628465777283
 21
157.5
 31
0
 12
95.58371534222717
 22
157.5
 32
0
 13
95.58371534222717
 23
157.5
 33
0
  0
MTEXT
  5
B1
100
AcDbEntity
  8
rozmir
  6
CONTINUOUS
 62
    0
370
   -2
100
AcDbMText
 10
93.75
 20
146.5
 30
0
 40
2.5
 41
3.055555555555556
 71
    5
 72
    1
  1
27
  7
standard
210
0
220
0
230
1
 50
90
 73
    2
 44
1
  0
LINE
  5
B2
100
AcDbEntity
  8
rozmir
  6
ByBlock
 62
    0
370
   -2
100
AcDbLine
 10
101
 20
133
 11
94
 21
133
  0
LINE
  5
B3
100
AcDbEntity
  8
rozmir
  6
ByBlock
 62
    0
370
   -2
100
AcDbLine
 10
101
 20
160
 11
94
 21
160
  0
ENDBLK
  5
5F
330
5D
100
AcDbEntity
  8
0
100
AcDbBlockEnd
  0
BLOCK
  5
61
330
60
100
AcDbEntity
  8
0
100
AcDbBlockBegin
  2
*D7
 70
    1
 10
0
 20
0
  3
*D7
  1

  0
LINE
  5
B4
100
AcDbEntity
  8
rozmir
  6
ByBlock
 62
    0
370
   -2
100
AcDbLine
 10
0
 20
200
 11
62
 21
200
  0
SOLID
  5
B5
100
AcDbEntity
  8
rozmir
  6
ByBlock
 62
    0
370
   -2
100
AcDbTrace
 10
0
 20
200
 30
0
 11
2.5
 21
200.4162846577728
 31
0
 12
2.5
 22
199.5837153422272
 32
0
 13
2.5
 23
199.5837153422272
 33
0
  0
SOLID
  5
B6
100
AcDbEntity
  8
rozmir
  6
ByBlock
 62
    0
370
   -2
100
AcDbTrace
 10
62
 20
200
 30
0
 11
59.5
 21
199.5837153422272
 31
0
 12
59.5
 22
200.4162846577728
 32
0
 13
59.5
 23
200.4162846577728
 33
0
  0
MTEXT
  5
B7
100
AcDbEntity
  8
rozmir
  6
CONTINUOUS
 62
    0
370
   -2
100
AcDbMText
 10
31
 20
202.25
 30
0
 40
2.5
 41
3.055555555555711
 71
    5
 72
    1
  1
62
  7
standard
210
0
220
0
230
1
 50
0
 73
    2
 44
1
  0
LINE
  5
B8
100
AcDbEntity
  8
rozmir
  6
ByBlock
 62
    0
370
   -2
100
AcDbLine
 10
6.123233995736766e-17
 20
191
 11
1.224646799147353e-16
 21
202
  0
LINE
  5
B9
100
AcDbEntity
  8
rozmir
  6
ByBlock
 62
    0
370
   -2
100
AcDbLine
 10
62
 20
191
 11
62
 21
202
  0
ENDBLK
  5
62
330
60
100
AcDbEntity
  8
0
100
AcDbBlockEnd
  0
BLOCK
  5
64
330
63
100
AcDbEntity
  8
0
100
AcDbBlockBegin
  2
*D8
 70
    1
 10
0
 20
0
  3
*D8
  1

  0
LINE
  5
BA
100
AcDbEntity
  8
rozmir
  6
ByBlock
 62
    0
370
   -2
100
AcDbLine
 10
2
 20
195
 11
30
 21
195
  0
SOLID
  5
BB
100
AcDbEntity
  8
rozmir
  6
ByBlock
 62
    0
370
   -2
100
AcDbTrace
 10
2
 20
195
 30
0
 11
4.5
 21
195.4162846577728
 31
0
 12
4.5
 22
194.5837153422272
 32
0
 13
4.5
 23
194.5837153422272
 33
0
  0
SOLID
  5
BC
100
AcDbEntity
  8
rozmir
  6
ByBlock
 62
    0
370
   -2
100
AcDbTrace
 10
30
 20
195
 30
0
 11
27.5
 21
194.5837153422272
 31
0
 12
27.5
 22
195.4162846577728
 32
0
 13
27.5
 23
195.4162846577728
 33
0
  0
MTEXT
  5
BD
100
AcDbEntity
  8
rozmir
  6
CONTINUOUS
 62
    0
370
   -2
100
AcDbMText
 10
16
 20
197.25
 30
0
 40
2.5
 41
3.055555555555556
 71
    5
 72
    1
  1
28
  7
standard
210
0
220
0
230
1
 50
0
 73
    2
 44
1
  0
LINE
  5
BE
100
AcDbEntity
  8
rozmir
  6
ByBlock
 62
    0
370
   -2
100
AcDbLine
 10
2
 20
188
 11
2
 21
197
  0
LINE
  5
BF
100
AcDbEntity
  8
rozmir
  6
ByBlock
 62
    0
370
   -2
100
AcDbLine
 10
30
 20
188
 11
30
 21
197
  0
ENDBLK
  5
65
330
63
100
AcDbEntity
  8
0
100
AcDbBlockEnd
  0
BLOCK
  5
67
330
66
100
AcDbEntity
  8
0
100
AcDbBlockBegin
  2
*D4
 70
    1
 10
0
 20
0
  3
*D4
  1

  0
LINE
  5
C0
100
AcDbEntity
  8
rozmir
  6
ByBlock
 62
    0
370
   -2
100
AcDbLine
 10
96
 20
106
 11
96
 21
133
  0
SOLID
  5
C1
100
AcDbEntity
  8
rozmir
  6
ByBlock
 62
    0
370
   -2
100
AcDbTrace
 10
96
 20
106
 30
0
 11
95.58371534222717
 21
108.5
 31
0
 12
96.41628465777283
 22
108.5
 32
0
 13
96.41628465777283
 23
108.5
 33
0
  0
SOLID
  5
C2
100
AcDbEntity
  8
rozmir
  6
ByBlock
 62
    0
370
   -2
100
AcDbTrace
 10
96
 20
133
 30
0
 11
96.41628465777283
 21
130.5
 31
0
 12
95.58371534222717
 22
130.5
 32
0
 13
95.58371534222717
 23
130.5
 33
0
  0
MTEXT
  5
C3
100
AcDbEntity
  8
rozmir
  6
CONTINUOUS
 62
    0
370
   -2
100
AcDbMText
 10
93.75
 20
119.5
 30
0
 40
2.5
 41
3.055555555555556
 71
    5
 72
    1
  1
27
  7
standard
210
0
220
0
230
1
 50
90
 73
    2
 44
1
  0
LINE
  5
C4
100
AcDbEntity
  8
rozmir
  6
ByBlock
 62
    0
370
   -2
100
AcDbLine
 10
101
 20
106
 11
94
 21
106
  0
LINE
  5
C5
100
AcDbEntity
  8
rozmir
  6
ByBlock
 62
    0
370
   -2
100
AcDbLine
 10
101
 20
133
 11
94
 21
133
  0
ENDBLK
  5
68
330
66
100
AcDbEntity
  8
0
100
AcDbBlockEnd
  0
BLOCK
  5
6A
330
69
100
AcDbEntity
  8
0
100
AcDbBlockBegin
  2
*D13
 70
    1
 10
0
 20
0
  3
*D13
  1

  0
LINE
  5
C6
100
AcDbEntity
  8
rozmir
  6
ByBlock
 62
    0
370
   -2
100
AcDbLine
 10
100
 20
60
 11
123
 21
60
  0
SOLID
  5
C7
100
AcDbEntity
  8
rozmir
  6
ByBlock
 62
    0
370
   -2
100
AcDbTrace
 10
100
 20
60
 30
0
 11
102.5
 21
60.41628465777284
 31
0
 12
102.5
 22
59.58371534222716
 32
0
 13
102.5
 23
59.58371534222716
 33
0
  0
SOLID
  5
C8
100
AcDbEntity
  8
rozmir
  6
ByBlock
 62
    0
370
   -2
100
AcDbTrace
 10
123
 20
60
 30
0
 11
120.5
 21
59.58371534222716
 31
0
 12
120.5
 22
60.41628465777284
 32
0
 13
120.5
 23
60.41628465777284
 33
0
  0
MTEXT
  5
C9
100
AcDbEntity
  8
rozmir
  6
CONTINUOUS
 62
    0
370
   -2
100
AcDbMText
 10
111.5
 20
62.25
 30
0
 40
2.5
 41
3.055555555555711
 71
    5
 72
    1
  1
23
  7
standard
210
0
220
0
230
1
 50
0
 73
    2
 44
1
  0
LINE
  5
CA
100
AcDbEntity
  8
rozmir
  6
ByBlock
 62
    0
370
   -2
100
AcDbLine
 10
100
 20
54
 11
100
 21
62
  0
LINE
  5
CB
100
AcDbEntity
  8
rozmir
  6
ByBlock
 62
    0
370
   -2
100
AcDbLine
 10
123
 20
59
 11
123
 21
62
  0
ENDBLK
  5
6B
330
69
100
AcDbEntity
  8
0
100
AcDbBlockEnd
  0
BLOCK
  5
6D
330
6C
100
AcDbEntity
  8
0
100
AcDbBlockBegin
  2
*D15
 70
    1
 10
0
 20
0
  3
*D15
  1

  0
LINE
  5
CC
100
AcDbEntity
  8
rozmir
  6
ByBlock
 62
    0
370
   -2
100
AcDbLine
 10
139
 20
60
 11
162
 21
60
  0
SOLID
  5
CD
100
AcDbEntity
  8
rozmir
  6
ByBlock
 62
    0
370
   -2
100
AcDbTrace
 10
139
 20
60
 30
0
 11
141.5
 21
60.41628465777284
 31
0
 12
141.5
 22
59.58371534222716
 32
0
 13
141.5
 23
59.58371534222716
 33
0
  0
SOLID
  5
CE
100
AcDbEntity
  8
rozmir
  6
ByBlock
 62
    0
370
   -2
100
AcDbTrace
 10
162
 20
60
 30
0
 11
159.5
 21
59.58371534222716
 31
0
 12
159.5
 22
60.41628465777284
 32
0
 13
159.5
 23
60.41628465777284
 33
0
  0
MTEXT
  5
CF
100
AcDbEntity
  8
rozmir
  6
CONTINUOUS
 62
    0
370
   -2
100
AcDbMText
 10
150.5
 20
62.25
 30
0
 40
2.5
 41
3.055555555555711
 71
    5
 72
    1
  1
23
  7
standard
210
0
220
0
230
1
 50
0
 73
    2
 44
1
  0
LINE
  5
D0
100
AcDbEntity
  8
rozmir
  6
ByBlock
 62
    0
370
   -2
100
AcDbLine
 10
139
 20
59
 11
139
 21
62
  0
LINE
  5
D1
100
AcDbEntity
  8
rozmir
  6
ByBlock
 62
    0
370
   -2
100
AcDbLine
 10
162
 20
54
 11
162
 21
62
  0
ENDBLK
  5
6E
330
6C
100
AcDbEntity
  8
0
100
AcDbBlockEnd
  0
BLOCK
  5
70
330
6F
100
AcDbEntity
  8
0
100
AcDbBlockBegin
  2
*D1
 70
    1
 10
0
 20
0
  3
*D1
  1

  0
LINE
  5
D2
100
AcDbEntity
  8
rozmir
  6
ByBlock
 62
    0
370
   -2
100
AcDbLine
 10
-4.000000000000005
 20
100
 11
-4
 21
190
  0
SOLID
  5
D3
100
AcDbEntity
  8
rozmir
  6
ByBlock
 62
    0
370
   -2
100
AcDbTrace
 10
-4.000000000000005
 20
100
 30
0
 11
-4.416284657772845
 21
102.5
 31
0
 12
-3.583715342227165
 22
102.5
 32
0
 13
-3.583715342227165
 23
102.5
 33
0
  0
SOLID
  5
D4
100
AcDbEntity
  8
rozmir
  6
ByBlock
 62
    0
370
   -2
100
AcDbTrace
 10
-4
 20
190
 30
0
 11
-3.58371534222716
 21
187.5
 31
0
 12
-4.416284657772841
 22
187.5
 32
0
 13
-4.416284657772841
 23
187.5
 33
0
  0
MTEXT
  5
D5
100
AcDbEntity
  8
rozmir
  6
CONTINUOUS
 62
    0
370
   -2
100
AcDbMText
 10
-6.250000000000003
 20
145
 30
0
 40
2.5
 41
3.055555555555711
 71
    5
 72
    1
  1
90
  7
standard
210
0
220
0
230
1
 50
90
 73
    2
 44
1
  0
LINE
  5
D6
100
AcDbEntity
  8
rozmir
  6
ByBlock
 62
    0
370
   -2
100
AcDbLine
 10
-1
 20
100
 11
-6.000000000000005
 21
100
  0
LINE
  5
D7
100
AcDbEntity
  8
rozmir
  6
ByBlock
 62
    0
370
   -2
100
AcDbLine
 10
-1
 20
190
 11
-6
 21
190
  0
ENDBLK
  5
71
330
6F
100
AcDbEntity
  8
0
100
AcDbBlockEnd
  0
BLOCK
  5
73
330
72
100
AcDbEntity
  8
0
100
AcDbBlockBegin
  2
*D12
 70
    1
 10
0
 20
0
  3
*D12
  1

  0
LINE
  5
D8
100
AcDbEntity
  8
rozmir
  6
ByBlock
 62
    0
370
   -2
100
AcDbLine
 10
154.9
 20
79
 11
167
 21
79
  0
SOLID
  5
D9
100
AcDbEntity
  8
rozmir
  6
ByBlock
 62
    0
370
   -2
100
AcDbTrace
 10
159.9
 20
79
 30
0
 11
157.4
 21
78.58371534222717
 31
0
 12
157.4
 22
79.41628465777283
 32
0
 13
157.4
 23
79.41628465777283
 33
0
  0
SOLID
  5
DA
100
AcDbEntity
  8
rozmir
  6
ByBlock
 62
    0
370
   -2
100
AcDbTrace
 10
162
 20
79
 30
0
 11
164.5
 21
79.41628465777283
 31
0
 12
164.5
 22
78.58371534222717
 32
0
 13
164.5
 23
78.58371534222717
 33
0
  0
MTEXT
  5
DB
100
AcDbEntity
  8
rozmir
  6
CONTINUOUS
 62
    0
370
   -2
100
AcDbMText
 10
164.7361111111111
 20
81.25
 30
0
 40
2.5
 41
3.472222222222222
 71
    5
 72
    1
  1
2,1
  7
standard
210
0
220
0
230
1
 50
0
 73
    2
 44
1
  0
LINE
  5
DC
100
AcDbEntity
  8
rozmir
  6
ByBlock
 62
    0
370
   -2
100
AcDbLine
 10
159.9
 20
77.00000000000001
 11
159.9
 21
81
  0
LINE
  5
DD
100
AcDbEntity
  8
rozmir
  6
ByBlock
 62
    0
370
   -2
100
AcDbLine
 10
162
 20
74.90000000000002
 11
162
 21
81
  0
ENDBLK
  5
74
330
72
100
AcDbEntity
  8
0
100
AcDbBlockEnd
  0
BLOCK
  5
76
330
75
100
AcDbEntity
  8
0
100
AcDbBlockBegin
  2
*D10
 70
    1
 10
0
 20
0
  3
*D10
  1

  0
LINE
  5
DE
100
AcDbEntity
  8
rozmir
  6
ByBlock
 62
    0
370
   -2
100
AcDbLine
 10
95
 20
79
 11
107.1
 21
79
  0
SOLID
  5
DF
100
AcDbEntity
  8
rozmir
  6
ByBlock
 62
    0
370
   -2
100
AcDbTrace
 10
100
 20
79
 30
0
 11
97.5
 21
78.58371534222717
 31
0
 12
97.5
 22
79.41628465777283
 32
0
 13
97.5
 23
79.41628465777283
 33
0
  0
SOLID
  5
E0
100
AcDbEntity
  8
rozmir
  6
ByBlock
 62
    0
370
   -2
100
AcDbTrace
 10
102.1
 20
79
 30
0
 11
104.6
 21
79.41628465777283
 31
0
 12
104.6
 22
78.58371534222717
 32
0
 13
104.6
 23
78.58371534222717
 33
0
  0
MTEXT
  5
E1
100
AcDbEntity
  8
rozmir
  6
CONTINUOUS
 62
    0
370
   -2
100
AcDbMText
 10
104.8361111111111
 20
81.25
 30
0
 40
2.5
 41
3.472222222222222
 71
    5
 72
    1
  1
2,1
  7
standard
210
0
220
0
230
1
 50
0
 73
    2
 44
1
  0
LINE
  5
E2
100
AcDbEntity
  8
rozmir
  6
ByBlock
 62
    0
370
   -2
100
AcDbLine
 10
100
 20
74.90000000000001
 11
100
 21
81
  0
LINE
  5
E3
100
AcDbEntity
  8
rozmir
  6
ByBlock
 62
    0
370
   -2
100
AcDbLine
 10
102.1
 20
77.00000000000001
 11
102.1
 21
81
  0
ENDBLK
  5
77
330
75
100
AcDbEntity
  8
0
100
AcDbBlockEnd
  0
BLOCK
  5
79
330
78
100
AcDbEntity
  8
0
100
AcDbBlockBegin
  2
*D17
 70
    1
 10
0
 20
0
  3
*D17
  1

  0
LINE
  5
E4
100
AcDbEntity
  8
rozmir
  6
ByBlock
 62
    0
370
   -2
100
AcDbLine
 10
97
 20
25.00000000000001
 11
97
 21
37.09999999999999
  0
SOLID
  5
E5
100
AcDbEntity
  8
rozmir
  6
ByBlock
 62
    0
370
   -2
100
AcDbTrace
 10
97
 20
30.00000000000001
 30
0
 11
97.41628465777283
 21
27.50000000000001
 31
0
 12
96.58371534222717
 22
27.50000000000001
 32
0
 13
96.58371534222717
 23
27.50000000000001
 33
0
  0
SOLID
  5
E6
100
AcDbEntity
  8
rozmir
  6
ByBlock
 62
    0
370
   -2
100
AcDbTrace
 10
97
 20
32.09999999999999
 30
0
 11
96.58371534222717
 21
34.59999999999999
 31
0
 12
97.41628465777283
 22
34.59999999999999
 32
0
 13
97.41628465777283
 23
34.59999999999999
 33
0
  0
MTEXT
  5
E7
100
AcDbEntity
  8
rozmir
  6
CONTINUOUS
 62
    0
370
   -2
100
AcDbMText
 10
94.75
 20
34.8361111111111
 30
0
 40
2.5
 41
3.472222222222222
 71
    5
 72
    1
  1
2,1
  7
standard
210
0
220
0
230
1
 50
90
 73
    2
 44
1
  0
LINE
  5
E8
100
AcDbEntity
  8
rozmir
  6
ByBlock
 62
    0
370
   -2
100
AcDbLine
 10
101.1
 20
30.00000000000001
 11
95
 21
30.00000000000001
  0
LINE
  5
E9
100
AcDbEntity
  8
rozmir
  6
ByBlock
 62
    0
370
   -2
100
AcDbLine
 10
99
 20
32.09999999999999
 11
95
 21
32.09999999999999
  0
ENDBLK
  5
7A
330
78
100
AcDbEntity
  8
0
100
AcDbBlockEnd
  0
BLOCK
  5
7C
330
7B
100
AcDbEntity
  8
0
100
AcDbBlockBegin
  2
*D9
 70
    1
 10
0
 20
0
  3
*D9
  1

  0
LINE
  5
EA
100
AcDbEntity
  8
rozmir
  6
ByBlock
 62
    0
370
   -2
100
AcDbLine
 10
32
 20
195
 11
60
 21
195
  0
SOLID
  5
EB
100
AcDbEntity
  8
rozmir
  6
ByBlock
 62
    0
370
   -2
100
AcDbTrace
 10
32
 20
195
 30
0
 11
34.5
 21
195.4162846577728
 31
0
 12
34.5
 22
194.5837153422272
 32
0
 13
34.5
 23
194.5837153422272
 33
0
  0
SOLID
  5
EC
100
AcDbEntity
  8
rozmir
  6
ByBlock
 62
    0
370
   -2
100
AcDbTrace
 10
60
 20
195
 30
0
 11
57.5
 21
194.5837153422272
 31
0
 12
57.5
 22
195.4162846577728
 32
0
 13
57.5
 23
195.4162846577728
 33
0
  0
MTEXT
  5
ED
100
AcDbEntity
  8
rozmir
  6
CONTINUOUS
 62
    0
370
   -2
100
AcDbMText
 10
46
 20
197.25
 30
0
 40
2.5
 41
3.055555555555556
 71
    5
 72
    1
  1
28
  7
standard
210
0
220
0
230
1
 50
0
 73
    2
 44
1
  0
LINE
  5
EE
100
AcDbEntity
  8
rozmir
  6
ByBlock
 62
    0
370
   -2
100
AcDbLine
 10
32
 20
188
 11
32
 21
197
  0
LINE
  5
EF
100
AcDbEntity
  8
rozmir
  6
ByBlock
 62
    0
370
   -2
100
AcDbLine
 10
60
 20
188
 11
60
 21
197
  0
ENDBLK
  5
7D
330
7B
100
AcDbEntity
  8
0
100
AcDbBlockEnd
  0
BLOCK
  5
7F
330
7E
100
AcDbEntity
  8
0
100
AcDbBlockBegin
  2
*D23
 70
    1
 10
0
 20
0
  3
*D23
  1

  0
LINE
  5
F0
100
AcDbEntity
  8
rozmir
  6
ByBlock
 62
    0
370
   -2
100
AcDbLine
 10
151
 20
108
 11
151
 21
133
  0
SOLID
  5
F1
100
AcDbEntity
  8
rozmir
  6
ByBlock
 62
    0
370
   -2
100
AcDbTrace
 10
151
 20
108
 30
0
 11
150.5837153422272
 21
110.5
 31
0
 12
151.4162846577728
 22
110.5
 32
0
 13
151.4162846577728
 23
110.5
 33
0
  0
SOLID
  5
F2
100
AcDbEntity
  8
rozmir
  6
ByBlock
 62
    0
370
   -2
100
AcDbTrace
 10
151
 20
133
 30
0
 11
151.4162846577728
 21
130.5
 31
0
 12
150.5837153422272
 22
130.5
 32
0
 13
150.5837153422272
 23
130.5
 33
0
  0
MTEXT
  5
F3
100
AcDbEntity
  8
rozmir
  6
CONTINUOUS
 62
    0
370
   -2
100
AcDbMText
 10
148.75
 20
120.5
 30
0
 40
2.5
 41
3.055555555555711
 71
    5
 72
    1
  1
25
  7
standard
210
0
220
0
230
1
 50
90
 73
    2
 44
1
  0
LINE
  5
F4
100
AcDbEntity
  8
rozmir
  6
ByBlock
 62
    0
370
   -2
100
AcDbLine
 10
145
 20
108
 11
153
 21
108
  0
LINE
  5
F5
100
AcDbEntity
  8
rozmir
  6
ByBlock
 62
    0
370
   -2
100
AcDbLine
 10
145
 20
133
 11
153
 21
133
  0
ENDBLK
  5
80
330
7E
100
AcDbEntity
  8
0
100
AcDbBlockEnd
  0
BLOCK
  5
82
330
81
100
AcDbEntity
  8
0
100
AcDbBlockBegin
  2
*D18
 70
    1
 10
0
 20
0
  3
*D18
  1

  0
LINE
  5
F6
100
AcDbEntity
  8
rozmir
  6
ByBlock
 62
    0
370
   -2
100
AcDbLine
 10
97
 20
32.09999999999999
 11
97
 21
73.90000000000001
  0
SOLID
  5
F7
100
AcDbEntity
  8
rozmir
  6
ByBlock
 62
    0
370
   -2
100
AcDbTrace
 10
97
 20
32.09999999999999
 30
0
 11
96.58371534222717
 21
34.59999999999999
 31
0
 12
97.41628465777283
 22
34.59999999999999
 32
0
 13
97.41628465777283
 23
34.59999999999999
 33
0
  0
SOLID
  5
F8
100
AcDbEntity
  8
rozmir
  6
ByBlock
 62
    0
370
   -2
100
AcDbTrace
 10
97
 20
73.90000000000001
 30
0
 11
97.41628465777283
 21
71.40000000000001
 31
0
 12
96.58371534222717
 22
71.40000000000001
 32
0
 13
96.58371534222717
 23
71.40000000000001
 33
0
  0
MTEXT
  5
F9
100
AcDbEntity
  8
rozmir
  6
CONTINUOUS
 62
    0
370
   -2
100
AcDbMText
 10
94.75
 20
53
 30
0
 40
2.5
 41
5.694444444444445
 71
    5
 72
    1
  1
41,8
  7
standard
210
0
220
0
230
1
 50
90
 73
    2
 44
1
  0
LINE
  5
FA
100
AcDbEntity
  8
rozmir
  6
ByBlock
 62
    0
370
   -2
100
AcDbLine
 10
99
 20
32.09999999999999
 11
95
 21
32.09999999999999
  0
LINE
  5
FB
100
AcDbEntity
  8
rozmir
  6
ByBlock
 62
    0
370
   -2
100
AcDbLine
 10
99
 20
73.90000000000001
 11
95
 21
73.90000000000001
  0
ENDBLK
  5
83
330
81
100
AcDbEntity
  8
0
100
AcDbBlockEnd
  0
BLOCK
  5
85
330
84
100
AcDbEntity
  8
0
100
AcDbBlockBegin
  2
*D25
 70
    1
 10
0
 20
0
  3
*D25
  1

  0
LINE
  5
FC
100
AcDbEntity
  8
rozmir
  6
ByBlock
 62
    0
370
   -2
100
AcDbLine
 10
117.3431457505076
 20
47.34314575050762
 11
128.6568542494924
 21
58.65685424949238
  0
SOLID
  5
FD
100
AcDbEntity
  8
rozmir
  6
ByBlock
 62
    0
370
   -2
100
AcDbTrace
 10
120.8786796564404
 20
50.87867965644035
 30
0
 11
119.4052704078891
 21
48.81655499905889
 31
0
 12
118.8165549990589
 22
49.40527040788908
 32
0
 13
118.8165549990589
 23
49.40527040788908
 33
0
  0
SOLID
  5
FE
100
AcDbEntity
  8
rozmir
  6
ByBlock
 62
    0
370
   -2
100
AcDbTrace
 10
125.1213203435596
 20
55.12132034355965
 30
0
 11
126.5947295921109
 21
57.18344500094111
 31
0
 12
127.1834450009411
 22
56.59472959211092
 32
0
 13
127.1834450009411
 23
56.59472959211092
 33
0
  0
MTEXT
  5
FF
100
AcDbEntity
  8
rozmir
  6
CONTINUOUS
 62
    0
370
   -2
100
AcDbMText
 10
117
 20
50
 30
0
 40
2.5
 41
1.111111111111266
 71
    5
 72
    1
  1
6
  7
standard
210
0
220
0
230
1
 50
44.99999999999997
 73
    2
 44
1
  0
ENDBLK
  5
86
330
84
100
AcDbEntity
  8
0
100
AcDbBlockEnd
  0
BLOCK
  5
88
330
87
100
AcDbEntity
  8
0
100
AcDbBlockBegin
  2
*D16
 70
    1
 10
0
 20
0
  3
*D16
  1

  0
LINE
  5
100
100
AcDbEntity
  8
rozmir
  6
ByBlock
 62
    0
370
   -2
100
AcDbLine
 10
100
 20
25
 11
162
 21
25
  0
SOLID
  5
101
100
AcDbEntity
  8
rozmir
  6
ByBlock
 62
    0
370
   -2
100
AcDbTrace
 10
100
 20
25
 30
0
 11
102.5
 21
25.41628465777284
 31
0
 12
102.5
 22
24.58371534222716
 32
0
 13
102.5
 23
24.58371534222716
 33
0
  0
SOLID
  5
102
100
AcDbEntity
  8
rozmir
  6
ByBlock
 62
    0
370
   -2
100
AcDbTrace
 10
162
 20
25
 30
0
 11
159.5
 21
24.58371534222716
 31
0
 12
159.5
 22
25.41628465777284
 32
0
 13
159.5
 23
25.41628465777284
 33
0
  0
MTEXT
  5
103
100
AcDbEntity
  8
rozmir
  6
CONTINUOUS
 62
    0
370
   -2
100
AcDbMText
 10
131
 20
27.25
 30
0
 40
2.5
 41
3.055555555555711
 71
    5
 72
    1
  1
62
  7
standard
210
0
220
0
230
1
 50
0
 73
    2
 44
1
  0
LINE
  5
104
100
AcDbEntity
  8
rozmir
  6
ByBlock
 62
    0
370
   -2
100
AcDbLine
 10
100
 20
31
 11
100
 21
23
  0
LINE
  5
105
100
AcDbEntity
  8
rozmir
  6
ByBlock
 62
    0
370
   -2
100
AcDbLine
 10
162
 20
31
 11
162
 21
23
  0
ENDBLK
  5
89
330
87
100
AcDbEntity
  8
0
100
AcDbBlockEnd
  0
BLOCK
  5
8B
330
8A
100
AcDbEntity
  8
0
100
AcDbBlockBegin
  2
*D14
 70
    1
 10
0
 20
0
  3
*D14
  1

  0
LINE
  5
106
100
AcDbEntity
  8
rozmir
  6
ByBlock
 62
    0
370
   -2
100
AcDbLine
 10
123
 20
60
 11
139
 21
60
  0
SOLID
  5
107
100
AcDbEntity
  8
rozmir
  6
ByBlock
 62
    0
370
   -2
100
AcDbTrace
 10
123
 20
60
 30
0
 11
125.5
 21
60.41628465777284
 31
0
 12
125.5
 22
59.58371534222716
 32
0
 13
125.5
 23
59.58371534222716
 33
0
  0
SOLID
  5
108
100
AcDbEntity
  8
rozmir
  6
ByBlock
 62
    0
370
   -2
100
AcDbTrace
 10
139
 20
60
 30
0
 11
136.5
 21
59.58371534222716
 31
0
 12
136.5
 22
60.41628465777284
 32
0
 13
136.5
 23
60.41628465777284
 33
0
  0
MTEXT
  5
109
100
AcDbEntity
  8
rozmir
  6
CONTINUOUS
 62
    0
370
   -2
100
AcDbMText
 10
131
 20
62.25
 30
0
 40
2.5
 41
2.500000000000155
 71
    5
 72
    1
  1
16
  7
standard
210
0
220
0
230
1
 50
0
 73
    2
 44
1
  0
LINE
  5
10A
100
AcDbEntity
  8
rozmir
  6
ByBlock
 62
    0
370
   -2
100
AcDbLine
 10
123
 20
59
 11
123
 21
62
  0
LINE
  5
10B
100
AcDbEntity
  8
rozmir
  6
ByBlock
 62
    0
370
   -2
100
AcDbLine
 10
139
 20
59
 11
139
 21
62
  0
ENDBLK
  5
8C
330
8A
100
AcDbEntity
  8
0
100
AcDbBlockEnd
  0
BLOCK
  5
8E
330
8D
100
AcDbEntity
  8
0
100
AcDbBlockBegin
  2
*D3
 70
    1
 10
0
 20
0
  3
*D3
  1

  0
LINE
  5
10C
100
AcDbEntity
  8
rozmir
  6
ByBlock
 62
    0
370
   -2
100
AcDbLine
 10
96
 20
95
 11
96
 21
111
  0
SOLID
  5
10D
100
AcDbEntity
  8
rozmir
  6
ByBlock
 62
    0
370
   -2
100
AcDbTrace
 10
96
 20
100
 30
0
 11
96.41628465777283
 21
97.5
 31
0
 12
95.58371534222717
 22
97.5
 32
0
 13
95.58371534222717
 23
97.5
 33
0
  0
SOLID
  5
10E
100
AcDbEntity
  8
rozmir
  6
ByBlock
 62
    0
370
   -2
100
AcDbTrace
 10
96
 20
106
 30
0
 11
95.58371534222717
 21
108.5
 31
0
 12
96.41628465777283
 22
108.5
 32
0
 13
96.41628465777283
 23
108.5
 33
0
  0
MTEXT
  5
10F
100
AcDbEntity
  8
rozmir
  6
CONTINUOUS
 62
    0
370
   -2
100
AcDbMText
 10
93.75
 20
103
 30
0
 40
2.5
 41
1.111111111111266
 71
    5
 72
    1
  1
6
  7
standard
210
0
220
0
230
1
 50
90
 73
    2
 44
1
  0
LINE
  5
110
100
AcDbEntity
  8
rozmir
  6
ByBlock
 62
    0
370
   -2
100
AcDbLine
 10
99
 20
100
 11
94
 21
100
  0
LINE
  5
111
100
AcDbEntity
  8
rozmir
  6
ByBlock
 62
    0
370
   -2
100
AcDbLine
 10
101
 20
106
 11
94
 21
106
  0
ENDBLK
  5
8F
330
8D
100
AcDbEntity
  8
0
100
AcDbBlockEnd
  0
BLOCK
  5
91
330
90
100
AcDbEntity
  8
0
100
AcDbBlockBegin
  2
*D24
 70
    1
 10
0
 20
0
  3
*D24
  1

  0
LINE
  5
112
100
AcDbEntity
  8
rozmir
  6
ByBlock
 62
    0
370
   -2
100
AcDbLine
 10
96
 20
182
 11
96
 21
195
  0
SOLID
  5
113
100
AcDbEntity
  8
rozmir
  6
ByBlock
 62
    0
370
   -2
100
AcDbTrace
 10
96
 20
187
 30
0
 11
96.41628465777283
 21
184.5
 31
0
 12
95.58371534222717
 22
184.5
 32
0
 13
95.58371534222717
 23
184.5
 33
0
  0
SOLID
  5
114
100
AcDbEntity
  8
rozmir
  6
ByBlock
 62
    0
370
   -2
100
AcDbTrace
 10
96
 20
190
 30
0
 11
95.58371534222717
 21
192.5
 31
0
 12
96.41628465777283
 22
192.5
 32
0
 13
96.41628465777283
 23
192.5
 33
0
  0
MTEXT
  5
115
100
AcDbEntity
  8
rozmir
  6
CONTINUOUS
 62
    0
370
   -2
100
AcDbMText
 10
93.75
 20
188.5
 30
0
 40
2.5
 41
1.111111111111266
 71
    5
 72
    1
  1
3
  7
standard
210
0
220
0
230
1
 50
90
 73
    2
 44
1
  0
LINE
  5
116
100
AcDbEntity
  8
rozmir
  6
ByBlock
 62
    0
370
   -2
100
AcDbLine
 10
101
 20
187
 11
94
 21
187
  0
LINE
  5
117
100
AcDbEntity
  8
rozmir
  6
ByBlock
 62
    0
370
   -2
100
AcDbLine
 10
99
 20
190
 11
94
 21
190
  0
ENDBLK
  5
92
330
90
100
AcDbEntity
  8
0
100
AcDbBlockEnd
  0
BLOCK
  5
94
330
93
100
AcDbEntity
  8
0
100
AcDbBlockBegin
  2
*D6
 70
    1
 10
0
 20
0
  3
*D6
  1

  0
LINE
  5
118
100
AcDbEntity
  8
rozmir
  6
ByBlock
 62
    0
370
   -2
100
AcDbLine
 10
96
 20
160
 11
96
 21
187
  0
SOLID
  5
119
100
AcDbEntity
  8
rozmir
  6
ByBlock
 62
    0
370
   -2
100
AcDbTrace
 10
96
 20
160
 30
0
 11
95.58371534222717
 21
162.5
 31
0
 12
96.41628465777283
 22
162.5
 32
0
 13
96.41628465777283
 23
162.5
 33
0
  0
SOLID
  5
11A
100
AcDbEntity
  8
rozmir
  6
ByBlock
 62
    0
370
   -2
100
AcDbTrace
 10
96
 20
187
 30
0
 11
96.41628465777283
 21
184.5
 31
0
 12
95.58371534222717
 22
184.5
 32
0
 13
95.58371534222717
 23
184.5
 33
0
  0
MTEXT
  5
11B
100
AcDbEntity
  8
rozmir
  6
CONTINUOUS
 62
    0
370
   -2
100
AcDbMText
 10
93.75
 20
173.5
 30
0
 40
2.5
 41
3.055555555555556
 71
    5
 72
    1
  1
27
  7
standard
210
0
220
0
230
1
 50
90
 73
    2
 44
1
  0
LINE
  5
11C
100
AcDbEntity
  8
rozmir
  6
ByBlock
 62
    0
370
   -2
100
AcDbLine
 10
101
 20
160
 11
94
 21
160
  0
LINE
  5
11D
100
AcDbEntity
  8
rozmir
  6
ByBlock
 62
    0
370
   -2
100
AcDbLine
 10
101
 20
187
 11
94
 21
187
  0
ENDBLK
  5
95
330
93
100
AcDbEntity
  8
0
100
AcDbBlockEnd
  0
BLOCK
  5
97
330
96
100
AcDbEntity
  8
0
100
AcDbBlockBegin
  2
*D2
 70
    1
 10
0
 20
0
  3
*D2
  1

  0
LINE
  5
11E
100
AcDbEntity
  8
rozmir
  6
ByBlock
 62
    0
370
   -2
100
AcDbLine
 10
100
 20
195
 11
146
 21
195
  0
SOLID
  5
11F
100
AcDbEntity
  8
rozmir
  6
ByBlock
 62
    0
370
   -2
100
AcDbTrace
 10
100
 20
195
 30
0
 11
102.5
 21
195.4162846577728
 31
0
 12
102.5
 22
194.5837153422272
 32
0
 13
102.5
 23
194.5837153422272
 33
0
  0
SOLID
  5
120
100
AcDbEntity
  8
rozmir
  6
ByBlock
 62
    0
370
   -2
100
AcDbTrace
 10
146
 20
195
 30
0
 11
143.5
 21
194.5837153422272
 31
0
 12
143.5
 22
195.4162846577728
 32
0
 13
143.5
 23
195.4162846577728
 33
0
  0
MTEXT
  5
121
100
AcDbEntity
  8
rozmir
  6
CONTINUOUS
 62
    0
370
   -2
100
AcDbMText
 10
123
 20
197.25
 30
0
 40
2.5
 41
3.333333333333488
 71
    5
 72
    1
  1
46
  7
standard
210
0
220
0
230
1
 50
0
 73
    2
 44
1
  0
LINE
  5
122
100
AcDbEntity
  8
rozmir
  6
ByBlock
 62
    0
370
   -2
100
AcDbLine
 10
100
 20
191
 11
100
 21
197
  0
LINE
  5
123
100
AcDbEntity
  8
rozmir
  6
ByBlock
 62
    0
370
   -2
100
AcDbLine
 10
146
 20
191
 11
146
 21
197
  0
ENDBLK
  5
98
330
96
100
AcDbEntity
  8
0
100
AcDbBlockEnd
  0
BLOCK
  5
9A
330
99
100
AcDbEntity
  8
0
100
AcDbBlockBegin
  2
*D11
 70
    1
 10
0
 20
0
  3
*D11
  1

  0
LINE
  5
124
100
AcDbEntity
  8
rozmir
  6
ByBlock
 62
    0
370
   -2
100
AcDbLine
 10
102.1
 20
79
 11
159.9
 21
79
  0
SOLID
  5
125
100
AcDbEntity
  8
rozmir
  6
ByBlock
 62
    0
370
   -2
100
AcDbTrace
 10
102.1
 20
79
 30
0
 11
104.6
 21
79.41628465777283
 31
0
 12
104.6
 22
78.58371534222717
 32
0
 13
104.6
 23
78.58371534222717
 33
0
  0
SOLID
  5
126
100
AcDbEntity
  8
rozmir
  6
ByBlock
 62
    0
370
   -2
100
AcDbTrace
 10
159.9
 20
79
 30
0
 11
157.4
 21
78.58371534222717
 31
0
 12
157.4
 22
79.41628465777283
 32
0
 13
157.4
 23
79.41628465777283
 33
0
  0
MTEXT
  5
127
100
AcDbEntity
  8
rozmir
  6
CONTINUOUS
 62
    0
370
   -2
100
AcDbMText
 10
131
 20
81.25
 30
0
 40
2.5
 41
5.972222222222378
 71
    5
 72
    1
  1
57,8
  7
standard
210
0
220
0
230
1
 50
0
 73
    2
 44
1
  0
LINE
  5
128
100
AcDbEntity
  8
rozmir
  6
ByBlock
 62
    0
370
   -2
100
AcDbLine
 10
102.1
 20
77.00000000000001
 11
102.1
 21
81
  0
LINE
  5
129
100
AcDbEntity
  8
rozmir
  6
ByBlock
 62
    0
370
   -2
100
AcDbLine
 10
159.9
 20
77.00000000000001
 11
159.9
 21
81
  0
ENDBLK
  5
9B
330
99
100
AcDbEntity
  8
0
100
AcDbBlockEnd
  0
BLOCK
  5
9D
330
9C
100
AcDbEntity
  8
0
100
AcDbBlockBegin
  2
*D19
 70
    1
 10
0
 20
0
  3
*D19
  1

  0
LINE
  5
12A
100
AcDbEntity
  8
rozmir
  6
ByBlock
 62
    0
370
   -2
100
AcDbLine
 10
97
 20
68.90000000000001
 11
97
 21
81.00000000000001
  0
SOLID
  5
12B
100
AcDbEntity
  8
rozmir
  6
ByBlock
 62
    0
370
   -2
100
AcDbTrace
 10
97
 20
73.90000000000001
 30
0
 11
97.41628465777283
 21
71.40000000000001
 31
0
 12
96.58371534222717
 22
71.40000000000001
 32
0
 13
96.58371534222717
 23
71.40000000000001
 33
0
  0
SOLID
  5
12C
100
AcDbEntity
  8
rozmir
  6
ByBlock
 62
    0
370
   -2
100
AcDbTrace
 10
97
 20
76.00000000000001
 30
0
 11
96.58371534222717
 21
78.50000000000001
 31
0
 12
97.41628465777283
 22
78.50000000000001
 32
0
 13
97.41628465777283
 23
78.50000000000001
 33
0
  0
MTEXT
  5
12D
100
AcDbEntity
  8
rozmir
  6
CONTINUOUS
 62
    0
370
   -2
100
AcDbMText
 10
94.75
 20
78.73611111111113
 30
0
 40
2.5
 41
3.472222222222222
 71
    5
 72
    1
  1
2,1
  7
standard
210
0
220
0
230
1
 50
90
 73
    2
 44
1
  0
LINE
  5
12E
100
AcDbEntity
  8
rozmir
  6
ByBlock
 62
    0
370
   -2
100
AcDbLine
 10
99
 20
73.90000000000001
 11
95
 21
73.90000000000001
  0
LINE
  5
12F
100
AcDbEntity
  8
rozmir
  6
ByBlock
 62
    0
370
   -2
100
AcDbLine
 10
101.1
 20
76.00000000000001
 11
95
 21
76.00000000000001
  0
ENDBLK
  5
9E
330
9C
100
AcDbEntity
  8
0
100
AcDbBlockEnd
  0
BLOCK
  5
A0
330
9F
100
AcDbEntity
  8
0
100
AcDbBlockBegin
  2
*D20
 70
    1
 10
0
 20
0
  3
*D20
  1

  0
LINE
  5
130
100
AcDbEntity
  8
rozmir
  6
ByBlock
 62
    0
370
   -2
100
AcDbLine
 10
168
 20
29.99999999999999
 11
168
 21
76.00000000000001
  0
SOLID
  5
131
100
AcDbEntity
  8
rozmir
  6
ByBlock
 62
    0
370
   -2
100
AcDbTrace
 10
168
 20
29.99999999999999
 30
0
 11
167.5837153422272
 21
32.49999999999999
 31
0
 12
168.4162846577728
 22
32.49999999999999
 32
0
 13
168.4162846577728
 23
32.49999999999999
 33
0
  0
SOLID
  5
132
100
AcDbEntity
  8
rozmir
  6
ByBlock
 62
    0
370
   -2
100
AcDbTrace
 10
168
 20
76.00000000000001
 30
0
 11
168.4162846577728
 21
73.50000000000001
 31
0
 12
167.5837153422272
 22
73.50000000000001
 32
0
 13
167.5837153422272
 23
73.50000000000001
 33
0
  0
MTEXT
  5
133
100
AcDbEntity
  8
rozmir
  6
CONTINUOUS
 62
    0
370
   -2
100
AcDbMText
 10
165.75
 20
53
 30
0
 40
2.5
 41
3.333333333333488
 71
    5
 72
    1
  1
46
  7
standard
210
0
220
0
230
1
 50
90
 73
    2
 44
1
  0
LINE
  5
134
100
AcDbEntity
  8
rozmir
  6
ByBlock
 62
    0
370
   -2
100
AcDbLine
 10
160.9
 20
29.99999999999999
 11
170
 21
29.99999999999999
  0
LINE
  5
135
100
AcDbEntity
  8
rozmir
  6
ByBlock
 62
    0
370
   -2
100
AcDbLine
 10
160.9
 20
76.00000000000001
 11
170
 21
76.00000000000001
  0
ENDBLK
  5
A1
330
9F
100
AcDbEntity
  8
0
100
AcDbBlockEnd
  0
ENDSEC
  0
SECTION
  2
ENTITIES
  0
LWPOLYLINE
  5
136
100
AcDbEntity
  8
karkas
  6
ByLayer
 62
  256
370
   -1
100
AcDbPolyline
 90
    4
 70
    1
 43
0
 10
2
 20
106
 10
60
 20
106
 10
60
 20
108
 10
2
 20
108
  0
LWPOLYLINE
  5
137
100
AcDbEntity
  8
karkas
  6
ByLayer
 62
  256
370
   -1
100
AcDbPolyline
 90
    4
 70
    1
 43
0
 10
30
 20
100
 10
32
 20
100
 10
32
 20
106
 10
30
 20
106
  0
LWPOLYLINE
  5
138
100
AcDbEntity
  8
polka
  6
DASHED2
 62
  256
370
   -1
100
AcDbPolyline
 90
    4
 70
    0
 43
0
 10
2
 20
108
 10
0
 20
108
 10
0
 20
109
 10
2
 20
109
  0
LWPOLYLINE
  5
139
100
AcDbEntity
  8
polka
  6
DASHED2
 62
  256
370
   -1
100
AcDbPolyline
 90
    4
 70
    0
 43
0
 10
60
 20
108
 10
62
 20
108
 10
62
 20
109
 10
60
 20
109
  0
LWPOLYLINE
  5
13A
100
AcDbEntity
  8
polka
  6
ByLayer
 62
  256
370
   -1
100
AcDbPolyline
 90
    2
 70
    0
 43
0
 10
2
 20
109
 10
30
 20
109
  0
LWPOLYLINE
  5
13B
100
AcDbEntity
  8
polka
  6
ByLayer
 62
  256
370
   -1
100
AcDbPolyline
 90
    2
 70
    0
 43
0
 10
2
 20
108
 10
30
 20
108
  0
LWPOLYLINE
  5
13C
100
AcDbEntity
  8
polka
  6
ByLayer
 62
  256
370
   -1
100
AcDbPolyline
 90
    2
 70
    0
 43
0
 10
32
 20
109
 10
60
 20
109
  0
LWPOLYLINE
  5
13D
100
AcDbEntity
  8
polka
  6
ByLayer
 62
  256
370
   -1
100
AcDbPolyline
 90
    2
 70
    0
 43
0
 10
32
 20
108
 10
60
 20
108
  0
LINE
  5
13E
100
AcDbEntity
  8
polka
  6
DASHED2
 62
  256
370
   -1
100
AcDbLine
 10
30
 20
108
 11
32
 21
108
  0
LWPOLYLINE
  5
13F
100
AcDbEntity
  8
karkas
  6
ByLayer
 62
  256
370
   -1
100
AcDbPolyline
 90
    4
 70
    1
 43
0
 10
2
 20
133
 10
60
 20
133
 10
60
 20
135
 10
2
 20
135
  0
LWPOLYLINE
  5
140
100
AcDbEntity
  8
polka
  6
DASHED2
 62
  256
370
   -1
100
AcDbPolyline
 90
    4
 70
    0
 43
0
 10
2
 20
135
 10
0
 20
135
 10
0
 20
136
 10
2
 20
136
  0
LWPOLYLINE
  5
141
100
AcDbEntity
  8
polka
  6
DASHED2
 62
  256
370
   -1
100
AcDbPolyline
 90
    4
 70
    0
 43
0
 10
60
 20
135
 10
62
 20
135
 10
62
 20
136
 10
60
 20
136
  0
LWPOLYLINE
  5
142
100
AcDbEntity
  8
polka
  6
ByLayer
 62
  256
370
   -1
100
AcDbPolyline
 90
    2
 70
    0
 43
0
 10
2
 20
136
 10
30
 20
136
  0
LWPOLYLINE
  5
143
100
AcDbEntity
  8
polka
  6
ByLayer
 62
  256
370
   -1
100
AcDbPolyline
 90
    2
 70
    0
 43
0
 10
2
 20
135
 10
30
 20
135
  0
LWPOLYLINE
  5
144
100
AcDbEntity
  8
polka
  6
ByLayer
 62
  256
370
   -1
100
AcDbPolyline
 90
    2
 70
    0
 43
0
 10
32
 20
136
 10
60
 20
136
  0
LWPOLYLINE
  5
145
100
AcDbEntity
  8
polka
  6
ByLayer
 62
  256
370
   -1
100
AcDbPolyline
 90
    2
 70
    0
 43
0
 10
32
 20
135
 10
60
 20
135
  0
LINE
  5
146
100
AcDbEntity
  8
polka
  6
DASHED2
 62
  256
370
   -1
100
AcDbLine
 10
30
 20
136
 11
32
 21
136
  0
LINE
  5
147
100
AcDbEntity
  8
polka
  6
DASHED2
 62
  256
370
   -1
100
AcDbLine
 10
30
 20
135
 11
32
 21
135
  0
LWPOLYLINE
  5
148
100
AcDbEntity
  8
karkas
  6
ByLayer
 62
  256
370
   -1
100
AcDbPolyline
 90
    4
 70
    1
 43
0
 10
30
 20
108
 10
32
 20
108
 10
32
 20
133
 10
30
 20
133
  0
LWPOLYLINE
  5
149
100
AcDbEntity
  8
karkas
  6
ByLayer
 62
  256
370
   -1
100
AcDbPolyline
 90
    4
 70
    1
 43
0
 10
30
 20
135
 10
32
 20
135
 10
32
 20
160
 10
30
 20
160
  0
LWPOLYLINE
  5
14A
100
AcDbEntity
  8
karkas
  6
ByLayer
 62
  256
370
   -1
100
AcDbPolyline
 90
    4
 70
    1
 43
0
 10
2
 20
160
 10
60
 20
160
 10
60
 20
162
 10
2
 20
162
  0
LWPOLYLINE
  5
14B
100
AcDbEntity
  8
polka
  6
DASHED2
 62
  256
370
   -1
100
AcDbPolyline
 90
    4
 70
    0
 43
0
 10
2
 20
162
 10
0
 20
162
 10
0
 20
163
 10
2
 20
163
  0
LWPOLYLINE
  5
14C
100
AcDbEntity
  8
polka
  6
DASHED2
 62
  256
370
   -1
100
AcDbPolyline
 90
    4
 70
    0
 43
0
 10
60
 20
162
 10
62
 20
162
 10
62
 20
163
 10
60
 20
163
  0
LWPOLYLINE
  5
14D
100
AcDbEntity
  8
polka
  6
ByLayer
 62
  256
370
   -1
100
AcDbPolyline
 90
    2
 70
    0
 43
0
 10
2
 20
163
 10
30
 20
163
  0
LWPOLYLINE
  5
14E
100
AcDbEntity
  8
polka
  6
ByLayer
 62
  256
370
   -1
100
AcDbPolyline
 90
    2
 70
    0
 43
0
 10
2
 20
162
 10
30
 20
162
  0
LWPOLYLINE
  5
14F
100
AcDbEntity
  8
polka
  6
ByLayer
 62
  256
370
   -1
100
AcDbPolyline
 90
    2
 70
    0
 43
0
 10
32
 20
163
 10
60
 20
163
  0
LWPOLYLINE
  5
150
100
AcDbEntity
  8
polka
  6
ByLayer
 62
  256
370
   -1
100
AcDbPolyline
 90
    2
 70
    0
 43
0
 10
32
 20
162
 10
60
 20
162
  0
LINE
  5
151
100
AcDbEntity
  8
polka
  6
DASHED2
 62
  256
370
   -1
100
AcDbLine
 10
30
 20
163
 11
32
 21
163
  0
LINE
  5
152
100
AcDbEntity
  8
polka
  6
DASHED2
 62
  256
370
   -1
100
AcDbLine
 10
30
 20
162
 11
32
 21
162
  0
LWPOLYLINE
  5
153
100
AcDbEntity
  8
karkas
  6
ByLayer
 62
  256
370
   -1
100
AcDbPolyline
 90
    4
 70
    1
 43
0
 10
30
 20
162
 10
32
 20
162
 10
32
 20
187
 10
30
 20
187
  0
LWPOLYLINE
  5
154
100
AcDbEntity
  8
karkas
  6
ByLayer
 62
  256
370
   -1
100
AcDbPolyline
 90
    4
 70
    1
 43
0
 10
2
 20
187
 10
60
 20
187
 10
60
 20
189
 10
2
 20
189
  0
LWPOLYLINE
  5
155
100
AcDbEntity
  8
polka
  6
DASHED2
 62
  256
370
   -1
100
AcDbPolyline
 90
    4
 70
    0
 43
0
 10
2
 20
189
 10
0
 20
189
 10
0
 20
190
 10
2
 20
190
  0
LWPOLYLINE
  5
156
100
AcDbEntity
  8
polka
  6
DASHED2
 62
  256
370
   -1
100
AcDbPolyline
 90
    4
 70
    0
 43
0
 10
60
 20
189
 10
62
 20
189
 10
62
 20
190
 10
60
 20
190
  0
LWPOLYLINE
  5
157
100
AcDbEntity
  8
polka
  6
ByLayer
 62
  256
370
   -1
100
AcDbPolyline
 90
    2
 70
    0
 43
0
 10
2
 20
190
 10
60
 20
190
  0
LWPOLYLINE
  5
158
100
AcDbEntity
  8
polka
  6
ByLayer
 62
  256
370
   -1
100
AcDbPolyline
 90
    2
 70
    0
 43
0
 10
2
 20
189
 10
60
 20
189
  0
LWPOLYLINE
  5
159
100
AcDbEntity
  8
karkas
  6
ByLayer
 62
  256
370
   -1
100
AcDbPolyline
 90
    4
 70
    1
 43
0
 10
0
 20
100
 10
2
 20
100
 10
2
 20
190
 10
0
 20
190
  0
LWPOLYLINE
  5
15A
100
AcDbEntity
  8
karkas
  6
ByLayer
 62
  256
370
   -1
100
AcDbPolyline
 90
    4
 70
    1
 43
0
 10
60
 20
100
 10
62
 20
100
 10
62
 20
190
 10
60
 20
190
  0
LWPOLYLINE
  5
15B
100
AcDbEntity
  8
polka
  6
DASHED2
 62
  256
370
   -1
100
AcDbPolyline
 90
    4
 70
    0
 43
0
 10
102
 20
189
 10
100
 20
189
 10
100
 20
190
 10
102
 20
190
  0
LWPOLYLINE
  5
15C
100
AcDbEntity
  8
karkas
  6
ByLayer
 62
  256
370
   -1
100
AcDbPolyline
 90
    4
 70
    1
 43
0
 10
100
 20
100
 10
102
 20
100
 10
102
 20
190
 10
100
 20
190
  0
LWPOLYLINE
  5
15D
100
AcDbEntity
  8
karkas
  6
ByLayer
 62
  256
370
   -1
100
AcDbPolyline
 90
    4
 70
    1
 43
0
 10
102
 20
106
 10
144
 20
106
 10
144
 20
108
 10
102
 20
108
  0
LWPOLYLINE
  5
15E
100
AcDbEntity
  8
karkas
  6
ByLayer
 62
  256
370
   -1
100
AcDbPolyline
 90
    4
 70
    1
 43
0
 10
102
 20
133
 10
144
 20
133
 10
144
 20
135
 10
102
 20
135
  0
LWPOLYLINE
  5
15F
100
AcDbEntity
  8
karkas
  6
ByLayer
 62
  256
370
   -1
100
AcDbPolyline
 90
    4
 70
    1
 43
0
 10
102
 20
160
 10
144
 20
160
 10
144
 20
162
 10
102
 20
162
  0
LWPOLYLINE
  5
160
100
AcDbEntity
  8
karkas
  6
ByLayer
 62
  256
370
   -1
100
AcDbPolyline
 90
    4
 70
    1
 43
0
 10
102
 20
187
 10
144
 20
187
 10
144
 20
189
 10
102
 20
189
  0
LWPOLYLINE
  5
161
100
AcDbEntity
  8
polka
  6
DASHED2
 62
  256
370
   -1
100
AcDbPolyline
 90
    4
 70
    0
 43
0
 10
144
 20
189
 10
146
 20
189
 10
146
 20
190
 10
144
 20
190
  0
LWPOLYLINE
  5
162
100
AcDbEntity
  8
polka
  6
ByLayer
 62
  256
370
   -1
100
AcDbPolyline
 90
    2
 70
    0
 43
0
 10
102
 20
190
 10
144
 20
190
  0
LWPOLYLINE
  5
163
100
AcDbEntity
  8
polka
  6
ByLayer
 62
  256
370
   -1
100
AcDbPolyline
 90
    2
 70
    0
 43
0
 10
102
 20
189
 10
144
 20
189
  0
LWPOLYLINE
  5
164
100
AcDbEntity
  8
karkas
  6
ByLayer
 62
  256
370
   -1
100
AcDbPolyline
 90
    4
 70
    1
 43
0
 10
144
 20
100
 10
146
 20
100
 10
146
 20
190
 10
144
 20
190
  0
LWPOLYLINE
  5
165
100
AcDbEntity
  8
polka
  6
DASHED2
 62
  256
370
   -1
100
AcDbPolyline
 90
    4
 70
    0
 43
0
 10
102
 20
162
 10
100
 20
162
 10
100
 20
163
 10
102
 20
163
  0
LWPOLYLINE
  5
166
100
AcDbEntity
  8
polka
  6
DASHED2
 62
  256
370
   -1
100
AcDbPolyline
 90
    4
 70
    0
 43
0
 10
144
 20
162
 10
146
 20
162
 10
146
 20
163
 10
144
 20
163
  0
LWPOLYLINE
  5
167
100
AcDbEntity
  8
polka
  6
ByLayer
 62
  256
370
   -1
100
AcDbPolyline
 90
    2
 70
    0
 43
0
 10
102
 20
163
 10
144
 20
163
  0
LWPOLYLINE
  5
168
100
AcDbEntity
  8
polka
  6
ByLayer
 62
  256
370
   -1
100
AcDbPolyline
 90
    2
 70
    0
 43
0
 10
102
 20
162
 10
144
 20
162
  0
LWPOLYLINE
  5
169
100
AcDbEntity
  8
polka
  6
DASHED2
 62
  256
370
   -1
100
AcDbPolyline
 90
    4
 70
    0
 43
0
 10
102
 20
135
 10
100
 20
135
 10
100
 20
136
 10
102
 20
136
  0
LWPOLYLINE
  5
16A
100
AcDbEntity
  8
polka
  6
DASHED2
 62
  256
370
   -1
100
AcDbPolyline
 90
    4
 70
    0
 43
0
 10
144
 20
135
 10
146
 20
135
 10
146
 20
136
 10
144
 20
136
  0
LWPOLYLINE
  5
16B
100
AcDbEntity
  8
polka
  6
ByLayer
 62
  256
370
   -1
100
AcDbPolyline
 90
    2
 70
    0
 43
0
 10
102
 20
136
 10
144
 20
136
  0
LWPOLYLINE
  5
16C
100
AcDbEntity
  8
polka
  6
ByLayer
 62
  256
370
   -1
100
AcDbPolyline
 90
    2
 70
    0
 43
0
 10
102
 20
135
 10
144
 20
135
  0
LWPOLYLINE
  5
16D
100
AcDbEntity
  8
polka
  6
DASHED2
 62
  256
370
   -1
100
AcDbPolyline
 90
    7
 70
    1
 43
0
 10
102.6
 20
108
 10
142.4643172802155
 20
130.9529128387294
 10
141.8655456409443
 20
131.9928515503872
 10
102.0012283607288
 20
109.0399387116578
 10
102.0012283607288
 20
109.0399387116578
 10
102.0012283607288
 20
109.0399387116578
 10
102.0012283607288
 20
109.0399387116578
  0
LWPOLYLINE
  5
16E
100
AcDbEntity
  8
polka
  6
DASHED2
 62
  256
370
   -1
100
AcDbPolyline
 90
    4
 70
    0
 43
0
 10
102
 20
108
 10
100
 20
108
 10
100
 20
109
 10
102
 20
109
  0
LWPOLYLINE
  5
16F
100
AcDbEntity
  8
polka
  6
DASHED2
 62
  256
370
   -1
100
AcDbPolyline
 90
    4
 70
    0
 43
0
 10
144
 20
108
 10
146
 20
108
 10
146
 20
109
 10
144
 20
109
  0
LWPOLYLINE
  5
170
100
AcDbEntity
  8
polka
  6
ByLayer
 62
  256
370
   -1
100
AcDbPolyline
 90
    2
 70
    0
 43
0
 10
102
 20
109
 10
144
 20
109
  0
LWPOLYLINE
  5
171
100
AcDbEntity
  8
polka
  6
ByLayer
 62
  256
370
   -1
100
AcDbPolyline
 90
    2
 70
    0
 43
0
 10
102
 20
108
 10
144
 20
108
  0
DIMENSION
  5
172
100
AcDbEntity
  8
rozmir
  6
ByLayer
 62
  256
370
   -1
100
AcDbDimension
  2
*D1
 10
-4
 20
190
 30
0
 11
-6.250000000000003
 21
145
 31
0
 70
   32
 71
    5
 72
    0
  3
Standard
 53
0
210
0
220
0
230
1
100
AcDbAlignedDimension
 13
0
 23
100
 33
0
 14
0
 24
190
 34
0
 50
90
100
AcDbRotatedDimension
  0
DIMENSION
  5
173
100
AcDbEntity
  8
rozmir
  6
ByLayer
 62
  256
370
   -1
100
AcDbDimension
  2
*D2
 10
146
 20
195
 30
0
 11
123
 21
197.25
 31
0
 70
   32
 71
    5
 72
    0
  3
Standard
 53
0
210
0
220
0
230
1
100
AcDbAlignedDimension
 13
100
 23
190
 33
0
 14
146
 24
190
 34
0
100
AcDbRotatedDimension
  0
DIMENSION
  5
174
100
AcDbEntity
  8
rozmir
  6
ByLayer
 62
  256
370
   -1
100
AcDbDimension
  2
*D3
 10
96
 20
106
 30
0
 11
93.75
 21
103
 31
0
 70
   32
 71
    5
 72
    0
  3
Standard
 53
0
210
0
220
0
230
1
100
AcDbAlignedDimension
 13
100
 23
100
 33
0
 14
102
 24
106
 34
0
 50
90
100
AcDbRotatedDimension
  0
DIMENSION
  5
175
100
AcDbEntity
  8
rozmir
  6
ByLayer
 62
  256
370
   -1
100
AcDbDimension
  2
*D4
 10
96
 20
133
 30
0
 11
93.75
 21
119.5
 31
0
 70
   32
 71
    5
 72
    0
  3
Standard
 53
0
210
0
220
0
230
1
100
AcDbAlignedDimension
 13
102
 23
106
 33
0
 14
102
 24
133
 34
0
 50
90
100
AcDbRotatedDimension
  0
DIMENSION
  5
176
100
AcDbEntity
  8
rozmir
  6
ByLayer
 62
  256
370
   -1
100
AcDbDimension
  2
*D5
 10
96
 20
160
 30
0
 11
93.75
 21
146.5
 31
0
 70
   32
 71
    5
 72
    0
  3
Standard
 53
0
210
0
220
0
230
1
100
AcDbAlignedDimension
 13
102
 23
133
 33
0
 14
102
 24
160
 34
0
 50
90
100
AcDbRotatedDimension
  0
DIMENSION
  5
177
100
AcDbEntity
  8
rozmir
  6
ByLayer
 62
  256
370
   -1
100
AcDbDimension
  2
*D6
 10
96
 20
187
 30
0
 11
93.75
 21
173.5
 31
0
 70
   32
 71
    5
 72
    0
  3
Standard
 53
0
210
0
220
0
230
1
100
AcDbAlignedDimension
 13
102
 23
160
 33
0
 14
102
 24
187
 34
0
 50
90
100
AcDbRotatedDimension
  0
LWPOLYLINE
  5
178
100
AcDbEntity
  8
akum
  6
ByLayer
 62
  256
370
   -1
100
AcDbPolyline
 90
    4
 70
    1
 43
0
 10
4
 20
136
 10
21.6
 20
136
 10
21.6
 20
157.6
 10
4
 20
157.6
  0
LINE
  5
179
100
AcDbEntity
  8
polka
  6
DASHED2
 62
  256
370
   -1
100
AcDbLine
 10
31
 20
109
 11
33
 21
109
  0
LWPOLYLINE
  5
17A
100
AcDbEntity
  8
akum
  6
ByLayer
 62
  256
370
   -1
100
AcDbPolyline
 90
    4
 70
    1
 43
0
 10
4
 20
109
 10
37.3
 20
109
 10
37.3
 20
130.6
 10
4
 20
130.6
  0
LWPOLYLINE
  5
17B
100
AcDbEntity
  8
akum
  6
ByLayer
 62
  256
370
   -1
100
AcDbPolyline
 90
    4
 70
    1
 43
0
 10
6.6
 20
130.6
 10
8.4
 20
130.6
 10
8.4
 20
131.1
 10
6.6
 20
131.1
  0
LWPOLYLINE
  5
17C
100
AcDbEntity
  8
akum
  6
ByLayer
 62
  256
370
   -1
100
AcDbPolyline
 90
    4
 70
    1
 43
0
 10
32.9
 20
130.6
 10
34.7
 20
130.6
 10
34.7
 20
131.1
 10
32.9
 20
131.1
  0
LWPOLYLINE
  5
17D
100
AcDbEntity
  8
akum
  6
ByLayer
 62
  256
370
   -1
100
AcDbPolyline
 90
    4
 70
    1
 43
0
 10
40.3
 20
109
 10
57.90000000000001
 20
109
 10
57.90000000000001
 20
130.6
 10
40.3
 20
130.6
  0
LWPOLYLINE
  5
17E
100
AcDbEntity
  8
akum
  6
ByLayer
 62
  256
370
   -1
100
AcDbPolyline
 90
    4
 70
    1
 43
0
 10
43.2
 20
130.6
 10
45.00000000000001
 20
130.6
 10
45.00000000000001
 20
131.1
 10
43.2
 20
131.1
  0
LINE
  5
17F
100
AcDbEntity
  8
polka
  6
DASHED2
 62
  256
370
   -1
100
AcDbLine
 10
51.6
 20
136.0000000000001
 11
53.6
 21
136.0000000000001
  0
LWPOLYLINE
  5
180
100
AcDbEntity
  8
akum
  6
ByLayer
 62
  256
370
   -1
100
AcDbPolyline
 90
    4
 70
    1
 43
0
 10
24.6
 20
136.0000000000001
 10
57.90000000000001
 20
136.0000000000001
 10
57.90000000000001
 20
157.6000000000001
 10
24.6
 20
157.6000000000001
  0
LWPOLYLINE
  5
181
100
AcDbEntity
  8
akum
  6
ByLayer
 62
  256
370
   -1
100
AcDbPolyline
 90
    4
 70
    1
 43
0
 10
27.2
 20
157.6000000000001
 10
29
 20
157.6000000000001
 10
29
 20
158.1000000000001
 10
27.2
 20
158.1000000000001
  0
LWPOLYLINE
  5
182
100
AcDbEntity
  8
akum
  6
ByLayer
 62
  256
370
   -1
100
AcDbPolyline
 90
    4
 70
    1
 43
0
 10
53.5
 20
157.6000000000001
 10
55.3
 20
157.6000000000001
 10
55.3
 20
158.1000000000001
 10
53.5
 20
158.1000000000001
  0
DIMENSION
  5
183
100
AcDbEntity
  8
rozmir
  6
ByLayer
 62
  256
370
   -1
100
AcDbDimension
  2
*D7
 10
62
 20
200
 30
0
 11
31
 21
202.25
 31
0
 70
   32
 71
    5
 72
    0
  3
Standard
 53
0
210
0
220
0
230
1
100
AcDbAlignedDimension
 13
0
 23
190
 33
0
 14
62
 24
190
 34
0
100
AcDbRotatedDimension
  0
DIMENSION
  5
184
100
AcDbEntity
  8
rozmir
  6
ByLayer
 62
  256
370
   -1
100
AcDbDimension
  2
*D8
 10
30
 20
195
 30
0
 11
16
 21
197.25
 31
0
 70
   32
 71
    5
 72
    0
  3
Standard
 53
0
210
0
220
0
230
1
100
AcDbAlignedDimension
 13
2
 23
187
 33
0
 14
30
 24
187
 34
0
100
AcDbRotatedDimension
  0
DIMENSION
  5
185
100
AcDbEntity
  8
rozmir
  6
ByLayer
 62
  256
370
   -1
100
AcDbDimension
  2
*D9
 10
60
 20
195
 30
0
 11
46
 21
197.25
 31
0
 70
   32
 71
    5
 72
    0
  3
Standard
 53
0
210
0
220
0
230
1
100
AcDbAlignedDimension
 13
32
 23
187
 33
0
 14
60
 24
187
 34
0
100
AcDbRotatedDimension
  0
LWPOLYLINE
  5
186
100
AcDbEntity
  8
akum
  6
ByLayer
 62
  256
370
   -1
100
AcDbPolyline
 90
    4
 70
    1
 43
0
 10
4
 20
163
 10
21.6
 20
163
 10
21.6
 20
184.6
 10
4
 20
184.6
  0
LWPOLYLINE
  5
187
100
AcDbEntity
  8
akum
  6
ByLayer
 62
  256
370
   -1
100
AcDbPolyline
 90
    4
 70
    1
 43
0
 10
42.2
 20
163
 10
24.59999999999999
 20
163
 10
24.59999999999999
 20
184.6
 10
42.2
 20
184.6
  0
LWPOLYLINE
  5
188
100
AcDbEntity
  8
akum
  6
ByLayer
 62
  256
370
   -1
100
AcDbPolyline
 90
    4
 70
    1
 43
0
 10
18.70000000000001
 20
157.6
 10
16.9
 20
157.6
 10
16.9
 20
158.1
 10
18.70000000000001
 20
158.1
  0
LWPOLYLINE
  5
189
100
AcDbEntity
  8
akum
  6
ByLayer
 62
  256
370
   -1
100
AcDbPolyline
 90
    4
 70
    1
 43
0
 10
18.70000000000001
 20
184.6
 10
16.9
 20
184.6
 10
16.9
 20
185.1
 10
18.70000000000001
 20
185.1
  0
LWPOLYLINE
  5
18A
100
AcDbEntity
  8
akum
  6
ByLayer
 62
  256
370
   -1
100
AcDbPolyline
 90
    4
 70
    1
 43
0
 10
27.49999999999999
 20
184.6
 10
29.3
 20
184.6
 10
29.3
 20
185.1
 10
27.49999999999999
 20
185.1
  0
LWPOLYLINE
  5
18B
100
AcDbEntity
  8
akum
  6
ByLayer
 62
  256
370
   -1
100
AcDbPolyline
 90
    4
 70
    1
 43
0
 10
104
 20
109
 10
121.6
 20
109
 10
121.6
 20
130.6
 10
104
 20
130.6
  0
LWPOLYLINE
  5
18C
100
AcDbEntity
  8
akum
  6
ByLayer
 62
  256
370
   -1
100
AcDbPolyline
 90
    4
 70
    1
 43
0
 10
142.2
 20
109
 10
124.6
 20
109
 10
124.6
 20
130.6
 10
142.2
 20
130.6
  0
LWPOLYLINE
  5
18D
100
AcDbEntity
  8
akum
  6
ByLayer
 62
  256
370
   -1
100
AcDbPolyline
 90
    4
 70
    1
 43
0
 10
118.7
 20
130.6
 10
116.9
 20
130.6
 10
116.9
 20
131.1
 10
118.7
 20
131.1
  0
LWPOLYLINE
  5
18E
100
AcDbEntity
  8
akum
  6
ByLayer
 62
  256
370
   -1
100
AcDbPolyline
 90
    4
 70
    1
 43
0
 10
127.5
 20
130.6
 10
129.3
 20
130.6
 10
129.3
 20
131.1
 10
127.5
 20
131.1
  0
LWPOLYLINE
  5
18F
100
AcDbEntity
  8
akum
  6
ByLayer
 62
  256
370
   -1
100
AcDbPolyline
 90
    4
 70
    1
 43
0
 10
106.4
 20
136
 10
139.7
 20
136
 10
139.7
 20
157.6
 10
106.4
 20
157.6
  0
LWPOLYLINE
  5
190
100
AcDbEntity
  8
akum
  6
ByLayer
 62
  256
370
   -1
100
AcDbPolyline
 90
    4
 70
    1
 43
0
 10
109
 20
157.6
 10
110.8
 20
157.6
 10
110.8
 20
158.1
 10
109
 20
158.1
  0
LWPOLYLINE
  5
191
100
AcDbEntity
  8
akum
  6
ByLayer
 62
  256
370
   -1
100
AcDbPolyline
 90
    4
 70
    1
 43
0
 10
135.3
 20
157.6
 10
137.1
 20
157.6
 10
137.1
 20
158.1
 10
135.3
 20
158.1
  0
LWPOLYLINE
  5
192
100
AcDbEntity
  8
akum
  6
ByLayer
 62
  256
370
   -1
100
AcDbPolyline
 90
    4
 70
    1
 43
0
 10
106.4
 20
163
 10
139.7
 20
163
 10
139.7
 20
184.6
 10
106.4
 20
184.6
  0
LWPOLYLINE
  5
193
100
AcDbEntity
  8
akum
  6
ByLayer
 62
  256
370
   -1
100
AcDbPolyline
 90
    4
 70
    1
 43
0
 10
109
 20
184.6
 10
110.8
 20
184.6
 10
110.8
 20
185.1
 10
109
 20
185.1
  0
LWPOLYLINE
  5
194
100
AcDbEntity
  8
akum
  6
ByLayer
 62
  256
370
   -1
100
AcDbPolyline
 90
    4
 70
    1
 43
0
 10
135.3
 20
184.6
 10
137.1
 20
184.6
 10
137.1
 20
185.1
 10
135.3
 20
185.1
  0
LWPOLYLINE
  5
195
100
AcDbEntity
  8
akum
  6
ByLayer
 62
  256
370
   -1
100
AcDbPolyline
 90
    4
 70
    1
 43
0
 10
3.999999999999998
 20
-21.59999999999999
 10
37.30000000000001
 20
-21.60000000000001
 10
37.30000000000001
 20
-4
 10
4
 20
-4
  0
CIRCLE
  5
196
100
AcDbEntity
  8
akum
  6
ByLayer
 62
  256
370
   -1
100
AcDbCircle
 10
7.499999999999998
 20
-17.60000000000001
 40
0.8999999999999986
  0
LINE
  5
197
100
AcDbEntity
  8
akum
  6
ByLayer
 62
  256
370
   -1
100
AcDbLine
 10
6.700000000000015
 20
-17.60000000000002
 11
8.30000000000001
 21
-17.60000000000002
  0
CIRCLE
  5
198
100
AcDbEntity
  8
akum
  6
ByLayer
 62
  256
370
   -1
100
AcDbCircle
 10
33.8
 20
-17.60000000000001
 40
0.8999999999999986
  0
LINE
  5
199
100
AcDbEntity
  8
akum
  6
ByLayer
 62
  256
370
   -1
100
AcDbLine
 10
33
 20
-17.60000000000002
 11
34.60000000000001
 21
-17.60000000000002
  0
LINE
  5
19A
100
AcDbEntity
  8
akum
  6
ByLayer
 62
  256
370
   -1
100
AcDbLine
 10
33.8
 20
-16.80000000000001
 11
33.80000000000001
 21
-18.40000000000002
  0
LWPOLYLINE
  5
19B
100
AcDbEntity
  8
akum
  6
ByLayer
 62
  256
370
   -1
100
AcDbPolyline
 90
    4
 70
    1
 43
0
 10
37.30000000000001
 20
-24.59999999999999
 10
4
 20
-24.59999999999999
 10
4
 20
-42.19999999999999
 10
37.30000000000001
 20
-42.19999999999999
  0
CIRCLE
  5
19C
100
AcDbEntity
  8
akum
  6
ByLayer
 62
  256
370
   -1
100
AcDbCircle
 10
33.80000000000001
 20
-28.59999999999999
 40
0.8999999999999986
  0
LINE
  5
19D
100
AcDbEntity
  8
akum
  6
ByLayer
 62
  256
370
   -1
100
AcDbLine
 10
34.59999999999999
 20
-28.59999999999999
 11
33
 21
-28.59999999999999
  0
CIRCLE
  5
19E
100
AcDbEntity
  8
akum
  6
ByLayer
 62
  256
370
   -1
100
AcDbCircle
 10
7.500000000000014
 20
-28.59999999999999
 40
0.8999999999999986
  0
LINE
  5
19F
100
AcDbEntity
  8
akum
  6
ByLayer
 62
  256
370
   -1
100
AcDbLine
 10
8.300000000000011
 20
-28.59999999999999
 11
6.700000000000003
 21
-28.59999999999999
  0
LINE
  5
1A0
100
AcDbEntity
  8
akum
  6
ByLayer
 62
  256
370
   -1
100
AcDbLine
 10
7.500000000000014
 20
-29.39999999999998
 11
7.5
 21
-27.79999999999998
  0
LWPOLYLINE
  5
1A1
100
AcDbEntity
  8
akum
  6
ByLayer
 62
  256
370
   -1
100
AcDbPolyline
 90
    4
 70
    1
 43
0
 10
40.3
 20
-6.400000000000006
 10
40.3
 20
-39.70000000000002
 10
57.9
 20
-39.70000000000002
 10
57.90000000000003
 20
-6.400000000000006
  0
CIRCLE
  5
1A2
100
AcDbEntity
  8
akum
  6
ByLayer
 62
  256
370
   -1
100
AcDbCircle
 10
44.3
 20
-9.900000000000006
 40
0.8999999999999986
  0
LINE
  5
1A3
100
AcDbEntity
  8
akum
  6
ByLayer
 62
  256
370
   -1
100
AcDbLine
 10
44.3
 20
-9.100000000000009
 11
44.3
 21
-10.7
  0
CIRCLE
  5
1A4
100
AcDbEntity
  8
akum
  6
ByLayer
 62
  256
370
   -1
100
AcDbCircle
 10
44.3
 20
-36.19999999999999
 40
0.8999999999999986
  0
LINE
  5
1A5
100
AcDbEntity
  8
akum
  6
ByLayer
 62
  256
370
   -1
100
AcDbLine
 10
44.3
 20
-35.40000000000001
 11
44.3
 21
-37
  0
LINE
  5
1A6
100
AcDbEntity
  8
akum
  6
ByLayer
 62
  256
370
   -1
100
AcDbLine
 10
45.10000000000002
 20
-36.19999999999999
 11
43.49999999999999
 21
-36.19999999999999
  0
LWPOLYLINE
  5
1A7
100
AcDbEntity
  8
akum
  6
ByLayer
 62
  256
370
   -1
100
AcDbPolyline
 90
    4
 70
    1
 43
0
 10
94.59999999999999
 20
-21.59999999999999
 10
127.9
 20
-21.60000000000001
 10
127.9
 20
-4
 10
94.59999999999999
 20
-4
  0
CIRCLE
  5
1A8
100
AcDbEntity
  8
akum
  6
ByLayer
 62
  256
370
   -1
100
AcDbCircle
 10
98.09999999999999
 20
-17.60000000000001
 40
0.8999999999999986
  0
LINE
  5
1A9
100
AcDbEntity
  8
akum
  6
ByLayer
 62
  256
370
   -1
100
AcDbLine
 10
97.30000000000001
 20
-17.60000000000002
 11
98.90000000000001
 21
-17.60000000000002
  0
CIRCLE
  5
1AA
100
AcDbEntity
  8
akum
  6
ByLayer
 62
  256
370
   -1
100
AcDbCircle
 10
124.4
 20
-17.60000000000001
 40
0.8999999999999986
  0
LINE
  5
1AB
100
AcDbEntity
  8
akum
  6
ByLayer
 62
  256
370
   -1
100
AcDbLine
 10
123.6
 20
-17.60000000000002
 11
125.2
 21
-17.60000000000002
  0
LINE
  5
1AC
100
AcDbEntity
  8
akum
  6
ByLayer
 62
  256
370
   -1
100
AcDbLine
 10
124.4
 20
-16.80000000000001
 11
124.4
 21
-18.40000000000002
  0
LWPOLYLINE
  5
1AD
100
AcDbEntity
  8
akum
  6
ByLayer
 62
  256
370
   -1
100
AcDbPolyline
 90
    4
 70
    1
 43
0
 10
127.9
 20
-24.59999999999999
 10
94.59999999999999
 20
-24.59999999999999
 10
94.59999999999999
 20
-42.19999999999999
 10
127.9
 20
-42.19999999999999
  0
CIRCLE
  5
1AE
100
AcDbEntity
  8
akum
  6
ByLayer
 62
  256
370
   -1
100
AcDbCircle
 10
124.4
 20
-28.59999999999999
 40
0.8999999999999986
  0
LINE
  5
1AF
100
AcDbEntity
  8
akum
  6
ByLayer
 62
  256
370
   -1
100
AcDbLine
 10
125.2
 20
-28.59999999999999
 11
123.6
 21
-28.59999999999999
  0
CIRCLE
  5
1B0
100
AcDbEntity
  8
akum
  6
ByLayer
 62
  256
370
   -1
100
AcDbCircle
 10
98.10000000000001
 20
-28.59999999999999
 40
0.8999999999999986
  0
LINE
  5
1B1
100
AcDbEntity
  8
akum
  6
ByLayer
 62
  256
370
   -1
100
AcDbLine
 10
98.90000000000001
 20
-28.59999999999999
 11
97.3
 21
-28.59999999999999
  0
LINE
  5
1B2
100
AcDbEntity
  8
akum
  6
ByLayer
 62
  256
370
   -1
100
AcDbLine
 10
98.10000000000001
 20
-29.39999999999998
 11
98.09999999999999
 21
-27.79999999999998
  0
LWPOLYLINE
  5
1B3
100
AcDbEntity
  8
akum
  6
ByLayer
 62
  256
370
   -1
100
AcDbPolyline
 90
    4
 70
    1
 43
0
 10
91.59999999999999
 20
-39.70000000000002
 10
91.59999999999999
 20
-6.400000000000006
 10
74
 20
-6.399999999999991
 10
73.99999999999997
 20
-39.69999999999999
  0
CIRCLE
  5
1B4
100
AcDbEntity
  8
akum
  6
ByLayer
 62
  256
370
   -1
100
AcDbCircle
 10
87.59999999999999
 20
-36.19999999999999
 40
0.8999999999999986
  0
LINE
  5
1B5
100
AcDbEntity
  8
akum
  6
ByLayer
 62
  256
370
   -1
100
AcDbLine
 10
87.59999999999999
 20
-37
 11
87.59999999999999
 21
-35.40000000000001
  0
CIRCLE
  5
1B6
100
AcDbEntity
  8
akum
  6
ByLayer
 62
  256
370
   -1
100
AcDbCircle
 10
87.59999999999999
 20
-9.900000000000006
 40
0.8999999999999986
  0
LINE
  5
1B7
100
AcDbEntity
  8
akum
  6
ByLayer
 62
  256
370
   -1
100
AcDbLine
 10
87.59999999999999
 20
-10.7
 11
87.59999999999999
 21
-9.099999999999994
  0
LINE
  5
1B8
100
AcDbEntity
  8
akum
  6
ByLayer
 62
  256
370
   -1
100
AcDbLine
 10
86.79999999999998
 20
-9.900000000000006
 11
88.40000000000001
 21
-9.900000000000006
  0
LWPOLYLINE
  5
1B9
100
AcDbEntity
  8
akum
  6
ByLayer
 62
  256
370
   -1
100
AcDbPolyline
 90
    4
 70
    1
 43
0
 10
161.6
 20
-39.69999999999999
 10
161.6
 20
-6.400000000000006
 10
144
 20
-6.400000000000006
 10
144
 20
-39.69999999999999
  0
CIRCLE
  5
1BA
100
AcDbEntity
  8
akum
  6
ByLayer
 62
  256
370
   -1
100
AcDbCircle
 10
157.6
 20
-36.19999999999999
 40
0.8999999999999986
  0
LINE
  5
1BB
100
AcDbEntity
  8
akum
  6
ByLayer
 62
  256
370
   -1
100
AcDbLine
 10
157.6
 20
-37
 11
157.6
 21
-35.40000000000001
  0
CIRCLE
  5
1BC
100
AcDbEntity
  8
akum
  6
ByLayer
 62
  256
370
   -1
100
AcDbCircle
 10
157.6
 20
-9.900000000000006
 40
0.8999999999999986
  0
LINE
  5
1BD
100
AcDbEntity
  8
akum
  6
ByLayer
 62
  256
370
   -1
100
AcDbLine
 10
157.6
 20
-10.7
 11
157.6
 21
-9.100000000000009
  0
LINE
  5
1BE
100
AcDbEntity
  8
akum
  6
ByLayer
 62
  256
370
   -1
100
AcDbLine
 10
156.8
 20
-9.900000000000006
 11
158.4
 21
-9.900000000000006
  0
LINE
  5
1BF
100
AcDbEntity
  8
droty1
  6
ByLayer
 62
  256
370
   -1
100
AcDbLine
 10
7.499999999999998
 20
-18.5
 11
7.500000000000014
 21
-27.69999999999999
  0
LINE
  5
1C0
100
AcDbEntity
  8
droty1
  6
ByLayer
 62
  256
370
   -1
100
AcDbLine
 10
34.5
 20
-29.19999999999999
 11
43.6
 21
-35.59999999999999
  0
LINE
  5
1C1
100
AcDbEntity
  8
droty1
  6
ByLayer
 62
  256
370
   -1
100
AcDbLine
 10
43.9
 20
-10.7
 11
39
 21
-22
  0
LINE
  5
1C2
100
AcDbEntity
  8
droty1
  6
ByLayer
 62
  256
370
   -1
100
AcDbLine
 10
98.90000000000002
 20
-18
 11
109
 21
-22
  0
LINE
  5
1C3
100
AcDbEntity
  8
droty2
  6
ByLayer
 62
  256
370
   -1
100
AcDbLine
 10
98.09999999999999
 20
-16.70000000000002
 11
98.10000000000002
 21
2
  0
LINE
  5
1C4
100
AcDbEntity
  8
droty1
  6
ByLayer
 62
  256
370
   -1
100
AcDbLine
 10
33.2
 20
-18.30000000000001
 11
23
 21
-22
  0
LINE
  5
1C5
100
AcDbEntity
  8
droty1
  6
ByLayer
 62
  256
370
   -1
100
AcDbLine
 10
93
 20
-25
 11
88.10000000000001
 21
-35.5
  0
LINE
  5
1C6
100
AcDbEntity
  8
droty2
  6
ByLayer
 62
  256
370
   -1
100
AcDbLine
 10
87.59999999999999
 20
-9
 11
87.60000000000001
 21
2
  0
LINE
  5
1C7
100
AcDbEntity
  8
droty2
  6
ByLayer
 62
  256
370
   -1
100
AcDbLine
 10
124.4
 20
-18.5
 11
124.4
 21
-27.7
  0
LWPOLYLINE
  5
1C8
100
AcDbEntity
  8
akum
  6
ByLayer
 62
  256
370
   -1
100
AcDbPolyline
 90
    4
 70
    1
 43
0
 10
164.6000000000001
 20
-6.400000000000006
 10
164.6
 20
-39.70000000000002
 10
182.2
 20
-39.70000000000002
 10
182.2
 20
-6.400000000000006
  0
CIRCLE
  5
1C9
100
AcDbEntity
  8
akum
  6
ByLayer
 62
  256
370
   -1
100
AcDbCircle
 10
168.6
 20
-9.900000000000006
 40
0.8999999999999986
  0
LINE
  5
1CA
100
AcDbEntity
  8
akum
  6
ByLayer
 62
  256
370
   -1
100
AcDbLine
 10
168.6
 20
-9.100000000000009
 11
168.6
 21
-10.7
  0
CIRCLE
  5
1CB
100
AcDbEntity
  8
akum
  6
ByLayer
 62
  256
370
   -1
100
AcDbCircle
 10
168.6
 20
-36.19999999999999
 40
0.8999999999999986
  0
LINE
  5
1CC
100
AcDbEntity
  8
akum
  6
ByLayer
 62
  256
370
   -1
100
AcDbLine
 10
168.6
 20
-35.40000000000001
 11
168.6
 21
-37
  0
LINE
  5
1CD
100
AcDbEntity
  8
akum
  6
ByLayer
 62
  256
370
   -1
100
AcDbLine
 10
169.4
 20
-36.19999999999999
 11
167.8
 21
-36.19999999999999
  0
LINE
  5
1CE
100
AcDbEntity
  8
droty2
  6
ByLayer
 62
  256
370
   -1
100
AcDbLine
 10
109
 20
-24
 11
98.80000000000001
 21
-28
  0
LINE
  5
1CF
100
AcDbEntity
  8
droty2
  6
ByLayer
 62
  256
370
   -1
100
AcDbLine
 10
163
 20
-21
 11
168.2
 21
-10.7
  0
LINE
  5
1D0
100
AcDbEntity
  8
droty3
  6
ByLayer
 62
  256
370
   -1
100
AcDbLine
 10
167.7
 20
-36.19999999999999
 11
158.5
 21
-36.19999999999999
  0
LINE
  5
1D1
100
AcDbEntity
  8
droty3
  6
ByLayer
 62
  256
370
   -1
100
AcDbLine
 10
157.6
 20
-9
 11
157.6
 21
2
  0
MTEXT
  5
1D2
100
AcDbEntity
  8
tekst
  6
ByLayer
 62
  256
370
   -1
100
AcDbMText
 10
157.6
 20
3
 30
0
 40
3
 41
4
 71
    8
 72
    1
  1
P2
  7
cyrillic_ii
210
0
220
0
230
1
 50
0
 73
    2
 44
1
  0
MTEXT
  5
1D3
100
AcDbEntity
  8
tekst
  6
ByLayer
 62
  256
370
   -1
100
AcDbMText
 10
98
 20
3
 30
0
 40
3
 41
6.666666666666992
 71
    8
 72
    1
  1
Com
  7
cyrillic_ii
210
0
220
0
230
1
 50
0
 73
    2
 44
1
  0
MTEXT
  5
1D4
100
AcDbEntity
  8
tekst
  6
ByLayer
 62
  256
370
   -1
100
AcDbMText
 10
87.60000000000001
 20
3
 30
0
 40
3
 41
3.333333333333333
 71
    8
 72
    1
  1
P1
  7
cyrillic_ii
210
0
220
0
230
1
 50
0
 73
    2
 44
1
  0
CIRCLE
  5
1D5
100
AcDbEntity
  8
polka
  6
ByLayer
 62
  256
370
   -1
100
AcDbCircle
 10
39
 20
-23
 40
3
  0
CIRCLE
  5
1D6
100
AcDbEntity
  8
polka
  6
ByLayer
 62
  256
370
   -1
100
AcDbCircle
 10
23
 20
-23
 40
3
  0
LWPOLYLINE
  5
1D7
100
AcDbEntity
  8
polka
  6
CONTINUOUS
 62
    2
370
   50
100
AcDbPolyline
 90
   12
 70
    1
 43
0
 10
2.100000000000009
 20
-2.099999999999994
 10
2.100000000000009
 20
1.4210854715202e-14
 10
59.90000000000001
 20
0
 10
59.90000000000001
 20
-2.09999999999998
 10
62
 20
-2.09999999999998
 10
62
 20
-43.90000000000001
 10
59.90000000000001
 20
-43.90000000000001
 10
59.90000000000001
 20
-46.00000000000001
 10
2.100000000000009
 20
-45.99999999999999
 10
2.100000000000009
 20
-43.9
 10
0
 20
-43.90000000000001
 10
1.4210854715202e-14
 20
-2.099999999999994
  0
CIRCLE
  5
1D8
100
AcDbEntity
  8
polka
  6
ByLayer
 62
  256
370
   -1
100
AcDbCircle
 10
109
 20
-23
 40
3
  0
CIRCLE
  5
1D9
100
AcDbEntity
  8
polka
  6
ByLayer
 62
  256
370
   -1
100
AcDbCircle
 10
93
 20
-23
 40
3
  0
LWPOLYLINE
  5
1DA
100
AcDbEntity
  8
polka
  6
CONTINUOUS
 62
    2
370
   50
100
AcDbPolyline
 90
   12
 70
    1
 43
0
 10
72.10000000000001
 20
-2.099999999999994
 10
72.10000000000001
 20
1.4210854715202e-14
 10
129.9
 20
0
 10
129.9
 20
-2.09999999999998
 10
132
 20
-2.09999999999998
 10
132
 20
-43.90000000000001
 10
129.9
 20
-43.90000000000001
 10
129.9
 20
-46.00000000000001
 10
72.10000000000001
 20
-45.99999999999999
 10
72.10000000000001
 20
-43.9
 10
70
 20
-43.90000000000001
 10
70.00000000000001
 20
-2.099999999999994
  0
CIRCLE
  5
1DB
100
AcDbEntity
  8
polka
  6
ByLayer
 62
  256
370
   -1
100
AcDbCircle
 10
179
 20
-23
 40
3
  0
CIRCLE
  5
1DC
100
AcDbEntity
  8
polka
  6
ByLayer
 62
  256
370
   -1
100
AcDbCircle
 10
163
 20
-23
 40
3
  0
LWPOLYLINE
  5
1DD
100
AcDbEntity
  8
polka
  6
CONTINUOUS
 62
    2
370
   50
100
AcDbPolyline
 90
   12
 70
    1
 43
0
 10
142.1
 20
-2.099999999999994
 10
142.1
 20
1.4210854715202e-14
 10
199.9
 20
0
 10
199.9
 20
-2.09999999999998
 10
202
 20
-2.09999999999998
 10
202
 20
-43.90000000000001
 10
199.9
 20
-43.90000000000001
 10
199.9
 20
-46.00000000000001
 10
142.1
 20
-45.99999999999999
 10
142.1
 20
-43.9
 10
140
 20
-43.90000000000001
 10
140
 20
-2.099999999999994
  0
CIRCLE
  5
1DE
100
AcDbEntity
  8
polka
  6
ByLayer
 62
  256
370
   -1
100
AcDbCircle
 10
39
 20
53
 40
3
  0
CIRCLE
  5
1DF
100
AcDbEntity
  8
polka
  6
ByLayer
 62
  256
370
   -1
100
AcDbCircle
 10
23
 20
53
 40
3
  0
LWPOLYLINE
  5
1E0
100
AcDbEntity
  8
polka
  6
CONTINUOUS
 62
    2
370
   50
100
AcDbPolyline
 90
   12
 70
    1
 43
0
 10
2
 20
74
 10
2
 20
76
 10
60
 20
76
 10
60
 20
74
 10
62
 20
74
 10
62
 20
32
 10
60
 20
32
 10
60
 20
30
 10
2
 20
30
 10
2
 20
32
 10
0
 20
32
 10
2.220446049250313e-16
 20
74
  0
LWPOLYLINE
  5
1E1
100
AcDbEntity
  8
karkas
  6
ByLayer
 62
  256
370
   -1
100
AcDbPolyline
 90
    9
 70
    1
 43
0
 10
1.8
 20
74
 42
0.4142135623730953
 10
2.000000000000003
 20
74.2
 10
2.000000000000003
 20
75.8
 42
0.4142135623731161
 10
1.8
 20
76.00000000000001
 10
0.1999999999999997
 20
76
 42
0.4142135623730952
 10
-3.302913498259841e-15
 20
75.8
 10
-3.05311331771918e-15
 20
74.2
 42
0.4142135623731159
 10
0.1999999999999997
 20
73.99999999999999
 10
0.1999999999999997
 20
74
  0
LWPOLYLINE
  5
1E2
100
AcDbEntity
  8
karkas
  6
ByLayer
 62
  256
370
   -1
100
AcDbPolyline
 90
    9
 70
    1
 43
0
 10
1.8
 20
30
 42
0.4142135623730909
 10
2.000000000000003
 20
30.2
 10
2.000000000000003
 20
31.8
 42
0.4142135623730908
 10
1.8
 20
32
 10
0.1999999999999998
 20
32
 42
0.4142135623730908
 10
-3.33066907387547e-15
 20
31.8
 10
-2.942091015256665e-15
 20
30.2
 42
0.4142135623730901
 10
0.1999999999999995
 20
30
 10
0.1999999999999998
 20
30
  0
LINE
  5
1E3
100
AcDbEntity
  8
karkas
  6
ByLayer
 62
  256
370
   -1
100
AcDbLine
 10
-3.552713678800501e-15
 20
74.19999936502907
 11
-3.108624468950438e-15
 21
31.8
  0
LINE
  5
1E4
100
AcDbEntity
  8
karkas
  6
ByLayer
 62
  256
370
   -1
100
AcDbLine
 10
2.000000000000004
 20
31.79999995504253
 11
2.000000000000011
 21
74.19999938922729
  0
LWPOLYLINE
  5
1E5
100
AcDbEntity
  8
karkas
  6
ByLayer
 62
  256
370
   -1
100
AcDbPolyline
 90
    9
 70
    1
 43
0
 10
61.8
 20
74
 42
0.414213562373095
 10
62
 20
74.2
 10
62
 20
75.8
 42
0.4142135623731159
 10
61.8
 20
76.00000000000001
 10
60.2
 20
76
 42
0.414213562373095
 10
60
 20
75.8
 10
60
 20
74.2
 42
0.4142135623731159
 10
60.2
 20
73.99999999999999
 10
60.2
 20
74
  0
LWPOLYLINE
  5
1E6
100
AcDbEntity
  8
karkas
  6
ByLayer
 62
  256
370
   -1
100
AcDbPolyline
 90
    9
 70
    1
 43
0
 10
61.8
 20
30
 42
0.4142135623730846
 10
62
 20
30.2
 10
62
 20
31.8
 42
0.4142135623730898
 10
61.8
 20
32
 10
60.2
 20
32
 42
0.4142135623730846
 10
60
 20
31.8
 10
60
 20
30.2
 42
0.4142135623730898
 10
60.2
 20
30
 10
60.2
 20
30
  0
LINE
  5
1E7
100
AcDbEntity
  8
karkas
  6
ByLayer
 62
  256
370
   -1
100
AcDbLine
 10
60
 20
74.19999936502907
 11
60
 21
31.8
  0
LINE
  5
1E8
100
AcDbEntity
  8
karkas
  6
ByLayer
 62
  256
370
   -1
100
AcDbLine
 10
62
 20
31.79999995504253
 11
62.00000000000001
 21
74.19999938922729
  0
LINE
  5
1E9
100
AcDbEntity
  8
karkas
  6
ByLayer
 62
  256
370
   -1
100
AcDbLine
 10
60.19999937895741
 20
32
 11
1.8
 21
32
  0
LINE
  5
1EA
100
AcDbEntity
  8
karkas
  6
ByLayer
 62
  256
370
   -1
100
AcDbLine
 10
1.800000019159572
 20
30
 11
60.19999925422717
 21
30
  0
LINE
  5
1EB
100
AcDbEntity
  8
karkas
  6
ByLayer
 62
  256
370
   -1
100
AcDbLine
 10
60.19999875791483
 20
76
 11
1.799999378957412
 21
76
  0
LINE
  5
1EC
100
AcDbEntity
  8
karkas
  6
ByLayer
 62
  256
370
   -1
100
AcDbLine
 10
1.799999398116984
 20
74
 11
60.19999863318458
 21
74
  0
LWPOLYLINE
  5
1ED
100
AcDbEntity
  8
karkas
  6
ByLayer
 62
  256
370
   -1
100
AcDbPolyline
 90
    9
 70
    1
 43
0
 10
31.8
 20
30
 42
0.414213562373069
 10
32
 20
30.2
 10
32
 20
31.8
 42
0.414213562373069
 10
31.8
 20
32
 10
30.2
 20
32
 42
0.4142135623730742
 10
30
 20
31.8
 10
30
 20
30.2
 42
0.4142135623730742
 10
30.2
 20
30
 10
30.2
 20
30
  0
LWPOLYLINE
  5
1EE
100
AcDbEntity
  8
karkas
  6
ByLayer
 62
  256
370
   -1
100
AcDbPolyline
 90
    9
 70
    1
 43
0
 10
31.8
 20
73.99999999999999
 42
0.4142135623731054
 10
32
 20
74.2
 10
32
 20
75.8
 42
0.4142135623731054
 10
31.8
 20
76.00000000000001
 10
30.2
 20
76.00000000000001
 42
0.4142135623731106
 10
30
 20
75.8
 10
30
 20
74.2
 42
0.4142135623731054
 10
30.2
 20
73.99999999999999
 10
30.2
 20
74
  0
LINE
  5
1EF
100
AcDbEntity
  8
karkas
  6
DASHED2
 62
  256
370
   -1
100
AcDbLine
 10
29.99999999999999
 20
31.80000112960717
 11
30
 21
74.20000056379192
  0
LINE
  5
1F0
100
AcDbEntity
  8
karkas
  6
DASHED2
 62
  256
370
   -1
100
AcDbLine
 10
31.99999999999999
 20
31.80000014860241
 11
32
 21
74.19999958278717
  0
CIRCLE
  5
1F1
100
AcDbEntity
  8
polka
  6
ByLayer
 62
  256
370
   -1
100
AcDbCircle
 10
139
 20
53
 40
3
  0
CIRCLE
  5
1F2
100
AcDbEntity
  8
polka
  6
ByLayer
 62
  256
370
   -1
100
AcDbCircle
 10
123
 20
53
 40
3
  0
LINE
  5
1F3
100
AcDbEntity
  8
rozmir
  6
DASHDOT2
 62
  256
370
   -1
100
AcDbLine
 10
97
 20
53
 11
165
 21
53
  0
LINE
  5
1F4
100
AcDbEntity
  8
rozmir
  6
DASHDOT2
 62
  256
370
   -1
100
AcDbLine
 10
123
 20
58
 11
123
 21
48
  0
LINE
  5
1F5
100
AcDbEntity
  8
rozmir
  6
DASHDOT2
 62
  256
370
   -1
100
AcDbLine
 10
139
 20
58
 11
139
 21
48
  0
DIMENSION
  5
1F6
100
AcDbEntity
  8
rozmir
  6
ByLayer
 62
  256
370
   -1
100
AcDbDimension
  2
*D10
 10
102.1
 20
79
 30
0
 11
101.05
 21
81.25
 31
0
 70
   32
 71
    5
 72
    0
  3
Standard
 53
0
210
0
220
0
230
1
100
AcDbAlignedDimension
 13
100
 23
73.90000000000001
 33
0
 14
102.1
 24
76.00000000000001
 34
0
100
AcDbRotatedDimension
  0
DIMENSION
  5
1F7
100
AcDbEntity
  8
rozmir
  6
ByLayer
 62
  256
370
   -1
100
AcDbDimension
  2
*D11
 10
159.9
 20
79
 30
0
 11
131
 21
81.25
 31
0
 70
   32
 71
    5
 72
    0
  3
Standard
 53
0
210
0
220
0
230
1
100
AcDbAlignedDimension
 13
102.1
 23
76.00000000000001
 33
0
 14
159.9
 24
76.00000000000001
 34
0
100
AcDbRotatedDimension
  0
DIMENSION
  5
1F8
100
AcDbEntity
  8
rozmir
  6
ByLayer
 62
  256
370
   -1
100
AcDbDimension
  2
*D12
 10
162
 20
79
 30
0
 11
160.95
 21
81.25
 31
0
 70
   32
 71
    5
 72
    0
  3
Standard
 53
0
210
0
220
0
230
1
100
AcDbAlignedDimension
 13
159.9
 23
76.00000000000001
 33
0
 14
162
 24
73.90000000000002
 34
0
100
AcDbRotatedDimension
  0
DIMENSION
  5
1F9
100
AcDbEntity
  8
rozmir
  6
ByLayer
 62
  256
370
   -1
100
AcDbDimension
  2
*D13
 10
123
 20
60
 30
0
 11
111.5
 21
62.25
 31
0
 70
   32
 71
    5
 72
    0
  3
Standard
 53
0
210
0
220
0
230
1
100
AcDbAlignedDimension
 13
100
 23
53
 33
0
 14
123
 24
58
 34
0
100
AcDbRotatedDimension
  0
DIMENSION
  5
1FA
100
AcDbEntity
  8
rozmir
  6
ByLayer
 62
  256
370
   -1
100
AcDbDimension
  2
*D14
 10
139
 20
60
 30
0
 11
131
 21
62.25
 31
0
 70
   32
 71
    5
 72
    0
  3
Standard
 53
0
210
0
220
0
230
1
100
AcDbAlignedDimension
 13
123
 23
58
 33
0
 14
139
 24
58
 34
0
100
AcDbRotatedDimension
  0
DIMENSION
  5
1FB
100
AcDbEntity
  8
rozmir
  6
ByLayer
 62
  256
370
   -1
100
AcDbDimension
  2
*D15
 10
162
 20
60
 30
0
 11
150.5
 21
62.25
 31
0
 70
   32
 71
    5
 72
    0
  3
Standard
 53
0
210
0
220
0
230
1
100
AcDbAlignedDimension
 13
139
 23
58
 33
0
 14
162
 24
53
 34
0
100
AcDbRotatedDimension
  0
DIMENSION
  5
1FC
100
AcDbEntity
  8
rozmir
  6
ByLayer
 62
  256
370
   -1
100
AcDbDimension
  2
*D16
 10
162
 20
25
 30
0
 11
131
 21
27.25
 31
0
 70
   32
 71
    5
 72
    0
  3
Standard
 53
0
210
0
220
0
230
1
100
AcDbAlignedDimension
 13
100
 23
32
 33
0
 14
162
 24
32
 34
0
100
AcDbRotatedDimension
  0
DIMENSION
  5
1FD
100
AcDbEntity
  8
rozmir
  6
ByLayer
 62
  256
370
   -1
100
AcDbDimension
  2
*D17
 10
97
 20
32.09999999999999
 30
0
 11
94.75
 21
31.05
 31
0
 70
   32
 71
    5
 72
    0
  3
Standard
 53
0
210
0
220
0
230
1
100
AcDbAlignedDimension
 13
102.1
 23
30.00000000000001
 33
0
 14
100
 24
32.09999999999999
 34
0
 50
90
100
AcDbRotatedDimension
  0
DIMENSION
  5
1FE
100
AcDbEntity
  8
rozmir
  6
ByLayer
 62
  256
370
   -1
100
AcDbDimension
  2
*D18
 10
97
 20
73.90000000000001
 30
0
 11
94.75
 21
53
 31
0
 70
   32
 71
    5
 72
    0
  3
Standard
 53
0
210
0
220
0
230
1
100
AcDbAlignedDimension
 13
100
 23
32.09999999999999
 33
0
 14
100
 24
73.90000000000001
 34
0
 50
90
100
AcDbRotatedDimension
  0
DIMENSION
  5
1FF
100
AcDbEntity
  8
rozmir
  6
ByLayer
 62
  256
370
   -1
100
AcDbDimension
  2
*D19
 10
97
 20
76.00000000000001
 30
0
 11
94.75
 21
74.95000000000002
 31
0
 70
   32
 71
    5
 72
    0
  3
Standard
 53
0
210
0
220
0
230
1
100
AcDbAlignedDimension
 13
100
 23
73.90000000000001
 33
0
 14
102.1
 24
76.00000000000001
 34
0
 50
90
100
AcDbRotatedDimension
  0
DIMENSION
  5
200
100
AcDbEntity
  8
rozmir
  6
ByLayer
 62
  256
370
   -1
100
AcDbDimension
  2
*D20
 10
168
 20
76.00000000000001
 30
0
 11
165.75
 21
53
 31
0
 70
   32
 71
    5
 72
    0
  3
Standard
 53
0
210
0
220
0
230
1
100
AcDbAlignedDimension
 13
159.9
 23
29.99999999999999
 33
0
 14
159.9
 24
76.00000000000001
 34
0
 50
90
100
AcDbRotatedDimension
  0
DIMENSION
  5
201
100
AcDbEntity
  8
rozmir
  6
ByLayer
 62
  256
370
   -1
100
AcDbDimension
  2
*D21
 10
60
 20
95
 30
0
 11
31
 21
97.25
 31
0
 70
   32
 71
    5
  3
Standard
 53
0
210
0
220
0
230
1
100
AcDbAlignedDimension
 13
2
 23
100
 33
0
 14
60
 24
100
 34
0
100
AcDbRotatedDimension
  0
DIMENSION
  5
202
100
AcDbEntity
  8
rozmir
  6
ByLayer
 62
  256
370
   -1
100
AcDbDimension
  2
*D22
 10
144
 20
95
 30
0
 11
123
 21
97.25
 31
0
 70
   32
 71
    5
  3
Standard
 53
0
210
0
220
0
230
1
100
AcDbAlignedDimension
 13
102
 23
100
 33
0
 14
144
 24
100
 34
0
100
AcDbRotatedDimension
  0
DIMENSION
  5
203
100
AcDbEntity
  8
rozmir
  6
ByLayer
 62
  256
370
   -1
100
AcDbDimension
  2
*D23
 10
151
 20
133
 30
0
 11
148.75
 21
120.5
 31
0
 70
   32
 71
    5
  3
Standard
 53
0
210
0
220
0
230
1
100
AcDbAlignedDimension
 13
144
 23
108
 33
0
 14
144
 24
133
 34
0
 50
90
100
AcDbRotatedDimension
  0
DIMENSION
  5
204
100
AcDbEntity
  8
rozmir
  6
ByLayer
 62
  256
370
   -1
100
AcDbDimension
  2
*D24
 10
96
 20
190
 30
0
 11
93.75
 21
188.5
 31
0
 70
   32
 71
    5
  3
Standard
 53
0
210
0
220
0
230
1
100
AcDbAlignedDimension
 13
102
 23
187
 33
0
 14
100
 24
190
 34
0
 50
90
100
AcDbRotatedDimension
  0
LWPOLYLINE
  5
205
100
AcDbEntity
  8
polka
  6
CONTINUOUS
 62
    2
370
   50
100
AcDbPolyline
 90
   20
 70
    1
 43
0
 10
102.1
 20
73.90000000000001
 10
102.1
 20
76.00000000000001
 10
129.9
 20
76
 10
129.9
 20
73.90000000000001
 10
132.1
 20
73.90000000000001
 10
132.1
 20
76
 10
159.9
 20
76
 10
159.9
 20
73.90000000000002
 10
162
 20
73.90000000000002
 10
162
 20
32.09999999999999
 10
159.9
 20
32.09999999999999
 10
159.9
 20
29.99999999999999
 10
132.1
 20
30.1
 10
132.1
 20
32.1
 10
129.9
 20
32.1
 10
129.9
 20
30
 10
102.1
 20
30.00000000000001
 10
102.1
 20
32.1
 10
100
 20
32.09999999999999
 10
100
 20
73.90000000000001
  0
DIMENSION
  5
206
100
AcDbEntity
  8
rozmir
  6
ByLayer
 62
  256
370
   -1
100
AcDbDimension
  2
*D25
 10
120.8786796564404
 20
50.87867965644035
 30
0
 11
117
 21
50
 31
0
 70
   35
 71
    5
  3
Standard
 53
0
210
0
220
0
230
1
100
AcDbDiametricDimension
 15
125.1213203435596
 25
55.12132034355965
 35
0
 40
0
  0
ENDSEC
  0
SECTION
  2
OBJECTS
  0
DICTIONARY
  5
C
330
0
100
AcDbDictionary
281
    1
  3
ACAD_GROUP
350
D
  0
DICTIONARY
  5
D
330
C
100
AcDbDictionary
281
    1
  0
ENDSEC
  0
EOF
