999
dxfrw 0.6.3
  0
SECTION
  2
HEADER
  9
$ACADVER
  1
AC1021
  9
$DWGCODEPAGE
  3
ANSI_1252
  9
$INSBASE
 10
0
 20
0
 30
0
  9
$EXTMIN
 10
-13.5
 20
-94
 30
0
  9
$EXTMAX
 10
222
 20
136.3999999999999
 30
0
  9
$LIMMIN
 10
0
 20
0
  9
$LIMMAX
 10
420
 20
297
  9
$ORTHOMODE
 70
    0
  9
$REGENMODE
 70
    1
  9
$FILLMODE
 70
    1
  9
$QTEXTMODE
 70
    0
  9
$MIRRTEXT
 70
    0
  9
$LTSCALE
 40
1
  9
$ATTMODE
 70
    0
  9
$TEXTSIZE
 40
2.5
  9
$TRACEWID
 40
15.68
  9
$TEXTSTYLE
  7
STANDARD
  9
$CLAYER
  8
karkas
  9
$CELTYPE
  6
BYLAYER
  9
$CECOLOR
 62
  256
  9
$CELTSCALE
 40
1
  9
$DISPSILH
 70
    0
  9
$DIMSCALE
 40
1
  9
$DIMASZ
 40
2.5
  9
$DIMEXO
 40
1
  9
$DIMDLI
 40
3.75
  9
$DIMRND
 40
0
  9
$DIMDLE
 40
0
  9
$DIMEXE
 40
2
  9
$DIMTP
 40
0
  9
$DIMTM
 40
0
  9
$DIMTXT
 40
2.5
  9
$DIMCEN
 40
2.5
  9
$DIMTSZ
 40
0
  9
$DIMTOL
 70
    0
  9
$DIMLIM
 70
    0
  9
$DIMTIH
 70
    0
  9
$DIMTOH
 70
    0
  9
$DIMSE1
 70
    0
  9
$DIMSE2
 70
    0
  9
$DIMTAD
 70
    1
  9
$DIMZIN
 70
    8
  9
$DIMBLK
  1

  9
$DIMASO
 70
    1
  9
$DIMSHO
 70
    1
  9
$DIMPOST
  1

  9
$DIMAPOST
  1

  9
$DIMALT
 70
    0
  9
$DIMALTD
 70
    3
  9
$DIMALTF
 40
0.03937
  9
$DIMLFAC
 40
1
  9
$DIMTOFL
 70
    1
  9
$DIMTVP
 40
0
  9
$DIMTIX
 70
    0
  9
$DIMSOXD
 70
    0
  9
$DIMSAH
 70
    0
  9
$DIMBLK1
  1

  9
$DIMBLK2
  1

  9
$DIMSTYLE
  2
STANDARD
  9
$DIMCLRD
 70
    0
  9
$DIMCLRE
 70
    0
  9
$DIMCLRT
 70
    0
  9
$DIMTFAC
 40
1
  9
$DIMGAP
 40
1
  9
$DIMJUST
 70
    0
  9
$DIMSD1
 70
    0
  9
$DIMSD2
 70
    0
  9
$DIMTOLJ
 70
    0
  9
$DIMTZIN
 70
    8
  9
$DIMALTZ
 70
    0
  9
$DIMALTTZ
 70
    0
  9
$DIMUPT
 70
    0
  9
$DIMDEC
 70
    1
  9
$DIMTDEC
 70
    2
  9
$DIMALTU
 70
    2
  9
$DIMALTTD
 70
    3
  9
$DIMTXSTY
  7
standard
  9
$DIMAUNIT
 70
    0
  9
$DIMADEC
 70
    0
  9
$DIMALTRND
 40
0
  9
$DIMAZIN
 70
    0
  9
$DIMDSEP
 70
   44
  9
$DIMATFIT
 70
    3
  9
$DIMFRAC
 70
    0
  9
$DIMLDRBLK
  1
STANDARD
  9
$DIMLUNIT
 70
    2
  9
$DIMLWD
 70
   -2
  9
$DIMLWE
 70
   -2
  9
$DIMTMOVE
 70
    0
  9
$DIMFXL
 40
1
  9
$DIMFXLON
 70
    0
  9
$DIMJOGANG
 40
0.7854
  9
$DIMTFILL
 70
    0
  9
$DIMTFILLCLR
 70
    0
  9
$DIMARCSYM
 70
    0
  9
$DIMLTYPE
  6

  9
$DIMLTEX1
  6

  9
$DIMLTEX2
  6

  9
$LUNITS
 70
    2
  9
$LUPREC
 70
    2
  9
$SKETCHINC
 40
1
  9
$FILLETRAD
 40
0
  9
$AUNITS
 70
    0
  9
$AUPREC
 70
    2
  9
$MENU
  1
.
  9
$ELEVATION
 40
0
  9
$PELEVATION
 40
0
  9
$THICKNESS
 40
0
  9
$LIMCHECK
 70
    0
  9
$CHAMFERA
 40
0
  9
$CHAMFERB
 40
0
  9
$CHAMFERC
 40
0
  9
$CHAMFERD
 40
0
  9
$SKPOLY
 70
    0
  9
$USRTIMER
 70
    1
  9
$ANGBASE
 50
0
  9
$ANGDIR
 70
    0
  9
$PDMODE
 70
   34
  9
$PDSIZE
 40
0
  9
$PLINEWID
 40
0
  9
$SPLFRAME
 70
    0
  9
$SPLINETYPE
 70
    2
  9
$SPLINESEGS
 70
    8
  9
$HANDSEED
  5
20000
  9
$SURFTAB1
 70
    6
  9
$SURFTAB2
 70
    6
  9
$SURFTYPE
 70
    6
  9
$SURFU
 70
    6
  9
$SURFV
 70
    6
  9
$UCSBASE
  2

  9
$UCSNAME
  2

  9
$UCSORG
 10
0
 20
0
 30
0
  9
$UCSXDIR
 10
1
 20
0
 30
0
  9
$UCSYDIR
 10
0
 20
1
 30
0
  9
$UCSORTHOREF
  2

  9
$UCSORTHOVIEW
 70
    0
  9
$UCSORGTOP
 10
0
 20
0
 30
0
  9
$UCSORGBOTTOM
 10
0
 20
0
 30
0
  9
$UCSORGLEFT
 10
0
 20
0
 30
0
  9
$UCSORGRIGHT
 10
0
 20
0
 30
0
  9
$UCSORGFRONT
 10
0
 20
0
 30
0
  9
$UCSORGBACK
 10
0
 20
0
 30
0
  9
$PUCSBASE
  2

  9
$PUCSNAME
  2

  9
$PUCSORG
 10
0
 20
0
 30
0
  9
$PUCSXDIR
 10
1
 20
0
 30
0
  9
$PUCSYDIR
 10
0
 20
1
 30
0
  9
$PUCSORTHOREF
  2

  9
$PUCSORTHOVIEW
 70
    0
  9
$PUCSORGTOP
 10
0
 20
0
 30
0
  9
$PUCSORGBOTTOM
 10
0
 20
0
 30
0
  9
$PUCSORGLEFT
 10
0
 20
0
 30
0
  9
$PUCSORGRIGHT
 10
0
 20
0
 30
0
  9
$PUCSORGFRONT
 10
0
 20
0
 30
0
  9
$PUCSORGBACK
 10
0
 20
0
 30
0
  9
$USERI1
 70
    0
  9
$USERI2
 70
    0
  9
$USERI3
 70
    0
  9
$USERI4
 70
    0
  9
$USERI5
 70
    0
  9
$USERR1
 40
0
  9
$USERR2
 40
0
  9
$USERR3
 40
0
  9
$USERR4
 40
0
  9
$USERR5
 40
0
  9
$WORLDVIEW
 70
    1
  9
$SHADEDGE
 70
    3
  9
$SHADEDIF
 70
   70
  9
$TILEMODE
 70
    1
  9
$MAXACTVP
 70
   64
  9
$PINSBASE
 10
4.875242326332796
 20
3.68578352180937
 30
0
  9
$PLIMCHECK
 70
    0
  9
$PEXTMIN
 10
0
 20
0
 30
0
  9
$PEXTMAX
 10
0
 20
0
 30
0
  9
$GRIDMODE
 70
    1
  9
$SNAPSTYLE
 70
    0
  9
$GRIDUNIT
 10
0
 20
0
  9
$PLIMMIN
 10
0
 20
0
  9
$PLIMMAX
 10
29.7
 20
21
  9
$UNITMODE
 70
    0
  9
$VISRETAIN
 70
    1
  9
$PLINEGEN
 70
    0
  9
$PSLTSCALE
 70
    1
  9
$TREEDEPTH
 70
 3020
  9
$CMLSTYLE
  2
Standard
  9
$CMLJUST
 70
    0
  9
$CMLSCALE
 40
20
  9
$PROXYGRAPHICS
 70
    1
  9
$MEASUREMENT
 70
    1
  9
$CELWEIGHT
370
   -1
  9
$ENDCAPS
280
    0
  9
$JOINSTYLE
280
    0
  9
$LWDISPLAY
290
    0
  9
$INSUNITS
 70
    5
  9
$HYPERLINKBASE
  1

  9
$STYLESHEET
  1

  9
$XEDIT
290
    1
  9
$CEPSNTYPE
380
    0
  9
$PSTYLEMODE
290
    1
  9
$EXTNAMES
290
    1
  9
$PSVPSCALE
 40
0.07471719541535289
  9
$OLESTARTUP
290
    0
  9
$SORTENTS
280
  127
  9
$INDEXCTL
280
    0
  9
$HIDETEXT
280
    1
  9
$XCLIPFRAME
290
    0
  9
$HALOGAP
280
    0
  9
$OBSCOLOR
 70
  257
  9
$OBSLTYPE
280
    0
  9
$INTERSECTIONDISPLAY
280
    0
  9
$INTERSECTIONCOLOR
 70
  257
  9
$DIMASSOC
280
    1
  9
$PROJECTNAME
  1

  9
$CAMERADISPLAY
290
    0
  9
$LENSLENGTH
 40
50
  9
$CAMERAHEIGHT
 40
0
  9
$STEPSPERSEC
 40
2
  9
$STEPSIZE
 40
50
  9
$3DDWFPREC
 40
2
  9
$PSOLWIDTH
 40
5
  9
$PSOLHEIGHT
 40
80
  9
$LOFTANG1
 40
1.570796326794897
  9
$LOFTANG2
 40
1.570796326794897
  9
$LOFTMAG1
 40
0
  9
$LOFTMAG2
 40
0
  9
$LOFTPARAM
 70
    7
  9
$LOFTNORMALS
280
    1
  9
$LATITUDE
 40
1
  9
$LONGITUDE
 40
1
  9
$NORTHDIRECTION
 40
0
  9
$TIMEZONE
 70
-8000
  9
$LIGHTGLYPHDISPLAY
280
    1
  9
$TILEMODELIGHTSYNCH
280
    1
  9
$SOLIDHIST
280
    1
  9
$SHOWHIST
280
    1
  9
$DWFFRAME
280
    2
  9
$DGNFRAME
280
    0
  9
$REALWORLDSCALE
290
    1
  9
$INTERFERECOLOR
 62
    1
  9
$CSHADOW
280
    0
  9
$SHADOWPLANELOCATION
 40
0
  0
ENDSEC
  0
SECTION
  2
CLASSES
  0
ENDSEC
  0
SECTION
  2
TABLES
  0
TABLE
  2
VPORT
  5
8
330
0
100
AcDbSymbolTable
 70
    1
  0
VPORT
  5
31
330
2
100
AcDbSymbolTableRecord
100
AcDbViewportTableRecord
  2
*ACTIVE
 70
    0
 10
0
 20
0
 11
1
 21
1
 12
169.9279778393351
 22
69.88587257617726
 13
0
 23
0
 14
10
 24
10
 15
10
 25
10
 16
0
 26
0
 36
1
 17
0
 27
0
 37
0
 40
236.782271468144
 41
1.987870619946092
 42
50
 43
0
 44
0
 50
0
 51
0
 71
    0
 72
  100
 73
    1
 74
    3
 75
    0
 76
    1
 77
    0
 78
    0
281
    0
 65
    1
110
0
120
0
130
0
111
1
121
0
131
0
112
0
122
1
132
0
 79
    0
146
0
348
10020
 60
    7
 61
    5
292
1
282
    1
141
0
142
0
 63
  250
421
3358443
  0
ENDTAB
  0
TABLE
  2
LTYPE
  5
5
330
0
100
AcDbSymbolTable
 70
    4
  0
LTYPE
  5
14
330
5
100
AcDbSymbolTableRecord
100
AcDbLinetypeTableRecord
  2
ByBlock
 70
    0
  3

 72
   65
 73
    0
 40
0
  0
LTYPE
  5
15
330
5
100
AcDbSymbolTableRecord
100
AcDbLinetypeTableRecord
  2
ByLayer
 70
    0
  3

 72
   65
 73
    0
 40
0
  0
LTYPE
  5
16
330
5
100
AcDbSymbolTableRecord
100
AcDbLinetypeTableRecord
  2
Continuous
 70
    0
  3
Solid line
 72
   65
 73
    0
 40
0
  0
LTYPE
  5
32
330
5
100
AcDbSymbolTableRecord
100
AcDbLinetypeTableRecord
  2
DOT
 70
    0
  3
Dot . . . . . . . . . . . . . . . . . . . . . .
 72
   65
 73
    2
 40
6.35
 49
0
 74
    0
 49
-6.35
 74
    0
  0
LTYPE
  5
33
330
5
100
AcDbSymbolTableRecord
100
AcDbLinetypeTableRecord
  2
DOTTINY
 70
    0
  3
Dot (.15x) .....................................
 72
   65
 73
    2
 40
0.9525
 49
0
 74
    0
 49
-0.9525
 74
    0
  0
LTYPE
  5
34
330
5
100
AcDbSymbolTableRecord
100
AcDbLinetypeTableRecord
  2
DOT2
 70
    0
  3
Dot (.5x) .....................................
 72
   65
 73
    2
 40
3.175
 49
0
 74
    0
 49
-3.175
 74
    0
  0
LTYPE
  5
35
330
5
100
AcDbSymbolTableRecord
100
AcDbLinetypeTableRecord
  2
DOTX2
 70
    0
  3
Dot (2x) .  .  .  .  .  .  .  .  .  .  .  .  .
 72
   65
 73
    2
 40
12.7
 49
0
 74
    0
 49
-12.7
 74
    0
  0
LTYPE
  5
36
330
5
100
AcDbSymbolTableRecord
100
AcDbLinetypeTableRecord
  2
DASHED
 70
    0
  3
Dashed _ _ _ _ _ _ _ _ _ _ _ _ _ _ _ _ _
 72
   65
 73
    2
 40
19.05
 49
12.7
 74
    0
 49
-6.35
 74
    0
  0
LTYPE
  5
37
330
5
100
AcDbSymbolTableRecord
100
AcDbLinetypeTableRecord
  2
DASHEDTINY
 70
    0
  3
Dashed (.15x) _ _ _ _ _ _ _ _ _ _ _ _ _ _ _ _ _
 72
   65
 73
    2
 40
2.8575
 49
1.905
 74
    0
 49
-0.9525
 74
    0
  0
LTYPE
  5
38
330
5
100
AcDbSymbolTableRecord
100
AcDbLinetypeTableRecord
  2
DASHED2
 70
    0
  3
Dashed (.5x) _ _ _ _ _ _ _ _ _ _ _ _ _ _ _ _ _
 72
   65
 73
    2
 40
9.524999999999999
 49
6.35
 74
    0
 49
-3.175
 74
    0
  0
LTYPE
  5
39
330
5
100
AcDbSymbolTableRecord
100
AcDbLinetypeTableRecord
  2
DASHEDX2
 70
    0
  3
Dashed (2x) ____  ____  ____  ____  ____  ___
 72
   65
 73
    2
 40
38.09999999999999
 49
25.4
 74
    0
 49
-12.7
 74
    0
  0
LTYPE
  5
3A
330
5
100
AcDbSymbolTableRecord
100
AcDbLinetypeTableRecord
  2
DASHDOT
 70
    0
  3
Dash dot __ . __ . __ . __ . __ . __ . __ . __
 72
   65
 73
    4
 40
25.4
 49
12.7
 74
    0
 49
-6.35
 74
    0
 49
0
 74
    0
 49
-6.35
 74
    0
  0
LTYPE
  5
3B
330
5
100
AcDbSymbolTableRecord
100
AcDbLinetypeTableRecord
  2
DASHDOTTINY
 70
    0
  3
Dash dot (.15x) _._._._._._._._._._._._._._._.
 72
   65
 73
    4
 40
3.81
 49
1.905
 74
    0
 49
-0.9525
 74
    0
 49
0
 74
    0
 49
-0.9525
 74
    0
  0
LTYPE
  5
3C
330
5
100
AcDbSymbolTableRecord
100
AcDbLinetypeTableRecord
  2
DASHDOT2
 70
    0
  3
Dash dot (.5x) _._._._._._._._._._._._._._._.
 72
   65
 73
    4
 40
12.7
 49
6.35
 74
    0
 49
-3.175
 74
    0
 49
0
 74
    0
 49
-3.175
 74
    0
  0
LTYPE
  5
3D
330
5
100
AcDbSymbolTableRecord
100
AcDbLinetypeTableRecord
  2
DASHDOTX2
 70
    0
  3
Dash dot (2x) ____  .  ____  .  ____  .  ___
 72
   65
 73
    4
 40
50.8
 49
25.4
 74
    0
 49
-12.7
 74
    0
 49
0
 74
    0
 49
-12.7
 74
    0
  0
LTYPE
  5
3E
330
5
100
AcDbSymbolTableRecord
100
AcDbLinetypeTableRecord
  2
DIVIDE
 70
    0
  3
Divide ____ . . ____ . . ____ . . ____ . . ____
 72
   65
 73
    6
 40
31.75
 49
12.7
 74
    0
 49
-6.35
 74
    0
 49
0
 74
    0
 49
-6.35
 74
    0
 49
0
 74
    0
 49
-6.35
 74
    0
  0
LTYPE
  5
3F
330
5
100
AcDbSymbolTableRecord
100
AcDbLinetypeTableRecord
  2
DIVIDETINY
 70
    0
  3
Divide (.15x) __..__..__..__..__..__..__..__.._
 72
   65
 73
    6
 40
4.7625
 49
1.905
 74
    0
 49
-0.9525
 74
    0
 49
0
 74
    0
 49
-0.9525
 74
    0
 49
0
 74
    0
 49
-0.9525
 74
    0
  0
LTYPE
  5
40
330
5
100
AcDbSymbolTableRecord
100
AcDbLinetypeTableRecord
  2
DIVIDE2
 70
    0
  3
Divide (.5x) __..__..__..__..__..__..__..__.._
 72
   65
 73
    6
 40
15.875
 49
6.35
 74
    0
 49
-3.175
 74
    0
 49
0
 74
    0
 49
-3.175
 74
    0
 49
0
 74
    0
 49
-3.175
 74
    0
  0
LTYPE
  5
41
330
5
100
AcDbSymbolTableRecord
100
AcDbLinetypeTableRecord
  2
DIVIDEX2
 70
    0
  3
Divide (2x) ________  .  .  ________  .  .  _
 72
   65
 73
    6
 40
63.5
 49
25.4
 74
    0
 49
-12.7
 74
    0
 49
0
 74
    0
 49
-12.7
 74
    0
 49
0
 74
    0
 49
-12.7
 74
    0
  0
LTYPE
  5
42
330
5
100
AcDbSymbolTableRecord
100
AcDbLinetypeTableRecord
  2
BORDER
 70
    0
  3
Border __ __ . __ __ . __ __ . __ __ . __ __ .
 72
   65
 73
    6
 40
44.45
 49
12.7
 74
    0
 49
-6.35
 74
    0
 49
12.7
 74
    0
 49
-6.35
 74
    0
 49
0
 74
    0
 49
-6.35
 74
    0
  0
LTYPE
  5
43
330
5
100
AcDbSymbolTableRecord
100
AcDbLinetypeTableRecord
  2
BORDERTINY
 70
    0
  3
Border (.15x) __.__.__.__.__.__.__.__.__.__.__.
 72
   65
 73
    6
 40
6.6675
 49
1.905
 74
    0
 49
-0.9525
 74
    0
 49
1.905
 74
    0
 49
-0.9525
 74
    0
 49
0
 74
    0
 49
-0.9525
 74
    0
  0
LTYPE
  5
44
330
5
100
AcDbSymbolTableRecord
100
AcDbLinetypeTableRecord
  2
BORDER2
 70
    0
  3
Border (.5x) __.__.__.__.__.__.__.__.__.__.__.
 72
   65
 73
    6
 40
22.225
 49
6.35
 74
    0
 49
-3.175
 74
    0
 49
6.35
 74
    0
 49
-3.175
 74
    0
 49
0
 74
    0
 49
-3.175
 74
    0
  0
LTYPE
  5
45
330
5
100
AcDbSymbolTableRecord
100
AcDbLinetypeTableRecord
  2
BORDERX2
 70
    0
  3
Border (2x) ____  ____  .  ____  ____  .  ___
 72
   65
 73
    6
 40
88.89999999999999
 49
25.4
 74
    0
 49
-12.7
 74
    0
 49
25.4
 74
    0
 49
-12.7
 74
    0
 49
0
 74
    0
 49
-12.7
 74
    0
  0
LTYPE
  5
46
330
5
100
AcDbSymbolTableRecord
100
AcDbLinetypeTableRecord
  2
CENTER
 70
    0
  3
Center ____ _ ____ _ ____ _ ____ _ ____ _ ____
 72
   65
 73
    4
 40
50.8
 49
31.75
 74
    0
 49
-6.35
 74
    0
 49
6.35
 74
    0
 49
-6.35
 74
    0
  0
LTYPE
  5
47
330
5
100
AcDbSymbolTableRecord
100
AcDbLinetypeTableRecord
  2
CENTERTINY
 70
    0
  3
Center (.15x) ___ _ ___ _ ___ _ ___ _ ___ _ ___
 72
   65
 73
    4
 40
7.619999999999999
 49
4.7625
 74
    0
 49
-0.9525
 74
    0
 49
0.9525
 74
    0
 49
-0.9525
 74
    0
  0
LTYPE
  5
48
330
5
100
AcDbSymbolTableRecord
100
AcDbLinetypeTableRecord
  2
CENTER2
 70
    0
  3
Center (.5x) ___ _ ___ _ ___ _ ___ _ ___ _ ___
 72
   65
 73
    4
 40
28.575
 49
19.05
 74
    0
 49
-3.175
 74
    0
 49
3.175
 74
    0
 49
-3.175
 74
    0
  0
LTYPE
  5
49
330
5
100
AcDbSymbolTableRecord
100
AcDbLinetypeTableRecord
  2
CENTERX2
 70
    0
  3
Center (2x) ________  __  ________  __  _____
 72
   65
 73
    4
 40
101.6
 49
63.5
 74
    0
 49
-12.7
 74
    0
 49
12.7
 74
    0
 49
-12.7
 74
    0
  0
ENDTAB
  0
TABLE
  2
LAYER
  5
2
330
0
100
AcDbSymbolTable
 70
    1
  0
LAYER
  5
10
330
2
100
AcDbSymbolTableRecord
100
AcDbLayerTableRecord
  2
0
 70
    0
 62
    7
  6
CONTINUOUS
370
   -3
390
F
1001
LibreCad
1070
    1
  0
LAYER
  5
4A
330
2
100
AcDbSymbolTableRecord
100
AcDbLayerTableRecord
  2
bak
 70
    0
 62
    3
  6
CONTINUOUS
370
   50
390
F
  0
LAYER
  5
4B
330
2
100
AcDbSymbolTableRecord
100
AcDbLayerTableRecord
  2
karkas
 70
    0
 62
  136
420
32896
  6
CONTINUOUS
370
   50
390
F
  0
LAYER
  5
4C
330
2
100
AcDbSymbolTableRecord
100
AcDbLayerTableRecord
  2
krepezh
 70
    0
 62
    5
  6
CONTINUOUS
370
   50
390
F
  0
LAYER
  5
4D
330
2
100
AcDbSymbolTableRecord
100
AcDbLayerTableRecord
  2
list
 70
    1
 62
    2
  6
CONTINUOUS
370
   50
390
F
  0
LAYER
  5
4E
330
2
100
AcDbSymbolTableRecord
100
AcDbLayerTableRecord
  2
obshivka
 70
    0
 62
   96
420
32768
  6
CONTINUOUS
370
   50
390
F
  0
LAYER
  5
4F
330
2
100
AcDbSymbolTableRecord
100
AcDbLayerTableRecord
  2
rakovyna
 70
    0
 62
   16
420
8388608
  6
CONTINUOUS
370
   50
390
F
  0
LAYER
  5
50
330
2
100
AcDbSymbolTableRecord
100
AcDbLayerTableRecord
  2
rozmir
 70
    0
 62
    4
  6
CONTINUOUS
370
   13
390
F
  0
ENDTAB
  0
TABLE
  2
STYLE
  5
3
330
0
100
AcDbSymbolTable
 70
    3
  0
STYLE
  5
51
330
2
100
AcDbSymbolTableRecord
100
AcDbTextStyleTableRecord
  2
Standard
 70
    0
 40
0
 41
1
 50
0
 71
    0
 42
1
  3
txt
  4

  0
ENDTAB
  0
TABLE
  2
VIEW
  5
6
330
0
100
AcDbSymbolTable
 70
    0
  0
ENDTAB
  0
TABLE
  2
UCS
  5
7
330
0
100
AcDbSymbolTable
 70
    0
  0
ENDTAB
  0
TABLE
  2
APPID
  5
9
330
0
100
AcDbSymbolTable
 70
    1
  0
APPID
  5
12
330
9
100
AcDbSymbolTableRecord
100
AcDbRegAppTableRecord
  2
ACAD
 70
    0
  0
APPID
  5
52
330
9
100
AcDbSymbolTableRecord
100
AcDbRegAppTableRecord
  2
LibreCad
 70
    0
  0
ENDTAB
  0
TABLE
  2
DIMSTYLE
  5
A
330
0
100
AcDbSymbolTable
 70
    1
100
AcDbDimStyleTable
 71
    1
  0
DIMSTYLE
105
53
330
A
100
AcDbSymbolTableRecord
100
AcDbDimStyleTableRecord
  2
Standard
 70
    0
 40
1
 41
2.5
 42
1
 43
0.38
 44
2
 45
0
 46
0
 47
0
 48
0
 49
1
140
2.5
141
0.09
142
0
143
25.4
144
1
145
0
146
1
147
1
148
0
 71
    0
 72
    0
 73
    0
 74
    1
 75
    0
 76
    0
 77
    0
 78
    8
 79
    0
170
    0
171
    2
172
    0
173
    0
174
    0
175
    0
176
    0
177
    0
178
    0
179
    0
271
    1
272
    4
273
    2
274
    2
275
    0
276
    0
277
    2
278
   44
279
    0
280
    0
281
    0
282
    0
283
    1
284
    0
285
    0
286
    0
288
    0
289
    3
340
standard
341

371
   -2
372
   -2
  0
ENDTAB
  0
TABLE
  2
BLOCK_RECORD
  5
1
330
0
100
AcDbSymbolTable
 70
    2
  0
BLOCK_RECORD
  5
1F
330
1
100
AcDbSymbolTableRecord
100
AcDbBlockTableRecord
  2
*Model_Space
 70
    0
280
    1
281
    0
  0
BLOCK_RECORD
  5
1E
330
1
100
AcDbSymbolTableRecord
100
AcDbBlockTableRecord
  2
*Paper_Space
 70
    0
280
    1
281
    0
  0
BLOCK_RECORD
  5
54
330
1
100
AcDbSymbolTableRecord
100
AcDbBlockTableRecord
  2
*D14
 70
    0
280
    1
281
    0
  0
BLOCK_RECORD
  5
57
330
1
100
AcDbSymbolTableRecord
100
AcDbBlockTableRecord
  2
*D21
 70
    0
280
    1
281
    0
  0
BLOCK_RECORD
  5
5A
330
1
100
AcDbSymbolTableRecord
100
AcDbBlockTableRecord
  2
*D26
 70
    0
280
    1
281
    0
  0
BLOCK_RECORD
  5
5D
330
1
100
AcDbSymbolTableRecord
100
AcDbBlockTableRecord
  2
*D3
 70
    0
280
    1
281
    0
  0
BLOCK_RECORD
  5
60
330
1
100
AcDbSymbolTableRecord
100
AcDbBlockTableRecord
  2
*D12
 70
    0
280
    1
281
    0
  0
BLOCK_RECORD
  5
63
330
1
100
AcDbSymbolTableRecord
100
AcDbBlockTableRecord
  2
*D16
 70
    0
280
    1
281
    0
  0
BLOCK_RECORD
  5
66
330
1
100
AcDbSymbolTableRecord
100
AcDbBlockTableRecord
  2
*D25
 70
    0
280
    1
281
    0
  0
BLOCK_RECORD
  5
69
330
1
100
AcDbSymbolTableRecord
100
AcDbBlockTableRecord
  2
*D10
 70
    0
280
    1
281
    0
  0
BLOCK_RECORD
  5
6C
330
1
100
AcDbSymbolTableRecord
100
AcDbBlockTableRecord
  2
*D11
 70
    0
280
    1
281
    0
  0
BLOCK_RECORD
  5
6F
330
1
100
AcDbSymbolTableRecord
100
AcDbBlockTableRecord
  2
*D18
 70
    0
280
    1
281
    0
  0
BLOCK_RECORD
  5
72
330
1
100
AcDbSymbolTableRecord
100
AcDbBlockTableRecord
  2
*D8
 70
    0
280
    1
281
    0
  0
BLOCK_RECORD
  5
75
330
1
100
AcDbSymbolTableRecord
100
AcDbBlockTableRecord
  2
*D24
 70
    0
280
    1
281
    0
  0
BLOCK_RECORD
  5
78
330
1
100
AcDbSymbolTableRecord
100
AcDbBlockTableRecord
  2
*D1
 70
    0
280
    1
281
    0
  0
BLOCK_RECORD
  5
7B
330
1
100
AcDbSymbolTableRecord
100
AcDbBlockTableRecord
  2
*D5
 70
    0
280
    1
281
    0
  0
BLOCK_RECORD
  5
7E
330
1
100
AcDbSymbolTableRecord
100
AcDbBlockTableRecord
  2
*D20
 70
    0
280
    1
281
    0
  0
BLOCK_RECORD
  5
81
330
1
100
AcDbSymbolTableRecord
100
AcDbBlockTableRecord
  2
*D7
 70
    0
280
    1
281
    0
  0
BLOCK_RECORD
  5
84
330
1
100
AcDbSymbolTableRecord
100
AcDbBlockTableRecord
  2
*D6
 70
    0
280
    1
281
    0
  0
BLOCK_RECORD
  5
87
330
1
100
AcDbSymbolTableRecord
100
AcDbBlockTableRecord
  2
*D19
 70
    0
280
    1
281
    0
  0
BLOCK_RECORD
  5
8A
330
1
100
AcDbSymbolTableRecord
100
AcDbBlockTableRecord
  2
*D13
 70
    0
280
    1
281
    0
  0
BLOCK_RECORD
  5
8D
330
1
100
AcDbSymbolTableRecord
100
AcDbBlockTableRecord
  2
*D4
 70
    0
280
    1
281
    0
  0
BLOCK_RECORD
  5
90
330
1
100
AcDbSymbolTableRecord
100
AcDbBlockTableRecord
  2
*D2
 70
    0
280
    1
281
    0
  0
BLOCK_RECORD
  5
93
330
1
100
AcDbSymbolTableRecord
100
AcDbBlockTableRecord
  2
*D15
 70
    0
280
    1
281
    0
  0
BLOCK_RECORD
  5
96
330
1
100
AcDbSymbolTableRecord
100
AcDbBlockTableRecord
  2
*D23
 70
    0
280
    1
281
    0
  0
BLOCK_RECORD
  5
99
330
1
100
AcDbSymbolTableRecord
100
AcDbBlockTableRecord
  2
*D17
 70
    0
280
    1
281
    0
  0
BLOCK_RECORD
  5
9C
330
1
100
AcDbSymbolTableRecord
100
AcDbBlockTableRecord
  2
*D22
 70
    0
280
    1
281
    0
  0
BLOCK_RECORD
  5
9F
330
1
100
AcDbSymbolTableRecord
100
AcDbBlockTableRecord
  2
*D9
 70
    0
280
    1
281
    0
  0
ENDTAB
  0
ENDSEC
  0
SECTION
  2
BLOCKS
  0
BLOCK
  5
20
330
1F
100
AcDbEntity
  8
0
100
AcDbBlockBegin
  2
*Model_Space
 70
    0
 10
0
 20
0
 30
0
  3
*Model_Space
  1

  0
ENDBLK
  5
21
330
1F
100
AcDbEntity
  8
0
100
AcDbBlockEnd
  0
BLOCK
  5
1C
330
1B
100
AcDbEntity
  8
0
100
AcDbBlockBegin
  2
*Paper_Space
 70
    0
 10
0
 20
0
 30
0
  3
*Paper_Space
  1

  0
ENDBLK
  5
1D
330
1F
100
AcDbEntity
  8
0
100
AcDbBlockEnd
  0
BLOCK
  5
55
330
54
100
AcDbEntity
  8
0
100
AcDbBlockBegin
  2
*D14
 70
    1
 10
0
 20
0
  3
*D14
  1

  0
LINE
  5
A2
100
AcDbEntity
  8
rozmir
  6
ByBlock
 62
    0
370
   -2
100
AcDbLine
 10
150
 20
-10
 11
192.1
 21
-10
  0
SOLID
  5
A3
100
AcDbEntity
  8
rozmir
  6
ByBlock
 62
    0
370
   -2
100
AcDbTrace
 10
150
 20
-10
 30
0
 11
152.5
 21
-9.58371534222716
 31
0
 12
152.5
 22
-10.41628465777284
 32
0
 13
152.5
 23
-10.41628465777284
 33
0
  0
SOLID
  5
A4
100
AcDbEntity
  8
rozmir
  6
ByBlock
 62
    0
370
   -2
100
AcDbTrace
 10
192.1
 20
-10
 30
0
 11
189.6
 21
-10.41628465777284
 31
0
 12
189.6
 22
-9.58371534222716
 32
0
 13
189.6
 23
-9.58371534222716
 33
0
  0
MTEXT
  5
A5
100
AcDbEntity
  8
rozmir
  6
CONTINUOUS
 62
    0
370
   -2
100
AcDbMText
 10
171.05
 20
-7.75
 30
0
 40
2.5
 41
5.694444444444445
 71
    5
 72
    1
  1
42,1
  7
standard
210
0
220
0
230
1
 50
0
 73
    2
 44
1
  0
LINE
  5
A6
100
AcDbEntity
  8
rozmir
  6
ByBlock
 62
    0
370
   -2
100
AcDbLine
 10
150
 20
-1
 11
150
 21
-12
  0
LINE
  5
A7
100
AcDbEntity
  8
rozmir
  6
ByBlock
 62
    0
370
   -2
100
AcDbLine
 10
192.1
 20
-1
 11
192.1
 21
-12
  0
ENDBLK
  5
56
330
54
100
AcDbEntity
  8
0
100
AcDbBlockEnd
  0
BLOCK
  5
58
330
57
100
AcDbEntity
  8
0
100
AcDbBlockBegin
  2
*D21
 70
    1
 10
0
 20
0
  3
*D21
  1

  0
LINE
  5
A8
100
AcDbEntity
  8
rozmir
  6
ByBlock
 62
    0
370
   -2
100
AcDbLine
 10
68
 20
136.3999999999999
 11
68
 21
70.40000000000001
  0
SOLID
  5
A9
100
AcDbEntity
  8
rozmir
  6
ByBlock
 62
    0
370
   -2
100
AcDbTrace
 10
68
 20
136.3999999999999
 30
0
 11
68.41628465777283
 21
133.8999999999999
 31
0
 12
67.58371534222717
 22
133.8999999999999
 32
0
 13
67.58371534222717
 23
133.8999999999999
 33
0
  0
SOLID
  5
AA
100
AcDbEntity
  8
rozmir
  6
ByBlock
 62
    0
370
   -2
100
AcDbTrace
 10
68
 20
70.40000000000001
 30
0
 11
67.58371534222717
 21
72.90000000000001
 31
0
 12
68.41628465777283
 22
72.90000000000001
 32
0
 13
68.41628465777283
 23
72.90000000000001
 33
0
  0
MTEXT
  5
AB
100
AcDbEntity
  8
rozmir
  6
CONTINUOUS
 62
    0
370
   -2
100
AcDbMText
 10
65.75
 20
103.3999999999999
 30
0
 40
2.5
 41
3.055555555555866
 71
    5
 72
    1
  1
66
  7
standard
210
0
220
0
230
1
 50
90
 73
    2
 44
1
  0
LINE
  5
AC
100
AcDbEntity
  8
rozmir
  6
ByBlock
 62
    0
370
   -2
100
AcDbLine
 10
74.50000000000018
 20
136.3999999999999
 11
66
 21
136.3999999999999
  0
LINE
  5
AD
100
AcDbEntity
  8
rozmir
  6
ByBlock
 62
    0
370
   -2
100
AcDbLine
 10
76.00000000000001
 20
70.40000000000001
 11
66
 21
70.40000000000001
  0
ENDBLK
  5
59
330
57
100
AcDbEntity
  8
0
100
AcDbBlockEnd
  0
BLOCK
  5
5B
330
5A
100
AcDbEntity
  8
0
100
AcDbBlockBegin
  2
*D26
 70
    1
 10
0
 20
0
  3
*D26
  1

  0
LINE
  5
AE
100
AcDbEntity
  8
rozmir
  6
ByBlock
 62
    0
370
   -2
100
AcDbLine
 10
220
 20
-68.69999999999997
 11
220
 21
-20
  0
SOLID
  5
AF
100
AcDbEntity
  8
rozmir
  6
ByBlock
 62
    0
370
   -2
100
AcDbTrace
 10
220
 20
-68.69999999999997
 30
0
 11
219.5837153422272
 21
-66.19999999999997
 31
0
 12
220.4162846577728
 22
-66.19999999999997
 32
0
 13
220.4162846577728
 23
-66.19999999999997
 33
0
  0
SOLID
  5
B0
100
AcDbEntity
  8
rozmir
  6
ByBlock
 62
    0
370
   -2
100
AcDbTrace
 10
220
 20
-20
 30
0
 11
220.4162846577728
 21
-22.5
 31
0
 12
219.5837153422272
 22
-22.5
 32
0
 13
219.5837153422272
 23
-22.5
 33
0
  0
MTEXT
  5
B1
100
AcDbEntity
  8
rozmir
  6
CONTINUOUS
 62
    0
370
   -2
100
AcDbMText
 10
217.75
 20
-44.34999999999999
 30
0
 40
2.5
 41
6.25
 71
    5
 72
    1
  1
48,7
  7
standard
210
0
220
0
230
1
 50
90
 73
    2
 44
1
  0
LINE
  5
B2
100
AcDbEntity
  8
rozmir
  6
ByBlock
 62
    0
370
   -2
100
AcDbLine
 10
216
 20
-68.69999999999997
 11
222
 21
-68.69999999999997
  0
LINE
  5
B3
100
AcDbEntity
  8
rozmir
  6
ByBlock
 62
    0
370
   -2
100
AcDbLine
 10
216
 20
-20
 11
222
 21
-20
  0
ENDBLK
  5
5C
330
5A
100
AcDbEntity
  8
0
100
AcDbBlockEnd
  0
BLOCK
  5
5E
330
5D
100
AcDbEntity
  8
0
100
AcDbBlockBegin
  2
*D3
 70
    1
 10
0
 20
0
  3
*D3
  1

  0
LINE
  5
B4
100
AcDbEntity
  8
rozmir
  6
ByBlock
 62
    0
370
   -2
100
AcDbLine
 10
80
 20
-10
 11
115.6
 21
-10
  0
SOLID
  5
B5
100
AcDbEntity
  8
rozmir
  6
ByBlock
 62
    0
370
   -2
100
AcDbTrace
 10
80
 20
-10
 30
0
 11
82.5
 21
-9.58371534222716
 31
0
 12
82.5
 22
-10.41628465777284
 32
0
 13
82.5
 23
-10.41628465777284
 33
0
  0
SOLID
  5
B6
100
AcDbEntity
  8
rozmir
  6
ByBlock
 62
    0
370
   -2
100
AcDbTrace
 10
115.6
 20
-10
 30
0
 11
113.1
 21
-10.41628465777284
 31
0
 12
113.1
 22
-9.58371534222716
 32
0
 13
113.1
 23
-9.58371534222716
 33
0
  0
MTEXT
  5
B7
100
AcDbEntity
  8
rozmir
  6
CONTINUOUS
 62
    0
370
   -2
100
AcDbMText
 10
97.8
 20
-7.75
 30
0
 40
2.5
 41
5.972222222222687
 71
    5
 72
    1
  1
35,6
  7
standard
210
0
220
0
230
1
 50
0
 73
    2
 44
1
  0
LINE
  5
B8
100
AcDbEntity
  8
rozmir
  6
ByBlock
 62
    0
370
   -2
100
AcDbLine
 10
80
 20
-1
 11
80
 21
-12
  0
LINE
  5
B9
100
AcDbEntity
  8
rozmir
  6
ByBlock
 62
    0
370
   -2
100
AcDbLine
 10
115.6
 20
-1
 11
115.6
 21
-12
  0
ENDBLK
  5
5F
330
5D
100
AcDbEntity
  8
0
100
AcDbBlockEnd
  0
BLOCK
  5
61
330
60
100
AcDbEntity
  8
0
100
AcDbBlockBegin
  2
*D12
 70
    1
 10
0
 20
0
  3
*D12
  1

  0
LINE
  5
BA
100
AcDbEntity
  8
rozmir
  6
ByBlock
 62
    0
370
   -2
100
AcDbLine
 10
45.6
 20
-67
 11
34.59999999999999
 21
-67
  0
SOLID
  5
BB
100
AcDbEntity
  8
rozmir
  6
ByBlock
 62
    0
370
   -2
100
AcDbTrace
 10
45.6
 20
-67
 30
0
 11
43.1
 21
-67.41628465777283
 31
0
 12
43.1
 22
-66.58371534222717
 32
0
 13
43.1
 23
-66.58371534222717
 33
0
  0
SOLID
  5
BC
100
AcDbEntity
  8
rozmir
  6
ByBlock
 62
    0
370
   -2
100
AcDbTrace
 10
34.59999999999999
 20
-67
 30
0
 11
37.09999999999999
 21
-66.58371534222717
 31
0
 12
37.09999999999999
 22
-67.41628465777283
 32
0
 13
37.09999999999999
 23
-67.41628465777283
 33
0
  0
MTEXT
  5
BD
100
AcDbEntity
  8
rozmir
  6
CONTINUOUS
 62
    0
370
   -2
100
AcDbMText
 10
40.09999999999999
 20
-64.75
 30
0
 40
2.5
 41
1.944444444444444
 71
    5
 72
    1
  1
11
  7
standard
210
0
220
0
230
1
 50
360
 73
    2
 44
1
  0
LINE
  5
BE
100
AcDbEntity
  8
rozmir
  6
ByBlock
 62
    0
370
   -2
100
AcDbLine
 10
45.6
 20
-61
 11
45.6
 21
-69
  0
LINE
  5
BF
100
AcDbEntity
  8
rozmir
  6
ByBlock
 62
    0
370
   -2
100
AcDbLine
 10
34.59999999999999
 20
-59.50000000000002
 11
34.59999999999999
 21
-69
  0
ENDBLK
  5
62
330
60
100
AcDbEntity
  8
0
100
AcDbBlockEnd
  0
BLOCK
  5
64
330
63
100
AcDbEntity
  8
0
100
AcDbBlockBegin
  2
*D16
 70
    1
 10
0
 20
0
  3
*D16
  1

  0
LINE
  5
C0
100
AcDbEntity
  8
rozmir
  6
ByBlock
 62
    0
370
   -2
100
AcDbLine
 10
197
 20
50.40000000000001
 11
197
 21
26
  0
SOLID
  5
C1
100
AcDbEntity
  8
rozmir
  6
ByBlock
 62
    0
370
   -2
100
AcDbTrace
 10
197
 20
50.40000000000001
 30
0
 11
197.4162846577728
 21
47.90000000000001
 31
0
 12
196.5837153422272
 22
47.90000000000001
 32
0
 13
196.5837153422272
 23
47.90000000000001
 33
0
  0
SOLID
  5
C2
100
AcDbEntity
  8
rozmir
  6
ByBlock
 62
    0
370
   -2
100
AcDbTrace
 10
197
 20
26
 30
0
 11
196.5837153422272
 21
28.5
 31
0
 12
197.4162846577728
 22
28.5
 32
0
 13
197.4162846577728
 23
28.5
 33
0
  0
MTEXT
  5
C3
100
AcDbEntity
  8
rozmir
  6
CONTINUOUS
 62
    0
370
   -2
100
AcDbMText
 10
194.75
 20
38.2
 30
0
 40
2.5
 41
6.527777777777778
 71
    5
 72
    1
  1
24,4
  7
standard
210
0
220
0
230
1
 50
90
 73
    2
 44
1
  0
LINE
  5
C4
100
AcDbEntity
  8
rozmir
  6
ByBlock
 62
    0
370
   -2
100
AcDbLine
 10
193
 20
50.40000000000001
 11
199
 21
50.40000000000001
  0
LINE
  5
C5
100
AcDbEntity
  8
rozmir
  6
ByBlock
 62
    0
370
   -2
100
AcDbLine
 10
191.6
 20
26
 11
199
 21
26
  0
ENDBLK
  5
65
330
63
100
AcDbEntity
  8
0
100
AcDbBlockEnd
  0
BLOCK
  5
67
330
66
100
AcDbEntity
  8
0
100
AcDbBlockBegin
  2
*D25
 70
    1
 10
0
 20
0
  3
*D25
  1

  0
LINE
  5
C6
100
AcDbEntity
  8
rozmir
  6
ByBlock
 62
    0
370
   -2
100
AcDbLine
 10
170
 20
-74
 11
215
 21
-74
  0
SOLID
  5
C7
100
AcDbEntity
  8
rozmir
  6
ByBlock
 62
    0
370
   -2
100
AcDbTrace
 10
170
 20
-74
 30
0
 11
172.5
 21
-73.58371534222717
 31
0
 12
172.5
 22
-74.41628465777283
 32
0
 13
172.5
 23
-74.41628465777283
 33
0
  0
SOLID
  5
C8
100
AcDbEntity
  8
rozmir
  6
ByBlock
 62
    0
370
   -2
100
AcDbTrace
 10
215
 20
-74
 30
0
 11
212.5
 21
-74.41628465777283
 31
0
 12
212.5
 22
-73.58371534222717
 32
0
 13
212.5
 23
-73.58371534222717
 33
0
  0
MTEXT
  5
C9
100
AcDbEntity
  8
rozmir
  6
CONTINUOUS
 62
    0
370
   -2
100
AcDbMText
 10
192.5
 20
-71.75
 30
0
 40
2.5
 41
3.333333333333488
 71
    5
 72
    1
  1
45
  7
standard
210
0
220
0
230
1
 50
0
 73
    2
 44
1
  0
LINE
  5
CA
100
AcDbEntity
  8
rozmir
  6
ByBlock
 62
    0
370
   -2
100
AcDbLine
 10
170
 20
-69.69999999999997
 11
170
 21
-76
  0
LINE
  5
CB
100
AcDbEntity
  8
rozmir
  6
ByBlock
 62
    0
370
   -2
100
AcDbLine
 10
215
 20
-69.69999999999997
 11
215
 21
-76
  0
ENDBLK
  5
68
330
66
100
AcDbEntity
  8
0
100
AcDbBlockEnd
  0
BLOCK
  5
6A
330
69
100
AcDbEntity
  8
0
100
AcDbBlockBegin
  2
*D10
 70
    1
 10
0
 20
0
  3
*D10
  1

  0
LINE
  5
CC
100
AcDbEntity
  8
rozmir
  6
ByBlock
 62
    0
370
   -2
100
AcDbLine
 10
0
 20
-80
 11
45.6
 21
-80
  0
SOLID
  5
CD
100
AcDbEntity
  8
rozmir
  6
ByBlock
 62
    0
370
   -2
100
AcDbTrace
 10
0
 20
-80
 30
0
 11
2.5
 21
-79.58371534222717
 31
0
 12
2.5
 22
-80.41628465777283
 32
0
 13
2.5
 23
-80.41628465777283
 33
0
  0
SOLID
  5
CE
100
AcDbEntity
  8
rozmir
  6
ByBlock
 62
    0
370
   -2
100
AcDbTrace
 10
45.6
 20
-80
 30
0
 11
43.1
 21
-80.41628465777283
 31
0
 12
43.1
 22
-79.58371534222717
 32
0
 13
43.1
 23
-79.58371534222717
 33
0
  0
MTEXT
  5
CF
100
AcDbEntity
  8
rozmir
  6
CONTINUOUS
 62
    0
370
   -2
100
AcDbMText
 10
22.8
 20
-77.75
 30
0
 40
2.5
 41
6.250000000000311
 71
    5
 72
    1
  1
45,6
  7
standard
210
0
220
0
230
1
 50
0
 73
    2
 44
1
  0
LINE
  5
D0
100
AcDbEntity
  8
rozmir
  6
ByBlock
 62
    0
370
   -2
100
AcDbLine
 10
4.269256436717331e-16
 20
-61
 11
-3.673940397442059e-16
 21
-82
  0
LINE
  5
D1
100
AcDbEntity
  8
rozmir
  6
ByBlock
 62
    0
370
   -2
100
AcDbLine
 10
45.6
 20
-61
 11
45.6
 21
-82
  0
ENDBLK
  5
6B
330
69
100
AcDbEntity
  8
0
100
AcDbBlockEnd
  0
BLOCK
  5
6D
330
6C
100
AcDbEntity
  8
0
100
AcDbBlockBegin
  2
*D11
 70
    1
 10
0
 20
0
  3
*D11
  1

  0
LINE
  5
D2
100
AcDbEntity
  8
rozmir
  6
ByBlock
 62
    0
370
   -2
100
AcDbLine
 10
0
 20
-67
 11
11
 21
-67
  0
SOLID
  5
D3
100
AcDbEntity
  8
rozmir
  6
ByBlock
 62
    0
370
   -2
100
AcDbTrace
 10
0
 20
-67
 30
0
 11
2.5
 21
-66.58371534222717
 31
0
 12
2.5
 22
-67.41628465777283
 32
0
 13
2.5
 23
-67.41628465777283
 33
0
  0
SOLID
  5
D4
100
AcDbEntity
  8
rozmir
  6
ByBlock
 62
    0
370
   -2
100
AcDbTrace
 10
11
 20
-67
 30
0
 11
8.5
 21
-67.41628465777283
 31
0
 12
8.5
 22
-66.58371534222717
 32
0
 13
8.5
 23
-66.58371534222717
 33
0
  0
MTEXT
  5
D5
100
AcDbEntity
  8
rozmir
  6
CONTINUOUS
 62
    0
370
   -2
100
AcDbMText
 10
5.5
 20
-64.75
 30
0
 40
2.5
 41
1.944444444444444
 71
    5
 72
    1
  1
11
  7
standard
210
0
220
0
230
1
 50
0
 73
    2
 44
1
  0
LINE
  5
D6
100
AcDbEntity
  8
rozmir
  6
ByBlock
 62
    0
370
   -2
100
AcDbLine
 10
-1.83697019872103e-16
 20
-61
 11
-3.673940397442059e-16
 21
-69
  0
LINE
  5
D7
100
AcDbEntity
  8
rozmir
  6
ByBlock
 62
    0
370
   -2
100
AcDbLine
 10
11
 20
-59.50000000000001
 11
11
 21
-69
  0
ENDBLK
  5
6E
330
6C
100
AcDbEntity
  8
0
100
AcDbBlockEnd
  0
BLOCK
  5
70
330
6F
100
AcDbEntity
  8
0
100
AcDbBlockBegin
  2
*D18
 70
    1
 10
0
 20
0
  3
*D18
  1

  0
LINE
  5
D8
100
AcDbEntity
  8
rozmir
  6
ByBlock
 62
    0
370
   -2
100
AcDbLine
 10
50
 20
136
 11
50
 21
88.5
  0
SOLID
  5
D9
100
AcDbEntity
  8
rozmir
  6
ByBlock
 62
    0
370
   -2
100
AcDbTrace
 10
50
 20
136
 30
0
 11
50.41628465777284
 21
133.5
 31
0
 12
49.58371534222716
 22
133.5
 32
0
 13
49.58371534222716
 23
133.5
 33
0
  0
SOLID
  5
DA
100
AcDbEntity
  8
rozmir
  6
ByBlock
 62
    0
370
   -2
100
AcDbTrace
 10
50
 20
88.5
 30
0
 11
49.58371534222716
 21
91
 31
0
 12
50.41628465777284
 22
91
 32
0
 13
50.41628465777284
 23
91
 33
0
  0
MTEXT
  5
DB
100
AcDbEntity
  8
rozmir
  6
CONTINUOUS
 62
    0
370
   -2
100
AcDbMText
 10
47.75
 20
112.25
 30
0
 40
2.5
 41
6.250000000000156
 71
    5
 72
    1
  1
47,5
  7
standard
210
0
220
0
230
1
 50
90
 73
    2
 44
1
  0
LINE
  5
DC
100
AcDbEntity
  8
rozmir
  6
ByBlock
 62
    0
370
   -2
100
AcDbLine
 10
46.6
 20
136
 11
52
 21
136
  0
LINE
  5
DD
100
AcDbEntity
  8
rozmir
  6
ByBlock
 62
    0
370
   -2
100
AcDbLine
 10
45.1
 20
88.5
 11
52
 21
88.5
  0
ENDBLK
  5
71
330
6F
100
AcDbEntity
  8
0
100
AcDbBlockEnd
  0
BLOCK
  5
73
330
72
100
AcDbEntity
  8
0
100
AcDbBlockBegin
  2
*D8
 70
    1
 10
0
 20
0
  3
*D8
  1

  0
LINE
  5
DE
100
AcDbEntity
  8
rozmir
  6
ByBlock
 62
    0
370
   -2
100
AcDbLine
 10
125
 20
82
 11
125
 21
16.5
  0
SOLID
  5
DF
100
AcDbEntity
  8
rozmir
  6
ByBlock
 62
    0
370
   -2
100
AcDbTrace
 10
125
 20
82
 30
0
 11
125.4162846577728
 21
79.5
 31
0
 12
124.5837153422272
 22
79.5
 32
0
 13
124.5837153422272
 23
79.5
 33
0
  0
SOLID
  5
E0
100
AcDbEntity
  8
rozmir
  6
ByBlock
 62
    0
370
   -2
100
AcDbTrace
 10
125
 20
16.5
 30
0
 11
124.5837153422272
 21
19
 31
0
 12
125.4162846577728
 22
19
 32
0
 13
125.4162846577728
 23
19
 33
0
  0
MTEXT
  5
E1
100
AcDbEntity
  8
rozmir
  6
CONTINUOUS
 62
    0
370
   -2
100
AcDbMText
 10
122.75
 20
49.25
 30
0
 40
2.5
 41
5.972222222222687
 71
    5
 72
    1
  1
65,5
  7
standard
210
0
220
0
230
1
 50
90
 73
    2
 44
1
  0
LINE
  5
E2
100
AcDbEntity
  8
rozmir
  6
ByBlock
 62
    0
370
   -2
100
AcDbLine
 10
116.6
 20
82
 11
127
 21
82
  0
LINE
  5
E3
100
AcDbEntity
  8
rozmir
  6
ByBlock
 62
    0
370
   -2
100
AcDbLine
 10
115.1
 20
16.5
 11
127
 21
16.5
  0
ENDBLK
  5
74
330
72
100
AcDbEntity
  8
0
100
AcDbBlockEnd
  0
BLOCK
  5
76
330
75
100
AcDbEntity
  8
0
100
AcDbBlockBegin
  2
*D24
 70
    1
 10
0
 20
0
  3
*D24
  1

  0
LINE
  5
E4
100
AcDbEntity
  8
rozmir
  6
ByBlock
 62
    0
370
   -2
100
AcDbLine
 10
110
 20
-86.40000000000002
 11
110
 21
-20.00000000000001
  0
SOLID
  5
E5
100
AcDbEntity
  8
rozmir
  6
ByBlock
 62
    0
370
   -2
100
AcDbTrace
 10
110
 20
-86.40000000000002
 30
0
 11
109.5837153422272
 21
-83.90000000000002
 31
0
 12
110.4162846577728
 22
-83.90000000000002
 32
0
 13
110.4162846577728
 23
-83.90000000000002
 33
0
  0
SOLID
  5
E6
100
AcDbEntity
  8
rozmir
  6
ByBlock
 62
    0
370
   -2
100
AcDbTrace
 10
110
 20
-20.00000000000001
 30
0
 11
110.4162846577728
 21
-22.50000000000001
 31
0
 12
109.5837153422272
 22
-22.50000000000001
 32
0
 13
109.5837153422272
 23
-22.50000000000001
 33
0
  0
MTEXT
  5
E7
100
AcDbEntity
  8
rozmir
  6
CONTINUOUS
 62
    0
370
   -2
100
AcDbMText
 10
107.75
 20
-53.20000000000002
 30
0
 40
2.5
 41
6.25000000000031
 71
    5
 72
    1
  1
66,4
  7
standard
210
0
220
0
230
1
 50
90
 73
    2
 44
1
  0
LINE
  5
E8
100
AcDbEntity
  8
rozmir
  6
ByBlock
 62
    0
370
   -2
100
AcDbLine
 10
106
 20
-86.40000000000002
 11
112
 21
-86.40000000000002
  0
LINE
  5
E9
100
AcDbEntity
  8
rozmir
  6
ByBlock
 62
    0
370
   -2
100
AcDbLine
 10
106
 20
-20.00000000000001
 11
112
 21
-20.00000000000001
  0
ENDBLK
  5
77
330
75
100
AcDbEntity
  8
0
100
AcDbBlockEnd
  0
BLOCK
  5
79
330
78
100
AcDbEntity
  8
0
100
AcDbBlockBegin
  2
*D1
 70
    1
 10
0
 20
0
  3
*D1
  1

  0
LINE
  5
EA
100
AcDbEntity
  8
rozmir
  6
ByBlock
 62
    0
370
   -2
100
AcDbLine
 10
-9.999999999999998
 20
-24.4
 11
-10
 21
-60
  0
SOLID
  5
EB
100
AcDbEntity
  8
rozmir
  6
ByBlock
 62
    0
370
   -2
100
AcDbTrace
 10
-9.999999999999998
 20
-24.4
 30
0
 11
-9.583715342227158
 21
-26.9
 31
0
 12
-10.41628465777284
 22
-26.9
 32
0
 13
-10.41628465777284
 23
-26.9
 33
0
  0
SOLID
  5
EC
100
AcDbEntity
  8
rozmir
  6
ByBlock
 62
    0
370
   -2
100
AcDbTrace
 10
-10
 20
-60
 30
0
 11
-10.41628465777284
 21
-57.5
 31
0
 12
-9.583715342227158
 22
-57.5
 32
0
 13
-9.583715342227158
 23
-57.5
 33
0
  0
MTEXT
  5
ED
100
AcDbEntity
  8
rozmir
  6
CONTINUOUS
 62
    0
370
   -2
100
AcDbMText
 10
-12.25
 20
-42.2
 30
0
 40
2.5
 41
5.972222222222687
 71
    5
 72
    1
  1
35,6
  7
standard
210
0
220
0
230
1
 50
90
 73
    2
 44
1
  0
LINE
  5
EE
100
AcDbEntity
  8
rozmir
  6
ByBlock
 62
    0
370
   -2
100
AcDbLine
 10
-1
 20
-24.4
 11
-12
 21
-24.4
  0
LINE
  5
EF
100
AcDbEntity
  8
rozmir
  6
ByBlock
 62
    0
370
   -2
100
AcDbLine
 10
-1
 20
-60
 11
-12
 21
-60
  0
ENDBLK
  5
7A
330
78
100
AcDbEntity
  8
0
100
AcDbBlockEnd
  0
BLOCK
  5
7C
330
7B
100
AcDbEntity
  8
0
100
AcDbBlockBegin
  2
*D5
 70
    1
 10
0
 20
0
  3
*D5
  1

  0
LINE
  5
F0
100
AcDbEntity
  8
rozmir
  6
ByBlock
 62
    0
370
   -2
100
AcDbLine
 10
0
 20
-10
 11
45.6
 21
-10
  0
SOLID
  5
F1
100
AcDbEntity
  8
rozmir
  6
ByBlock
 62
    0
370
   -2
100
AcDbTrace
 10
0
 20
-10
 30
0
 11
2.5
 21
-9.58371534222716
 31
0
 12
2.5
 22
-10.41628465777284
 32
0
 13
2.5
 23
-10.41628465777284
 33
0
  0
SOLID
  5
F2
100
AcDbEntity
  8
rozmir
  6
ByBlock
 62
    0
370
   -2
100
AcDbTrace
 10
45.6
 20
-10
 30
0
 11
43.1
 21
-10.41628465777284
 31
0
 12
43.1
 22
-9.58371534222716
 32
0
 13
43.1
 23
-9.58371534222716
 33
0
  0
MTEXT
  5
F3
100
AcDbEntity
  8
rozmir
  6
CONTINUOUS
 62
    0
370
   -2
100
AcDbMText
 10
22.8
 20
-7.75
 30
0
 40
2.5
 41
6.250000000000311
 71
    5
 72
    1
  1
45,6
  7
standard
210
0
220
0
230
1
 50
0
 73
    2
 44
1
  0
LINE
  5
F4
100
AcDbEntity
  8
rozmir
  6
ByBlock
 62
    0
370
   -2
100
AcDbLine
 10
-1.83697019872103e-16
 20
-1
 11
-3.673940397442059e-16
 21
-12
  0
LINE
  5
F5
100
AcDbEntity
  8
rozmir
  6
ByBlock
 62
    0
370
   -2
100
AcDbLine
 10
45.6
 20
-1
 11
45.6
 21
-12
  0
ENDBLK
  5
7D
330
7B
100
AcDbEntity
  8
0
100
AcDbBlockEnd
  0
BLOCK
  5
7F
330
7E
100
AcDbEntity
  8
0
100
AcDbBlockBegin
  2
*D20
 70
    1
 10
0
 20
0
  3
*D20
  1

  0
LINE
  5
F6
100
AcDbEntity
  8
rozmir
  6
ByBlock
 62
    0
370
   -2
100
AcDbLine
 10
73
 20
70.39999999999986
 11
73
 21
78.00000000000001
  0
SOLID
  5
F7
100
AcDbEntity
  8
rozmir
  6
ByBlock
 62
    0
370
   -2
100
AcDbTrace
 10
73
 20
70.39999999999986
 30
0
 11
72.58371534222717
 21
72.89999999999986
 31
0
 12
73.41628465777283
 22
72.89999999999986
 32
0
 13
73.41628465777283
 23
72.89999999999986
 33
0
  0
SOLID
  5
F8
100
AcDbEntity
  8
rozmir
  6
ByBlock
 62
    0
370
   -2
100
AcDbTrace
 10
73
 20
78.00000000000001
 30
0
 11
73.41628465777283
 21
75.50000000000001
 31
0
 12
72.58371534222717
 22
75.50000000000001
 32
0
 13
72.58371534222717
 23
75.50000000000001
 33
0
  0
MTEXT
  5
F9
100
AcDbEntity
  8
rozmir
  6
CONTINUOUS
 62
    0
370
   -2
100
AcDbMText
 10
70.75
 20
74.19999999999993
 30
0
 40
2.5
 41
4.027777777777933
 71
    5
 72
    1
  1
7,6
  7
standard
210
0
220
0
230
1
 50
90
 73
    2
 44
1
  0
LINE
  5
FA
100
AcDbEntity
  8
rozmir
  6
ByBlock
 62
    0
370
   -2
100
AcDbLine
 10
76.0000000000002
 20
70.39999999999986
 11
71
 21
70.39999999999986
  0
LINE
  5
FB
100
AcDbEntity
  8
rozmir
  6
ByBlock
 62
    0
370
   -2
100
AcDbLine
 10
76.0000000000002
 20
78.00000000000001
 11
71
 21
78.00000000000001
  0
ENDBLK
  5
80
330
7E
100
AcDbEntity
  8
0
100
AcDbBlockEnd
  0
BLOCK
  5
82
330
81
100
AcDbEntity
  8
0
100
AcDbBlockBegin
  2
*D7
 70
    1
 10
0
 20
0
  3
*D7
  1

  0
LINE
  5
FC
100
AcDbEntity
  8
rozmir
  6
ByBlock
 62
    0
370
   -2
100
AcDbLine
 10
120
 20
82
 11
120
 21
49
  0
SOLID
  5
FD
100
AcDbEntity
  8
rozmir
  6
ByBlock
 62
    0
370
   -2
100
AcDbTrace
 10
120
 20
82
 30
0
 11
120.4162846577728
 21
79.5
 31
0
 12
119.5837153422272
 22
79.5
 32
0
 13
119.5837153422272
 23
79.5
 33
0
  0
SOLID
  5
FE
100
AcDbEntity
  8
rozmir
  6
ByBlock
 62
    0
370
   -2
100
AcDbTrace
 10
120
 20
49
 30
0
 11
119.5837153422272
 21
51.5
 31
0
 12
120.4162846577728
 22
51.5
 32
0
 13
120.4162846577728
 23
51.5
 33
0
  0
MTEXT
  5
FF
100
AcDbEntity
  8
rozmir
  6
CONTINUOUS
 62
    0
370
   -2
100
AcDbMText
 10
117.75
 20
65.5
 30
0
 40
2.5
 41
3.055555555555866
 71
    5
 72
    1
  1
33
  7
standard
210
0
220
0
230
1
 50
90
 73
    2
 44
1
  0
LINE
  5
100
100
AcDbEntity
  8
rozmir
  6
ByBlock
 62
    0
370
   -2
100
AcDbLine
 10
116.6
 20
82
 11
122
 21
82
  0
LINE
  5
101
100
AcDbEntity
  8
rozmir
  6
ByBlock
 62
    0
370
   -2
100
AcDbLine
 10
115.1
 20
49
 11
122
 21
49
  0
ENDBLK
  5
83
330
81
100
AcDbEntity
  8
0
100
AcDbBlockEnd
  0
BLOCK
  5
85
330
84
100
AcDbEntity
  8
0
100
AcDbBlockBegin
  2
*D6
 70
    1
 10
0
 20
0
  3
*D6
  1

  0
LINE
  5
102
100
AcDbEntity
  8
rozmir
  6
ByBlock
 62
    0
370
   -2
100
AcDbLine
 10
132
 20
82.00000000000003
 11
132
 21
2.775557561562891e-17
  0
SOLID
  5
103
100
AcDbEntity
  8
rozmir
  6
ByBlock
 62
    0
370
   -2
100
AcDbTrace
 10
132
 20
82.00000000000003
 30
0
 11
132.4162846577728
 21
79.50000000000003
 31
0
 12
131.5837153422272
 22
79.50000000000003
 32
0
 13
131.5837153422272
 23
79.50000000000003
 33
0
  0
SOLID
  5
104
100
AcDbEntity
  8
rozmir
  6
ByBlock
 62
    0
370
   -2
100
AcDbTrace
 10
132
 20
2.775557561562891e-17
 30
0
 11
131.5837153422272
 21
2.5
 31
0
 12
132.4162846577728
 22
2.5
 32
0
 13
132.4162846577728
 23
2.5
 33
0
  0
MTEXT
  5
105
100
AcDbEntity
  8
rozmir
  6
CONTINUOUS
 62
    0
370
   -2
100
AcDbMText
 10
129.75
 20
41.00000000000001
 30
0
 40
2.5
 41
3.055555555555556
 71
    5
 72
    1
  1
82
  7
standard
210
0
220
0
230
1
 50
90
 73
    2
 44
1
  0
LINE
  5
106
100
AcDbEntity
  8
rozmir
  6
ByBlock
 62
    0
370
   -2
100
AcDbLine
 10
116.6
 20
82.00000000000001
 11
134
 21
82.00000000000003
  0
LINE
  5
107
100
AcDbEntity
  8
rozmir
  6
ByBlock
 62
    0
370
   -2
100
AcDbLine
 10
116.6
 20
2.775557561562891e-17
 11
134
 21
2.775557561562891e-17
  0
ENDBLK
  5
86
330
84
100
AcDbEntity
  8
0
100
AcDbBlockEnd
  0
BLOCK
  5
88
330
87
100
AcDbEntity
  8
0
100
AcDbBlockBegin
  2
*D19
 70
    1
 10
0
 20
0
  3
*D19
  1

  0
LINE
  5
108
100
AcDbEntity
  8
rozmir
  6
ByBlock
 62
    0
370
   -2
100
AcDbLine
 10
86
 20
78
 11
86
 21
68
  0
SOLID
  5
109
100
AcDbEntity
  8
rozmir
  6
ByBlock
 62
    0
370
   -2
100
AcDbTrace
 10
86
 20
78
 30
0
 11
86.41628465777283
 21
75.5
 31
0
 12
85.58371534222717
 22
75.5
 32
0
 13
85.58371534222717
 23
75.5
 33
0
  0
SOLID
  5
10A
100
AcDbEntity
  8
rozmir
  6
ByBlock
 62
    0
370
   -2
100
AcDbTrace
 10
86
 20
68
 30
0
 11
85.58371534222717
 21
70.5
 31
0
 12
86.41628465777283
 22
70.5
 32
0
 13
86.41628465777283
 23
70.5
 33
0
  0
MTEXT
  5
10B
100
AcDbEntity
  8
rozmir
  6
CONTINUOUS
 62
    0
370
   -2
100
AcDbMText
 10
83.75
 20
73
 30
0
 40
2.5
 41
2.5
 71
    5
 72
    1
  1
10
  7
standard
210
0
220
0
230
1
 50
90
 73
    2
 44
1
  0
LINE
  5
10C
100
AcDbEntity
  8
rozmir
  6
ByBlock
 62
    0
370
   -2
100
AcDbLine
 10
81
 20
78
 11
88
 21
78
  0
LINE
  5
10D
100
AcDbEntity
  8
rozmir
  6
ByBlock
 62
    0
370
   -2
100
AcDbLine
 10
81
 20
68
 11
88
 21
68
  0
ENDBLK
  5
89
330
87
100
AcDbEntity
  8
0
100
AcDbBlockEnd
  0
BLOCK
  5
8B
330
8A
100
AcDbEntity
  8
0
100
AcDbBlockBegin
  2
*D13
 70
    1
 10
0
 20
0
  3
*D13
  1

  0
LINE
  5
10E
100
AcDbEntity
  8
rozmir
  6
ByBlock
 62
    0
370
   -2
100
AcDbLine
 10
45.59999999999999
 20
-72
 11
23.6
 21
-72
  0
SOLID
  5
10F
100
AcDbEntity
  8
rozmir
  6
ByBlock
 62
    0
370
   -2
100
AcDbTrace
 10
45.59999999999999
 20
-72
 30
0
 11
43.09999999999999
 21
-72.41628465777283
 31
0
 12
43.09999999999999
 22
-71.58371534222717
 32
0
 13
43.09999999999999
 23
-71.58371534222717
 33
0
  0
SOLID
  5
110
100
AcDbEntity
  8
rozmir
  6
ByBlock
 62
    0
370
   -2
100
AcDbTrace
 10
23.6
 20
-72
 30
0
 11
26.1
 21
-71.58371534222717
 31
0
 12
26.1
 22
-72.41628465777283
 32
0
 13
26.1
 23
-72.41628465777283
 33
0
  0
MTEXT
  5
111
100
AcDbEntity
  8
rozmir
  6
CONTINUOUS
 62
    0
370
   -2
100
AcDbMText
 10
34.59999999999999
 20
-69.75
 30
0
 40
2.5
 41
3.055555555555556
 71
    5
 72
    1
  1
22
  7
standard
210
0
220
0
230
1
 50
360
 73
    2
 44
1
  0
LINE
  5
112
100
AcDbEntity
  8
rozmir
  6
ByBlock
 62
    0
370
   -2
100
AcDbLine
 10
45.59999999999999
 20
-59.50000000000001
 11
45.59999999999999
 21
-74
  0
LINE
  5
113
100
AcDbEntity
  8
rozmir
  6
ByBlock
 62
    0
370
   -2
100
AcDbLine
 10
23.6
 20
-59.50000000000004
 11
23.6
 21
-74
  0
ENDBLK
  5
8C
330
8A
100
AcDbEntity
  8
0
100
AcDbBlockEnd
  0
BLOCK
  5
8E
330
8D
100
AcDbEntity
  8
0
100
AcDbBlockBegin
  2
*D4
 70
    1
 10
0
 20
0
  3
*D4
  1

  0
LINE
  5
114
100
AcDbEntity
  8
rozmir
  6
ByBlock
 62
    0
370
   -2
100
AcDbLine
 10
1.5
 20
-5.000000000000003
 11
44.1
 21
-5.000000000000003
  0
SOLID
  5
115
100
AcDbEntity
  8
rozmir
  6
ByBlock
 62
    0
370
   -2
100
AcDbTrace
 10
1.5
 20
-5.000000000000003
 30
0
 11
4
 21
-4.583715342227163
 31
0
 12
4
 22
-5.416284657772843
 32
0
 13
4
 23
-5.416284657772843
 33
0
  0
SOLID
  5
116
100
AcDbEntity
  8
rozmir
  6
ByBlock
 62
    0
370
   -2
100
AcDbTrace
 10
44.1
 20
-5.000000000000003
 30
0
 11
41.6
 21
-5.416284657772843
 31
0
 12
41.6
 22
-4.583715342227162
 32
0
 13
41.6
 23
-4.583715342227162
 33
0
  0
MTEXT
  5
117
100
AcDbEntity
  8
rozmir
  6
CONTINUOUS
 62
    0
370
   -2
100
AcDbMText
 10
22.8
 20
-2.750000000000003
 30
0
 40
2.5
 41
6.250000000000156
 71
    5
 72
    1
  1
42,6
  7
standard
210
0
220
0
230
1
 50
0
 73
    2
 44
1
  0
LINE
  5
118
100
AcDbEntity
  8
rozmir
  6
ByBlock
 62
    0
370
   -2
100
AcDbLine
 10
1.5
 20
-1
 11
1.5
 21
-7.000000000000003
  0
LINE
  5
119
100
AcDbEntity
  8
rozmir
  6
ByBlock
 62
    0
370
   -2
100
AcDbLine
 10
44.1
 20
-1
 11
44.1
 21
-7.000000000000003
  0
ENDBLK
  5
8F
330
8D
100
AcDbEntity
  8
0
100
AcDbBlockEnd
  0
BLOCK
  5
91
330
90
100
AcDbEntity
  8
0
100
AcDbBlockBegin
  2
*D2
 70
    1
 10
0
 20
0
  3
*D2
  1

  0
LINE
  5
11A
100
AcDbEntity
  8
rozmir
  6
ByBlock
 62
    0
370
   -2
100
AcDbLine
 10
81.5
 20
-5
 11
114.1
 21
-5
  0
SOLID
  5
11B
100
AcDbEntity
  8
rozmir
  6
ByBlock
 62
    0
370
   -2
100
AcDbTrace
 10
81.5
 20
-5
 30
0
 11
84
 21
-4.58371534222716
 31
0
 12
84
 22
-5.416284657772841
 32
0
 13
84
 23
-5.416284657772841
 33
0
  0
SOLID
  5
11C
100
AcDbEntity
  8
rozmir
  6
ByBlock
 62
    0
370
   -2
100
AcDbTrace
 10
114.1
 20
-5
 30
0
 11
111.6
 21
-5.416284657772841
 31
0
 12
111.6
 22
-4.583715342227159
 32
0
 13
111.6
 23
-4.583715342227159
 33
0
  0
MTEXT
  5
11D
100
AcDbEntity
  8
rozmir
  6
CONTINUOUS
 62
    0
370
   -2
100
AcDbMText
 10
97.8
 20
-2.75
 30
0
 40
2.5
 41
5.972222222222532
 71
    5
 72
    1
  1
32,6
  7
standard
210
0
220
0
230
1
 50
0
 73
    2
 44
1
  0
LINE
  5
11E
100
AcDbEntity
  8
rozmir
  6
ByBlock
 62
    0
370
   -2
100
AcDbLine
 10
81.5
 20
-1
 11
81.5
 21
-7
  0
LINE
  5
11F
100
AcDbEntity
  8
rozmir
  6
ByBlock
 62
    0
370
   -2
100
AcDbLine
 10
114.1
 20
-1
 11
114.1
 21
-7
  0
ENDBLK
  5
92
330
90
100
AcDbEntity
  8
0
100
AcDbBlockEnd
  0
BLOCK
  5
94
330
93
100
AcDbEntity
  8
0
100
AcDbBlockBegin
  2
*D15
 70
    1
 10
0
 20
0
  3
*D15
  1

  0
LINE
  5
120
100
AcDbEntity
  8
rozmir
  6
ByBlock
 62
    0
370
   -2
100
AcDbLine
 10
151.5
 20
-5
 11
190.6
 21
-5
  0
SOLID
  5
121
100
AcDbEntity
  8
rozmir
  6
ByBlock
 62
    0
370
   -2
100
AcDbTrace
 10
151.5
 20
-5
 30
0
 11
154
 21
-4.58371534222716
 31
0
 12
154
 22
-5.416284657772841
 32
0
 13
154
 23
-5.416284657772841
 33
0
  0
SOLID
  5
122
100
AcDbEntity
  8
rozmir
  6
ByBlock
 62
    0
370
   -2
100
AcDbTrace
 10
190.6
 20
-5
 30
0
 11
188.1
 21
-5.416284657772841
 31
0
 12
188.1
 22
-4.583715342227159
 32
0
 13
188.1
 23
-4.583715342227159
 33
0
  0
MTEXT
  5
123
100
AcDbEntity
  8
rozmir
  6
CONTINUOUS
 62
    0
370
   -2
100
AcDbMText
 10
171.05
 20
-2.75
 30
0
 40
2.5
 41
5.416666666666822
 71
    5
 72
    1
  1
39,1
  7
standard
210
0
220
0
230
1
 50
0
 73
    2
 44
1
  0
LINE
  5
124
100
AcDbEntity
  8
rozmir
  6
ByBlock
 62
    0
370
   -2
100
AcDbLine
 10
151.5
 20
-1
 11
151.5
 21
-7
  0
LINE
  5
125
100
AcDbEntity
  8
rozmir
  6
ByBlock
 62
    0
370
   -2
100
AcDbLine
 10
190.6
 20
-1
 11
190.6
 21
-7
  0
ENDBLK
  5
95
330
93
100
AcDbEntity
  8
0
100
AcDbBlockEnd
  0
BLOCK
  5
97
330
96
100
AcDbEntity
  8
0
100
AcDbBlockBegin
  2
*D23
 70
    1
 10
0
 20
0
  3
*D23
  1

  0
LINE
  5
126
100
AcDbEntity
  8
rozmir
  6
ByBlock
 62
    0
370
   -2
100
AcDbLine
 10
120
 20
-92
 11
155
 21
-92
  0
SOLID
  5
127
100
AcDbEntity
  8
rozmir
  6
ByBlock
 62
    0
370
   -2
100
AcDbTrace
 10
120
 20
-92
 30
0
 11
122.5
 21
-91.58371534222717
 31
0
 12
122.5
 22
-92.41628465777283
 32
0
 13
122.5
 23
-92.41628465777283
 33
0
  0
SOLID
  5
128
100
AcDbEntity
  8
rozmir
  6
ByBlock
 62
    0
370
   -2
100
AcDbTrace
 10
155
 20
-92
 30
0
 11
152.5
 21
-92.41628465777283
 31
0
 12
152.5
 22
-91.58371534222717
 32
0
 13
152.5
 23
-91.58371534222717
 33
0
  0
MTEXT
  5
129
100
AcDbEntity
  8
rozmir
  6
CONTINUOUS
 62
    0
370
   -2
100
AcDbMText
 10
137.5
 20
-89.75
 30
0
 40
2.5
 41
3.055555555555866
 71
    5
 72
    1
  1
35
  7
standard
210
0
220
0
230
1
 50
0
 73
    2
 44
1
  0
LINE
  5
12A
100
AcDbEntity
  8
rozmir
  6
ByBlock
 62
    0
370
   -2
100
AcDbLine
 10
120
 20
-87.40000000000002
 11
120
 21
-94
  0
LINE
  5
12B
100
AcDbEntity
  8
rozmir
  6
ByBlock
 62
    0
370
   -2
100
AcDbLine
 10
155
 20
-87.40000000000002
 11
155
 21
-94
  0
ENDBLK
  5
98
330
96
100
AcDbEntity
  8
0
100
AcDbBlockEnd
  0
BLOCK
  5
9A
330
99
100
AcDbEntity
  8
0
100
AcDbBlockBegin
  2
*D17
 70
    1
 10
0
 20
0
  3
*D17
  1

  0
LINE
  5
12C
100
AcDbEntity
  8
rozmir
  6
ByBlock
 62
    0
370
   -2
100
AcDbLine
 10
202
 20
50.40000000000001
 11
202
 21
0
  0
SOLID
  5
12D
100
AcDbEntity
  8
rozmir
  6
ByBlock
 62
    0
370
   -2
100
AcDbTrace
 10
202
 20
50.40000000000001
 30
0
 11
202.4162846577728
 21
47.90000000000001
 31
0
 12
201.5837153422272
 22
47.90000000000001
 32
0
 13
201.5837153422272
 23
47.90000000000001
 33
0
  0
SOLID
  5
12E
100
AcDbEntity
  8
rozmir
  6
ByBlock
 62
    0
370
   -2
100
AcDbTrace
 10
202
 20
0
 30
0
 11
201.5837153422272
 21
2.5
 31
0
 12
202.4162846577728
 22
2.5
 32
0
 13
202.4162846577728
 23
2.5
 33
0
  0
MTEXT
  5
12F
100
AcDbEntity
  8
rozmir
  6
CONTINUOUS
 62
    0
370
   -2
100
AcDbMText
 10
199.75
 20
25.20000000000001
 30
0
 40
2.5
 41
6.250000000000155
 71
    5
 72
    1
  1
50,4
  7
standard
210
0
220
0
230
1
 50
90
 73
    2
 44
1
  0
LINE
  5
130
100
AcDbEntity
  8
rozmir
  6
ByBlock
 62
    0
370
   -2
100
AcDbLine
 10
193
 20
50.40000000000001
 11
204
 21
50.40000000000001
  0
LINE
  5
131
100
AcDbEntity
  8
rozmir
  6
ByBlock
 62
    0
370
   -2
100
AcDbLine
 10
193.1
 20
0
 11
204
 21
0
  0
ENDBLK
  5
9B
330
99
100
AcDbEntity
  8
0
100
AcDbBlockEnd
  0
BLOCK
  5
9D
330
9C
100
AcDbEntity
  8
0
100
AcDbBlockBegin
  2
*D22
 70
    1
 10
0
 20
0
  3
*D22
  1

  0
LINE
  5
132
100
AcDbEntity
  8
rozmir
  6
ByBlock
 62
    0
370
   -2
100
AcDbLine
 10
60
 20
-92
 11
105
 21
-92
  0
SOLID
  5
133
100
AcDbEntity
  8
rozmir
  6
ByBlock
 62
    0
370
   -2
100
AcDbTrace
 10
60
 20
-92
 30
0
 11
62.5
 21
-91.58371534222717
 31
0
 12
62.5
 22
-92.41628465777283
 32
0
 13
62.5
 23
-92.41628465777283
 33
0
  0
SOLID
  5
134
100
AcDbEntity
  8
rozmir
  6
ByBlock
 62
    0
370
   -2
100
AcDbTrace
 10
105
 20
-92
 30
0
 11
102.5
 21
-92.41628465777283
 31
0
 12
102.5
 22
-91.58371534222717
 32
0
 13
102.5
 23
-91.58371534222717
 33
0
  0
MTEXT
  5
135
100
AcDbEntity
  8
rozmir
  6
CONTINUOUS
 62
    0
370
   -2
100
AcDbMText
 10
82.5
 20
-89.75
 30
0
 40
2.5
 41
3.333333333333488
 71
    5
 72
    1
  1
45
  7
standard
210
0
220
0
230
1
 50
0
 73
    2
 44
1
  0
LINE
  5
136
100
AcDbEntity
  8
rozmir
  6
ByBlock
 62
    0
370
   -2
100
AcDbLine
 10
60
 20
-87.40000000000002
 11
60
 21
-94
  0
LINE
  5
137
100
AcDbEntity
  8
rozmir
  6
ByBlock
 62
    0
370
   -2
100
AcDbLine
 10
105
 20
-87.40000000000002
 11
105
 21
-94
  0
ENDBLK
  5
9E
330
9C
100
AcDbEntity
  8
0
100
AcDbBlockEnd
  0
BLOCK
  5
A0
330
9F
100
AcDbEntity
  8
0
100
AcDbBlockBegin
  2
*D9
 70
    1
 10
0
 20
0
  3
*D9
  1

  0
LINE
  5
138
100
AcDbEntity
  8
rozmir
  6
ByBlock
 62
    0
370
   -2
100
AcDbLine
 10
50
 20
82.00000000000001
 11
50
 21
69.00000000000001
  0
SOLID
  5
139
100
AcDbEntity
  8
rozmir
  6
ByBlock
 62
    0
370
   -2
100
AcDbTrace
 10
50
 20
82.00000000000001
 30
0
 11
50.41628465777284
 21
79.50000000000001
 31
0
 12
49.58371534222716
 22
79.50000000000001
 32
0
 13
49.58371534222716
 23
79.50000000000001
 33
0
  0
SOLID
  5
13A
100
AcDbEntity
  8
rozmir
  6
ByBlock
 62
    0
370
   -2
100
AcDbTrace
 10
50
 20
69.00000000000001
 30
0
 11
49.58371534222716
 21
71.50000000000001
 31
0
 12
50.41628465777284
 22
71.50000000000001
 32
0
 13
50.41628465777284
 23
71.50000000000001
 33
0
  0
MTEXT
  5
13B
100
AcDbEntity
  8
rozmir
  6
CONTINUOUS
 62
    0
370
   -2
100
AcDbMText
 10
47.75
 20
75.50000000000001
 30
0
 40
2.5
 41
2.500000000000155
 71
    5
 72
    1
  1
13
  7
standard
210
0
220
0
230
1
 50
90
 73
    2
 44
1
  0
LINE
  5
13C
100
AcDbEntity
  8
rozmir
  6
ByBlock
 62
    0
370
   -2
100
AcDbLine
 10
46.6
 20
82.00000000000001
 11
52
 21
82.00000000000001
  0
LINE
  5
13D
100
AcDbEntity
  8
rozmir
  6
ByBlock
 62
    0
370
   -2
100
AcDbLine
 10
45.1
 20
69.00000000000001
 11
52
 21
69.00000000000001
  0
ENDBLK
  5
A1
330
9F
100
AcDbEntity
  8
0
100
AcDbBlockEnd
  0
ENDSEC
  0
SECTION
  2
ENTITIES
  0
HATCH
  5
13E
100
AcDbEntity
  8
karkas
  6
ByLayer
 62
  256
370
   -1
100
AcDbHatch
 10
0
 20
0
 30
0
210
0
220
0
230
1
  2
gost_metal
 70
    0
 71
    0
 91
    1
 92
    0
 93
    4
 72
    1
 10
170.7999999999998
 20
77.36000000000007
 11
170.7999999999998
 21
78.38449987798936
 72
    1
 10
170.7999999999998
 20
78.38449987798936
 11
179.9999999999999
 21
71.02449987798934
 72
    1
 10
179.9999999999999
 20
71.02449987798934
 11
180
 21
70.00000000000011
 72
    1
 10
180
 20
70.00000000000011
 11
170.7999999999998
 21
77.36000000000007
 97
    0
 75
    0
 76
    1
 52
0.7853981633974483
 41
0.1
 77
    0
 78
    0
 98
    0
  0
HATCH
  5
13F
100
AcDbEntity
  8
karkas
  6
ByLayer
 62
  256
370
   -1
100
AcDbHatch
 10
0
 20
0
 30
0
210
0
220
0
230
1
  2
gost_metal
 70
    0
 71
    0
 91
    1
 92
    0
 93
    4
 72
    1
 10
173.1999999999999
 20
76.80000000000007
 11
173.9999999999999
 21
76.80000000000007
 72
    1
 10
173.9999999999999
 20
76.80000000000007
 11
173.9999999999999
 21
75.82449987798935
 72
    1
 10
173.9999999999999
 20
75.82449987798935
 11
173.1999999999998
 21
76.4644998779894
 72
    1
 10
173.1999999999998
 20
76.4644998779894
 11
173.1999999999999
 21
76.80000000000007
 97
    0
 75
    0
 76
    1
 52
1.570796326794897
 41
0.1
 77
    0
 78
    0
 98
    0
  0
HATCH
  5
140
100
AcDbEntity
  8
karkas
  6
ByLayer
 62
  256
370
   -1
100
AcDbHatch
 10
0
 20
0
 30
0
210
0
220
0
230
1
  2
gost_metal
 70
    0
 71
    0
 91
    1
 92
    0
 93
    5
 72
    1
 10
173.1999999999999
 20
94.00000000000006
 11
173.9999999999999
 21
94.00000000000006
 72
    1
 10
173.9999999999999
 20
94.00000000000006
 11
173.9999999999999
 21
79.20000000000005
 72
    1
 10
173.9999999999999
 20
79.20000000000005
 11
173.1999999999999
 21
79.20000000000005
 72
    1
 10
173.1999999999999
 20
79.20000000000005
 11
173.1999999999999
 21
94.00000000000011
 72
    1
 10
173.1999999999999
 20
94.00000000000011
 11
173.9999999999999
 21
94.00000000000011
 97
    0
 75
    0
 76
    1
 52
1.570796326794897
 41
0.1
 77
    0
 78
    0
 98
    0
  0
HATCH
  5
141
100
AcDbEntity
  8
karkas
  6
ByLayer
 62
  256
370
   -1
100
AcDbHatch
 10
0
 20
0
 30
0
210
0
220
0
230
1
  2
gost_metal
 70
    0
 71
    0
 91
    1
 92
    0
 93
    4
 72
    1
 10
179.9999999999999
 20
76.20000000000005
 11
179.9999999999999
 21
71.02449987798934
 72
    1
 10
179.9999999999999
 20
71.02449987798934
 11
179.1999999999999
 21
71.66449987798933
 72
    1
 10
179.1999999999999
 20
71.66449987798933
 11
179.1999999999999
 21
76.20000000000005
 72
    1
 10
179.1999999999999
 20
76.20000000000005
 11
179.9999999999999
 21
76.20000000000005
 97
    0
 75
    0
 76
    1
 52
0
 41
0.1
 77
    0
 78
    0
 98
    0
  0
HATCH
  5
142
100
AcDbEntity
  8
karkas
  6
ByLayer
 62
  256
370
   -1
100
AcDbHatch
 10
0
 20
0
 30
0
210
0
220
0
230
1
  2
gost_metal
 70
    0
 71
    0
 91
    1
 92
    0
 93
    5
 72
    1
 10
179.1999999999999
 20
94.00000000000011
 11
179.9999999999999
 21
94.00000000000011
 72
    1
 10
179.9999999999999
 20
94.00000000000011
 11
179.9999999999999
 21
79.80000000000007
 72
    1
 10
179.9999999999999
 20
79.80000000000007
 11
179.1999999999999
 21
79.80000000000007
 72
    1
 10
179.1999999999999
 20
79.80000000000007
 11
179.1999999999999
 21
94.00000000000017
 72
    1
 10
179.1999999999999
 20
94.00000000000017
 11
179.9999999999994
 21
94.00000000000017
 97
    0
 75
    0
 76
    1
 52
0
 41
0.1
 77
    0
 78
    0
 98
    0
  0
HATCH
  5
143
100
AcDbEntity
  8
karkas
  6
ByLayer
 62
  256
370
   -1
100
AcDbHatch
 10
0
 20
0
 30
0
210
0
220
0
230
1
  2
gost_metal
 70
    0
 71
    0
 91
    1
 92
    0
 93
    4
 72
    1
 10
174.7999999999998
 20
76.20000000000005
 11
174.8
 21
75.18449987798931
 72
    1
 10
174.8
 20
75.18449987798931
 11
173.9999999999999
 21
75.82449987798935
 72
    1
 10
173.9999999999999
 20
75.82449987798935
 11
173.9999999999999
 21
76.20000000000005
 72
    1
 10
173.9999999999999
 20
76.20000000000005
 11
174.7999999999998
 21
76.20000000000005
 97
    0
 75
    0
 76
    1
 52
0
 41
0.1
 77
    0
 78
    0
 98
    0
  0
HATCH
  5
144
100
AcDbEntity
  8
karkas
  6
ByLayer
 62
  256
370
   -1
100
AcDbHatch
 10
0
 20
0
 30
0
210
0
220
0
230
1
  2
gost_metal
 70
    0
 71
    0
 91
    1
 92
    0
 93
    5
 72
    1
 10
173.9999999999999
 20
94.00000000000006
 11
174.7999999999998
 21
94.00000000000006
 72
    1
 10
174.7999999999998
 20
94.00000000000006
 11
174.7999999999998
 21
79.80000000000001
 72
    1
 10
174.7999999999998
 20
79.80000000000001
 11
173.9999999999999
 21
79.80000000000001
 72
    1
 10
173.9999999999999
 20
79.80000000000001
 11
173.9999999999999
 21
94.00000000000011
 72
    1
 10
173.9999999999999
 20
94.00000000000011
 11
174.7999999999998
 21
94.00000000000011
 97
    0
 75
    0
 76
    1
 52
0
 41
0.1
 77
    0
 78
    0
 98
    0
  0
LWPOLYLINE
  5
145
100
AcDbEntity
  8
karkas
  6
ByLayer
 62
  256
370
   -1
100
AcDbPolyline
 90
    4
 70
    1
 43
0
 10
0
 20
0
 10
1.5
 20
0
 10
1.5
 20
82.00000000000001
 10
0
 20
82.00000000000001
  0
LWPOLYLINE
  5
146
100
AcDbEntity
  8
karkas
  6
ByLayer
 62
  256
370
   -1
100
AcDbPolyline
 90
    4
 70
    1
 43
0
 10
44.1
 20
-3.05311331771918e-16
 10
45.6
 20
-3.05311331771918e-16
 10
45.6
 20
82.00000000000001
 10
44.1
 20
82.00000000000001
  0
LWPOLYLINE
  5
147
100
AcDbEntity
  8
karkas
  6
ByLayer
 62
  256
370
   -1
100
AcDbPolyline
 90
    4
 70
    1
 43
0
 10
1.5
 20
16.5
 10
44.1
 20
16.5
 10
44.1
 20
15
 10
1.500000000000001
 20
15
  0
LWPOLYLINE
  5
148
100
AcDbEntity
  8
karkas
  6
ByLayer
 62
  256
370
   -1
100
AcDbPolyline
 90
    4
 70
    1
 43
0
 10
1.5
 20
82.00000000000001
 10
44.1
 20
82.00000000000001
 10
44.1
 20
80.5
 10
1.5
 20
80.50000000000001
  0
LWPOLYLINE
  5
149
100
AcDbEntity
  8
karkas
  6
ByLayer
 62
  256
370
   -1
100
AcDbPolyline
 90
    4
 70
    1
 43
0
 10
0
 20
-58.5
 10
45.59999999999999
 20
-58.5
 10
45.6
 20
-60
 10
6.106226635438361e-16
 20
-60
  0
LWPOLYLINE
  5
14A
100
AcDbEntity
  8
obshivka
  6
ByLayer
 62
  256
370
   -1
100
AcDbPolyline
 90
   18
 70
    0
 43
0
 10
0.3000000000000003
 20
-60
 10
2.100000000000001
 20
-60
 10
3
 20
-60.8
 10
7.900000000000001
 20
-60.8
 10
8.800000000000004
 20
-60
 10
13.7
 20
-60
 10
14.6
 20
-60.8
 10
19.50000000000001
 20
-60.8
 10
20.40000000000001
 20
-60
 10
25.3
 20
-60
 10
26.20000000000001
 20
-60.8
 10
31.10000000000002
 20
-60.8
 10
32.00000000000001
 20
-60
 10
36.9
 20
-60
 10
37.8
 20
-60.8
 10
42.7
 20
-60.8
 10
43.6
 20
-60
 10
45.3
 20
-60
  0
LWPOLYLINE
  5
14B
100
AcDbEntity
  8
karkas
  6
ByLayer
 62
  256
370
   -1
100
AcDbPolyline
 90
    4
 70
    1
 43
0
 10
1.5
 20
70.50000000000001
 10
44.1
 20
70.50000000000001
 10
44.1
 20
69
 10
1.5
 20
69.00000000000001
  0
LWPOLYLINE
  5
14C
100
AcDbEntity
  8
karkas
  6
ByLayer
 62
  256
370
   -1
100
AcDbPolyline
 90
    4
 70
    1
 43
0
 10
1.5
 20
69.00000000000001
 10
44.1
 20
69.00000000000001
 10
44.1
 20
67.5
 10
1.5
 20
67.50000000000001
  0
LWPOLYLINE
  5
14D
100
AcDbEntity
  8
karkas
  6
ByLayer
 62
  256
370
   -1
100
AcDbPolyline
 90
    4
 70
    1
 43
0
 10
3.3
 20
67.2
 10
3.3
 20
16.8
 10
1.8
 20
16.8
 10
1.8
 20
67.2
  0
LWPOLYLINE
  5
14E
100
AcDbEntity
  8
rakovyna
  6
ByLayer
 62
  256
370
   -1
100
AcDbPolyline
 90
    4
 70
    1
 43
0
 10
-2.200000000000004
 20
-62.2
 10
47.8
 20
-62.2
 10
47.8
 20
-22.2
 10
-2.200000000000004
 20
-22.2
  0
ARC
  5
14F
100
AcDbEntity
  8
rakovyna
  6
ByLayer
 62
  256
370
   -1
100
AcDbCircle
 10
12.3
 20
-36.2
 40
9
100
AcDbArc
 50
90
 51
180
  0
ARC
  5
150
100
AcDbEntity
  8
rakovyna
  6
ByLayer
 62
  256
370
   -1
100
AcDbCircle
 10
12.3
 20
-48.20000000000001
 40
9
100
AcDbArc
 50
180
 51
270
  0
ARC
  5
151
100
AcDbEntity
  8
rakovyna
  6
ByLayer
 62
  256
370
   -1
100
AcDbCircle
 10
33.3
 20
-36.2
 40
9
100
AcDbArc
 50
0
 51
90
  0
ARC
  5
152
100
AcDbEntity
  8
rakovyna
  6
ByLayer
 62
  256
370
   -1
100
AcDbCircle
 10
33.3
 20
-48.2
 40
9
100
AcDbArc
 50
270
 51
0
  0
CIRCLE
  5
153
100
AcDbEntity
  8
rakovyna
  6
ByLayer
 62
  256
370
   -1
100
AcDbCircle
 10
22.8
 20
-42.2
 40
3.599999999999994
  0
LINE
  5
154
100
AcDbEntity
  8
rakovyna
  6
ByLayer
 62
  256
370
   -1
100
AcDbLine
 10
33.3
 20
-27.2
 11
12.3
 21
-27.2
  0
LINE
  5
155
100
AcDbEntity
  8
rakovyna
  6
ByLayer
 62
  256
370
   -1
100
AcDbLine
 10
3.299999999999996
 20
-36.2
 11
3.299999999999996
 21
-48.20000000000001
  0
LINE
  5
156
100
AcDbEntity
  8
rakovyna
  6
ByLayer
 62
  256
370
   -1
100
AcDbLine
 10
12.3
 20
-57.20000000000001
 11
33.3
 21
-57.2
  0
LINE
  5
157
100
AcDbEntity
  8
rakovyna
  6
ByLayer
 62
  256
370
   -1
100
AcDbLine
 10
42.3
 20
-48.2
 11
42.3
 21
-36.2
  0
LWPOLYLINE
  5
158
100
AcDbEntity
  8
rakovyna
  6
DASHED2
 62
  256
370
   -1
100
AcDbPolyline
 90
    4
 70
    1
 43
0
 10
-0.9000000000000001
 20
-23.5
 10
46.50000000000001
 20
-23.5
 10
46.50000000000001
 20
-60.90000000000001
 10
-0.9000000000000001
 20
-60.90000000000001
  0
LWPOLYLINE
  5
159
100
AcDbEntity
  8
karkas
  6
ByLayer
 62
  256
370
   -1
100
AcDbPolyline
 90
    4
 70
    1
 43
0
 10
-1.387778780781446e-16
 20
-24.4
 10
45.6
 20
-24.4
 10
45.59999999999999
 20
-25.89999999999998
 10
0
 20
-25.89999999999998
  0
LWPOLYLINE
  5
15A
100
AcDbEntity
  8
karkas
  6
ByLayer
 62
  256
370
   -1
100
AcDbPolyline
 90
    4
 70
    1
 43
0
 10
45.6
 20
-25.89999999999999
 10
45.6
 20
-58.50000000000001
 10
44.1
 20
-58.5
 10
44.1
 20
-25.9
  0
LWPOLYLINE
  5
15B
100
AcDbEntity
  8
karkas
  6
ByLayer
 62
  256
370
   -1
100
AcDbPolyline
 90
    4
 70
    1
 43
0
 10
1.5
 20
-25.9
 10
1.5
 20
-58.5
 10
0
 20
-58.50000000000001
 10
0
 20
-25.89999999999999
  0
DIMENSION
  5
15C
100
AcDbEntity
  8
rozmir
  6
ByLayer
 62
  256
370
   -1
100
AcDbDimension
  2
*D1
 10
-10
 20
-60
 30
0
 11
-12.25
 21
-42.2
 31
0
 70
   32
 71
    5
 72
    0
  3
Standard
 53
0
210
0
220
0
230
1
100
AcDbAlignedDimension
 13
-1.387778780781446e-16
 23
-24.4
 33
0
 14
0
 24
-60
 34
0
 50
90
100
AcDbRotatedDimension
  0
LWPOLYLINE
  5
15D
100
AcDbEntity
  8
obshivka
  6
ByLayer
 62
  256
370
   -1
100
AcDbPolyline
 90
   18
 70
    0
 43
0
 10
0.2999999999999997
 20
-24.4
 10
2.1
 20
-24.4
 10
3
 20
-23.6
 10
7.899999999999999
 20
-23.6
 10
8.800000000000001
 20
-24.4
 10
13.7
 20
-24.4
 10
14.6
 20
-23.6
 10
19.5
 20
-23.6
 10
20.4
 20
-24.4
 10
25.3
 20
-24.4
 10
26.2
 20
-23.6
 10
31.1
 20
-23.6
 10
32
 20
-24.4
 10
36.9
 20
-24.4
 10
37.8
 20
-23.6
 10
42.7
 20
-23.6
 10
43.6
 20
-24.4
 10
45.3
 20
-24.4
  0
LWPOLYLINE
  5
15E
100
AcDbEntity
  8
karkas
  6
ByLayer
 62
  256
370
   -1
100
AcDbPolyline
 90
    4
 70
    1
 43
0
 10
12.5
 20
-25.90000000000001
 10
12.5
 20
-58.50000000000001
 10
11
 20
-58.50000000000002
 10
11
 20
-25.9
  0
LWPOLYLINE
  5
15F
100
AcDbEntity
  8
karkas
  6
ByLayer
 62
  256
370
   -1
100
AcDbPolyline
 90
    4
 70
    1
 43
0
 10
34.59999999999999
 20
-25.9
 10
34.59999999999999
 20
-58.50000000000002
 10
33.09999999999999
 20
-58.50000000000001
 10
33.09999999999999
 20
-25.90000000000001
  0
LWPOLYLINE
  5
160
100
AcDbEntity
  8
karkas
  6
ByLayer
 62
  256
370
   -1
100
AcDbPolyline
 90
    4
 70
    1
 43
0
 10
23.6
 20
-25.90000000000002
 10
23.6
 20
-58.50000000000004
 10
22.1
 20
-58.50000000000003
 10
22.1
 20
-25.90000000000002
  0
LWPOLYLINE
  5
161
100
AcDbEntity
  8
obshivka
  6
CONTINUOUS
 62
   96
420
32768
370
   50
100
AcDbPolyline
 90
   14
 70
    0
 43
0
 10
2.775557561562891e-17
 20
-24.7
 10
2.775557561562891e-17
 20
-27.19999999999996
 10
-0.8000000000000043
 20
-28.09999999999995
 10
-0.8000000000000043
 20
-32.99999999999996
 10
2.775557561562891e-17
 20
-33.89999999999997
 10
2.775557561562891e-17
 20
-38.79999999999996
 10
-0.8000000000000043
 20
-39.69999999999996
 10
-0.8000000000000043
 20
-44.59999999999997
 10
2.775557561562891e-17
 20
-45.49999999999996
 10
2.775557561562891e-17
 20
-50.39999999999996
 10
-0.8000000000000043
 20
-51.29999999999996
 10
-0.8000000000000043
 20
-56.2
 10
2.775557561562891e-17
 20
-57.1
 10
7.216449660063518e-16
 20
-59.69999999999995
  0
LWPOLYLINE
  5
162
100
AcDbEntity
  8
obshivka
  6
CONTINUOUS
 62
   96
420
32768
370
   50
100
AcDbPolyline
 90
   14
 70
    0
 43
0
 10
45.6
 20
-24.7
 10
45.6
 20
-27.19999999999999
 10
46.40000000000001
 20
-28.09999999999998
 10
46.40000000000001
 20
-32.99999999999999
 10
45.6
 20
-33.9
 10
45.6
 20
-38.79999999999999
 10
46.40000000000001
 20
-39.69999999999999
 10
46.40000000000001
 20
-44.6
 10
45.6
 20
-45.49999999999999
 10
45.6
 20
-50.39999999999998
 10
46.40000000000001
 20
-51.29999999999999
 10
46.40000000000001
 20
-56.19999999999999
 10
45.6
 20
-57.1
 10
45.6
 20
-59.69999999999999
  0
LWPOLYLINE
  5
163
100
AcDbEntity
  8
rakovyna
  6
DASHED2
 62
  256
370
   -1
100
AcDbPolyline
 90
   18
 70
    0
 43
0
 10
46.50000000000001
 20
79
 10
47.8
 20
79
 10
47.8
 20
82
 10
43.30000000000001
 20
82
 42
0.414213562373095
 10
42.29999999999998
 20
80.99999943419843
 10
42.30000000000002
 20
73
 42
-0.414213562373095
 10
38.29999892616461
 20
69.00000000000001
 10
26.40000000000001
 20
69
 10
25.90000000000001
 20
68.5
 10
19.7
 20
68.5
 10
19.2
 20
69
 10
7.300000000000002
 20
69
 42
-0.414213562373095
 10
3.300000000000002
 20
73
 10
3.300000000000003
 20
81
 42
0.414213562373095
 10
2.299999750748774
 20
82
 10
-2.199999999999997
 20
82
 10
-2.199999999999997
 20
79
 10
-0.8999999999999997
 20
79
  0
LWPOLYLINE
  5
164
100
AcDbEntity
  8
karkas
  6
ByLayer
 62
  256
370
   -1
100
AcDbPolyline
 90
    4
 70
    1
 43
0
 10
114.1
 20
2.775557561562891e-17
 10
115.6
 20
2.775557561562891e-17
 10
115.6
 20
82.00000000000001
 10
114.1
 20
82.00000000000001
  0
LWPOLYLINE
  5
165
100
AcDbEntity
  8
karkas
  6
ByLayer
 62
  256
370
   -1
100
AcDbPolyline
 90
    4
 70
    1
 43
0
 10
81.5
 20
82.00000000000001
 10
114.1
 20
82.00000000000001
 10
114.1
 20
80.50000000000001
 10
81.50000000000001
 20
80.5
  0
LWPOLYLINE
  5
166
100
AcDbEntity
  8
karkas
  6
ByLayer
 62
  256
370
   -1
100
AcDbPolyline
 90
    4
 70
    1
 43
0
 10
81.50000000000001
 20
16.5
 10
114.1
 20
16.5
 10
114.1
 20
15
 10
81.5
 20
15
  0
LWPOLYLINE
  5
167
100
AcDbEntity
  8
karkas
  6
ByLayer
 62
  256
370
   -1
100
AcDbPolyline
 90
    4
 70
    1
 43
0
 10
81.50000000000001
 20
49
 10
114.1
 20
49
 10
114.1
 20
47.5
 10
81.5
 20
47.5
  0
LWPOLYLINE
  5
168
100
AcDbEntity
  8
karkas
  6
ByLayer
 62
  256
370
   -1
100
AcDbPolyline
 90
    4
 70
    1
 43
0
 10
80
 20
0
 10
81.5
 20
0
 10
81.49999999999999
 20
82.00000000000003
 10
79.99999999999999
 20
82.00000000000001
  0
LWPOLYLINE
  5
169
100
AcDbEntity
  8
rakovyna
  6
DASHED2
 62
  256
370
   -1
100
AcDbPolyline
 90
   18
 70
    0
 43
0
 10
116.5
 20
79
 10
117.8
 20
79
 10
117.8
 20
82
 10
113.8
 20
82
 42
0.414213562373095
 10
112.8
 20
80.99999943419843
 10
112.8
 20
73
 42
-0.414213562373095
 10
108.7999989261646
 20
69
 10
101.4
 20
69
 10
100.9
 20
68.5
 10
94.7
 20
68.5
 10
94.2
 20
69
 10
86.80000000000001
 20
69
 42
-0.414213562373095
 10
82.80000000000001
 20
73
 10
82.80000000000001
 20
81
 42
0.414213562373095
 10
81.79999975074878
 20
82
 10
77.80000000000001
 20
82
 10
77.80000000000001
 20
79
 10
79.10000000000001
 20
79
  0
LWPOLYLINE
  5
16A
100
AcDbEntity
  8
karkas
  6
ByLayer
 62
  256
370
   -1
100
AcDbPolyline
 90
    4
 70
    1
 43
0
 10
-1.387778780781446e-16
 20
-20.40000000000002
 10
45.6
 20
-20.40000000000002
 10
45.59999999999999
 20
-21.9
 10
0
 20
-21.9
  0
LWPOLYLINE
  5
16B
100
AcDbEntity
  8
obshivka
  6
ByLayer
 62
  256
370
   -1
100
AcDbPolyline
 90
   18
 70
    0
 43
0
 10
0.2999999999999997
 20
-20.40000000000002
 10
2.1
 20
-20.40000000000002
 10
3
 20
-19.60000000000002
 10
7.899999999999999
 20
-19.60000000000002
 10
8.800000000000001
 20
-20.40000000000002
 10
13.7
 20
-20.40000000000002
 10
14.6
 20
-19.60000000000002
 10
19.5
 20
-19.60000000000002
 10
20.4
 20
-20.40000000000002
 10
25.3
 20
-20.40000000000002
 10
26.2
 20
-19.60000000000002
 10
31.1
 20
-19.60000000000002
 10
32
 20
-20.40000000000002
 10
36.9
 20
-20.40000000000002
 10
37.8
 20
-19.60000000000002
 10
42.7
 20
-19.60000000000002
 10
43.6
 20
-20.40000000000002
 10
45.3
 20
-20.40000000000002
  0
LWPOLYLINE
  5
16C
100
AcDbEntity
  8
karkas
  6
ByLayer
 62
  256
370
   -1
100
AcDbPolyline
 90
    4
 70
    1
 43
0
 10
0
 20
-21.9
 10
1.5
 20
-21.9
 10
1.5
 20
-24.4
 10
0
 20
-24.4
  0
LWPOLYLINE
  5
16D
100
AcDbEntity
  8
karkas
  6
ByLayer
 62
  256
370
   -1
100
AcDbPolyline
 90
    4
 70
    1
 43
0
 10
45.59999999999999
 20
-24.4
 10
44.09999999999999
 20
-24.4
 10
44.09999999999999
 20
-21.9
 10
45.59999999999999
 20
-21.9
  0
LWPOLYLINE
  5
16E
100
AcDbEntity
  8
obshivka
  6
ByLayer
 62
  256
370
   -1
100
AcDbPolyline
 90
   18
 70
    0
 43
0
 10
0.2999999999999946
 20
-21.9
 10
2.100000000000003
 20
-21.9
 10
3
 20
-22.7
 10
7.899999999999984
 20
-22.7
 10
8.800000000000008
 20
-21.9
 10
13.7
 20
-21.9
 10
14.59999999999999
 20
-22.7
 10
19.49999999999999
 20
-22.7
 10
20.39999999999999
 20
-21.9
 10
25.3
 20
-21.9
 10
26.2
 20
-22.7
 10
31.1
 20
-22.7
 10
32
 20
-21.9
 10
36.9
 20
-21.9
 10
37.8
 20
-22.7
 10
42.7
 20
-22.7
 10
43.6
 20
-21.9
 10
45.3
 20
-21.9
  0
ELLIPSE
  5
16F
100
AcDbEntity
  8
bak
  6
ByLayer
 62
  256
370
   -1
100
AcDbEllipse
 10
32.8
 20
-30.70071432216119
 30
0
 11
0
 21
8
 31
0
 40
0.375
 41
4.712389155760643
 42
0
  0
LINE
  5
170
100
AcDbEntity
  8
bak
  6
ByLayer
 62
  256
370
   -1
100
AcDbLine
 10
12.8
 20
-22.70071432216119
 11
32.8
 21
-22.70071432216119
  0
CIRCLE
  5
171
100
AcDbEntity
  8
bak
  6
ByLayer
 62
  256
370
   -1
100
AcDbCircle
 10
22.8
 20
-30.70071432216119
 40
7.000000000000055
  0
LWPOLYLINE
  5
172
100
AcDbEntity
  8
bak
  6
ByLayer
 62
  256
370
   -1
100
AcDbPolyline
 90
    4
 70
    0
 43
0
 10
9.800000000000001
 20
-30.70071432216119
 42
0.414213562373095
 10
17.8
 20
-38.70071432216119
 10
27.8
 20
-38.7007143221612
 42
0.414213562373095
 10
35.8
 20
-30.70071432216119
 42
0.414213562373095
  0
ELLIPSE
  5
173
100
AcDbEntity
  8
bak
  6
ByLayer
 62
  256
370
   -1
100
AcDbEllipse
 10
12.8
 20
-30.70071432216119
 30
0
 11
0
 21
8
 31
0
 40
0.375
 41
0
 42
1.570796151418943
  0
CIRCLE
  5
174
100
AcDbEntity
  8
bak
  6
ByLayer
 62
  256
370
   -1
100
AcDbCircle
 10
22.8
 20
-41.70071432216119
 40
1.199999999999996
  0
LINE
  5
175
100
AcDbEntity
  8
bak
  6
ByLayer
 62
  256
370
   -1
100
AcDbLine
 10
22.1
 20
-40.7007143221612
 11
22.10000000000002
 21
-38.7007143221612
  0
LINE
  5
176
100
AcDbEntity
  8
bak
  6
ByLayer
 62
  256
370
   -1
100
AcDbLine
 10
22.10000000000002
 20
-38.7007143221612
 11
23.50000000000001
 21
-38.7007143221612
  0
LINE
  5
177
100
AcDbEntity
  8
bak
  6
ByLayer
 62
  256
370
   -1
100
AcDbLine
 10
23.50000000000001
 20
-38.7007143221612
 11
23.50000000000001
 21
-40.7007143221612
  0
LWPOLYLINE
  5
178
100
AcDbEntity
  8
bak
  6
ByLayer
 62
  256
370
   -1
100
AcDbPolyline
 90
    4
 70
    1
 43
0
 10
22.70000000000001
 20
-42.7007143221612
 10
22.90000000000001
 20
-42.7007143221612
 10
22.90000000000001
 20
-39.5007143221612
 10
22.70000000000001
 20
-39.5007143221612
  0
LWPOLYLINE
  5
179
100
AcDbEntity
  8
bak
  6
ByLayer
 62
  256
370
   -1
100
AcDbPolyline
 90
    4
 70
    1
 43
0
 10
15.79999999999999
 20
129.7
 10
15.79999999999999
 20
133.7
 10
29.79999999999999
 20
133.7
 10
29.79999999999999
 20
129.7
  0
LWPOLYLINE
  5
17A
100
AcDbEntity
  8
bak
  6
ByLayer
 62
  256
370
   -1
100
AcDbPolyline
 90
    8
 70
    1
 43
0
 10
35.79999999999998
 20
126.2
 42
0.4142135623730939
 10
32.29999999999998
 20
129.7
 10
13.29999999999998
 20
129.7
 42
0.4142135623730935
 10
9.799999999999986
 20
126.199999527419
 10
9.79999999999999
 20
101.2
 42
0.4142135623730943
 10
13.30000107081463
 20
97.70000000000003
 10
32.29999999999998
 20
97.70000000000003
 42
0.414213562373094
 10
35.8
 20
101.1999994931921
  0
LWPOLYLINE
  5
17B
100
AcDbEntity
  8
bak
  6
ByLayer
 62
  256
370
   -1
100
AcDbPolyline
 90
    4
 70
    1
 43
0
 10
21.79999999999999
 20
99.40000000000002
 10
21.79999999999999
 20
102
 10
23.79999999999999
 20
102
 10
23.79999999999999
 20
99.40000000000002
  0
LWPOLYLINE
  5
17C
100
AcDbEntity
  8
bak
  6
ByLayer
 62
  256
370
   -1
100
AcDbPolyline
 90
    4
 70
    1
 43
0
 10
21.59999999999999
 20
102
 10
21.59999999999999
 20
102.2
 10
23.99999999999999
 20
102.2
 10
23.99999999999999
 20
102
  0
LWPOLYLINE
  5
17D
100
AcDbEntity
  8
bak
  6
ByLayer
 62
  256
370
   -1
100
AcDbPolyline
 90
    4
 70
    1
 43
0
 10
22.7
 20
102.2
 10
22.7
 20
103.2
 10
22.9
 20
103.2
 10
22.9
 20
102.2
  0
LWPOLYLINE
  5
17E
100
AcDbEntity
  8
bak
  6
ByLayer
 62
  256
370
   -1
100
AcDbPolyline
 90
    4
 70
    1
 43
0
 10
21.99999999999999
 20
99.40000000000002
 10
21.99999999999999
 20
99.00000000000001
 10
23.59999999999999
 20
99.00000000000001
 10
23.59999999999999
 20
99.40000000000002
  0
CIRCLE
  5
17F
100
AcDbEntity
  8
bak
  6
DASHED2
 62
  256
370
   -1
100
AcDbCircle
 10
28.6
 20
131.2
 40
0.1999999999999886
  0
LWPOLYLINE
  5
180
100
AcDbEntity
  8
bak
  6
DASHED2
 62
  256
370
   -1
100
AcDbPolyline
 90
    4
 70
    1
 43
0
 10
27.69999999999999
 20
131.2
 10
27.7
 20
129.7
 10
29.5
 20
129.7
 10
29.5
 20
131.2
 42
0.9999999999999999
  0
CIRCLE
  5
181
100
AcDbEntity
  8
bak
  6
DASHED2
 62
  256
370
   -1
100
AcDbCircle
 10
17.00000000000001
 20
131.2
 40
0.1999999999999886
  0
LWPOLYLINE
  5
182
100
AcDbEntity
  8
bak
  6
DASHED2
 62
  256
370
   -1
100
AcDbPolyline
 90
    4
 70
    1
 43
0
 10
16.1
 20
131.2
 10
16.10000000000001
 20
129.7
 10
17.90000000000001
 20
129.7
 10
17.90000000000001
 20
131.2
 42
0.9999999999999999
  0
LWPOLYLINE
  5
183
100
AcDbEntity
  8
bak
  6
ByLayer
 62
  256
370
   -1
100
AcDbPolyline
 90
    4
 70
    1
 43
0
 10
16.1
 20
-22.7
 10
17.9
 20
-22.7
 10
17.9
 20
-22.9
 10
16.1
 20
-22.9
  0
LWPOLYLINE
  5
184
100
AcDbEntity
  8
bak
  6
ByLayer
 62
  256
370
   -1
100
AcDbPolyline
 90
    4
 70
    1
 43
0
 10
27.7
 20
-22.7
 10
29.5
 20
-22.7
 10
29.5
 20
-22.9
 10
27.7
 20
-22.9
  0
LINE
  5
185
100
AcDbEntity
  8
rozmir
  6
DASHDOT2
 62
  256
370
   -1
100
AcDbLine
 10
17
 20
-18
 11
17
 21
-24
  0
LINE
  5
186
100
AcDbEntity
  8
rozmir
  6
DASHDOT2
 62
  256
370
   -1
100
AcDbLine
 10
28.6
 20
-18
 11
28.6
 21
-24
  0
LWPOLYLINE
  5
187
100
AcDbEntity
  8
karkas
  6
ByLayer
 62
  256
370
   -1
100
AcDbPolyline
 90
    4
 70
    1
 43
0
 10
1.5
 20
82
 10
0
 20
82
 10
0
 20
136
 10
1.5
 20
136
  0
LWPOLYLINE
  5
188
100
AcDbEntity
  8
karkas
  6
ByLayer
 62
  256
370
   -1
100
AcDbPolyline
 90
    4
 70
    1
 43
0
 10
45.6
 20
82
 10
44.1
 20
82
 10
44.1
 20
136
 10
45.6
 20
136
  0
LWPOLYLINE
  5
189
100
AcDbEntity
  8
karkas
  6
ByLayer
 62
  256
370
   -1
100
AcDbPolyline
 90
    4
 70
    1
 43
0
 10
1.5
 20
136
 10
44.1
 20
136
 10
44.1
 20
134.5
 10
1.5
 20
134.5
  0
LINE
  5
18A
100
AcDbEntity
  8
karkas
  6
DASHED2
 62
  256
370
   -1
100
AcDbLine
 10
3.3
 20
49
 11
1.5
 21
49
  0
LINE
  5
18B
100
AcDbEntity
  8
karkas
  6
DASHED2
 62
  256
370
   -1
100
AcDbLine
 10
3.3
 20
47.5
 11
1.5
 21
47.5
  0
LWPOLYLINE
  5
18C
100
AcDbEntity
  8
karkas
  6
ByLayer
 62
  256
370
   -1
100
AcDbPolyline
 90
    4
 70
    1
 43
0
 10
1.5
 20
88.5
 10
44.1
 20
88.5
 10
44.1
 20
86.99999999999999
 10
1.5
 20
87
  0
DIMENSION
  5
18D
100
AcDbEntity
  8
rozmir
  6
ByLayer
 62
  256
370
   -1
100
AcDbDimension
  2
*D2
 10
114.1
 20
-5
 30
0
 11
97.8
 21
-2.75
 31
0
 70
   32
 71
    5
 72
    0
  3
Standard
 53
0
210
0
220
0
230
1
100
AcDbAlignedDimension
 13
81.5
 23
0
 33
0
 14
114.1
 24
2.775557561562891e-17
 34
0
100
AcDbRotatedDimension
  0
DIMENSION
  5
18E
100
AcDbEntity
  8
rozmir
  6
ByLayer
 62
  256
370
   -1
100
AcDbDimension
  2
*D3
 10
115.6
 20
-10
 30
0
 11
97.8
 21
-7.75
 31
0
 70
   32
 71
    5
 72
    0
  3
Standard
 53
0
210
0
220
0
230
1
100
AcDbAlignedDimension
 13
80
 23
0
 33
0
 14
115.6
 24
2.775557561562891e-17
 34
0
100
AcDbRotatedDimension
  0
DIMENSION
  5
18F
100
AcDbEntity
  8
rozmir
  6
ByLayer
 62
  256
370
   -1
100
AcDbDimension
  2
*D4
 10
44.1
 20
-5.000000000000003
 30
0
 11
22.8
 21
-2.750000000000003
 31
0
 70
   32
 71
    5
 72
    0
  3
Standard
 53
0
210
0
220
0
230
1
100
AcDbAlignedDimension
 13
1.5
 23
0
 33
0
 14
44.1
 24
-3.05311331771918e-16
 34
0
100
AcDbRotatedDimension
  0
DIMENSION
  5
190
100
AcDbEntity
  8
rozmir
  6
ByLayer
 62
  256
370
   -1
100
AcDbDimension
  2
*D5
 10
45.6
 20
-10
 30
0
 11
22.8
 21
-7.75
 31
0
 70
   32
 71
    5
 72
    0
  3
Standard
 53
0
210
0
220
0
230
1
100
AcDbAlignedDimension
 13
0
 23
0
 33
0
 14
45.6
 24
-3.05311331771918e-16
 34
0
100
AcDbRotatedDimension
  0
DIMENSION
  5
191
100
AcDbEntity
  8
rozmir
  6
ByLayer
 62
  256
370
   -1
100
AcDbDimension
  2
*D6
 10
132
 20
0
 30
0
 11
129.75
 21
41.00000000000001
 31
0
 70
   32
 71
    5
 72
    0
  3
Standard
 53
0
210
0
220
0
230
1
100
AcDbAlignedDimension
 13
115.6
 23
82.00000000000001
 33
0
 14
115.6
 24
2.775557561562891e-17
 34
0
 50
90
100
AcDbRotatedDimension
  0
DIMENSION
  5
192
100
AcDbEntity
  8
rozmir
  6
ByLayer
 62
  256
370
   -1
100
AcDbDimension
  2
*D7
 10
120
 20
49
 30
0
 11
117.75
 21
65.5
 31
0
 70
   32
 71
    5
 72
    0
  3
Standard
 53
0
210
0
220
0
230
1
100
AcDbAlignedDimension
 13
115.6
 23
82
 33
0
 14
114.1
 24
49
 34
0
 50
90
100
AcDbRotatedDimension
  0
DIMENSION
  5
193
100
AcDbEntity
  8
rozmir
  6
ByLayer
 62
  256
370
   -1
100
AcDbDimension
  2
*D8
 10
125
 20
16.5
 30
0
 11
122.75
 21
49.25
 31
0
 70
   32
 71
    5
 72
    0
  3
Standard
 53
0
210
0
220
0
230
1
100
AcDbAlignedDimension
 13
115.6
 23
82
 33
0
 14
114.1
 24
16.5
 34
0
 50
90
100
AcDbRotatedDimension
  0
DIMENSION
  5
194
100
AcDbEntity
  8
rozmir
  6
ByLayer
 62
  256
370
   -1
100
AcDbDimension
  2
*D9
 10
50
 20
69
 30
0
 11
47.75
 21
75.50000000000001
 31
0
 70
   32
 71
    5
  3
Standard
 53
0
210
0
220
0
230
1
100
AcDbAlignedDimension
 13
45.6
 23
82.00000000000001
 33
0
 14
44.1
 24
69.00000000000001
 34
0
 50
90
100
AcDbRotatedDimension
  0
DIMENSION
  5
195
100
AcDbEntity
  8
rozmir
  6
ByLayer
 62
  256
370
   -1
100
AcDbDimension
  2
*D10
 10
45
 20
-80
 30
0
 11
22.8
 21
-77.75
 31
0
 70
   32
 71
    5
 72
    0
  3
Standard
 53
0
210
0
220
0
230
1
100
AcDbAlignedDimension
 13
6.106226635438361e-16
 23
-60
 33
0
 14
45.6
 24
-60
 34
0
100
AcDbRotatedDimension
  0
DIMENSION
  5
196
100
AcDbEntity
  8
rozmir
  6
ByLayer
 62
  256
370
   -1
100
AcDbDimension
  2
*D11
 10
11
 20
-67
 30
0
 11
5.5
 21
-64.75
 31
0
 70
   32
 71
    5
  3
Standard
 53
0
210
0
220
0
230
1
100
AcDbAlignedDimension
 13
0
 23
-60
 33
0
 14
11
 24
-58.50000000000001
 34
0
100
AcDbRotatedDimension
  0
DIMENSION
  5
197
100
AcDbEntity
  8
rozmir
  6
ByLayer
 62
  256
370
   -1
100
AcDbDimension
  2
*D12
 10
34.59999999999999
 20
-67
 30
0
 11
40.09999999999999
 21
-64.75
 31
0
 70
   32
 71
    5
  3
Standard
 53
0
210
0
220
0
230
1
100
AcDbAlignedDimension
 13
45.6
 23
-60
 33
0
 14
34.59999999999999
 24
-58.50000000000002
 34
0
100
AcDbRotatedDimension
  0
DIMENSION
  5
198
100
AcDbEntity
  8
rozmir
  6
ByLayer
 62
  256
370
   -1
100
AcDbDimension
  2
*D13
 10
23.6
 20
-72
 30
0
 11
34.59999999999999
 21
-69.75
 31
0
 70
   32
 71
    5
  3
Standard
 53
0
210
0
220
0
230
1
100
AcDbAlignedDimension
 13
45.59999999999999
 23
-58.50000000000001
 33
0
 14
23.6
 24
-58.50000000000004
 34
0
100
AcDbRotatedDimension
  0
DIMENSION
  5
199
100
AcDbEntity
  8
rozmir
  6
ByLayer
 62
  256
370
   -1
100
AcDbDimension
  2
*D14
 10
192.1
 20
-10
 30
0
 11
171.05
 21
-7.75
 31
0
 70
   32
 71
    5
  3
Standard
 53
0
210
0
220
0
230
1
100
AcDbAlignedDimension
 13
150
 23
0
 33
0
 14
192.1
 24
0
 34
0
100
AcDbRotatedDimension
  0
LWPOLYLINE
  5
19A
100
AcDbEntity
  8
karkas
  6
ByLayer
 62
  256
370
   -1
100
AcDbPolyline
 90
    4
 70
    1
 43
0
 10
3.299999999999976
 20
18.30000000000002
 10
42.4
 20
18.3
 10
42.40000000000001
 20
16.8
 10
3.3
 20
16.8
  0
LWPOLYLINE
  5
19B
100
AcDbEntity
  8
karkas
  6
ByLayer
 62
  256
370
   -1
100
AcDbPolyline
 90
    4
 70
    1
 43
0
 10
3.3
 20
67.2
 10
42.4
 20
67.2
 10
42.4
 20
65.7
 10
3.299999999999975
 20
65.69999999999997
  0
LWPOLYLINE
  5
19C
100
AcDbEntity
  8
karkas
  6
ByLayer
 62
  256
370
   -1
100
AcDbPolyline
 90
    4
 70
    1
 43
0
 10
3.299999999999976
 20
42.80000000000003
 10
42.4
 20
42.8
 10
42.4
 20
41.3
 10
3.300000000000001
 20
41.3
  0
LINE
  5
19D
100
AcDbEntity
  8
karkas
  6
DASHED2
 62
  256
370
   -1
100
AcDbLine
 10
42.4
 20
47.5
 11
44.1
 21
47.5
  0
LINE
  5
19E
100
AcDbEntity
  8
karkas
  6
DASHED2
 62
  256
370
   -1
100
AcDbLine
 10
42.4
 20
49.00000000000001
 11
44.1
 21
49
  0
LWPOLYLINE
  5
19F
100
AcDbEntity
  8
karkas
  6
ByLayer
 62
  256
370
   -1
100
AcDbPolyline
 90
    4
 70
    1
 43
0
 10
3.300000000000026
 20
49
 10
42.40000000000001
 20
49
 10
42.4
 20
47.50000000000001
 10
3.300000000000011
 20
47.5
  0
LWPOLYLINE
  5
1A0
100
AcDbEntity
  8
karkas
  6
ByLayer
 62
  256
370
   -1
100
AcDbPolyline
 90
    4
 70
    1
 43
0
 10
151.5
 20
50.40000000000001
 10
151.5
 20
0
 10
150
 20
0
 10
150
 20
50.40000000000001
  0
LWPOLYLINE
  5
1A1
100
AcDbEntity
  8
karkas
  6
ByLayer
 62
  256
370
   -1
100
AcDbPolyline
 90
    4
 70
    1
 43
0
 10
192
 20
50.40000000000001
 10
192.1
 20
0
 10
190.6
 20
0
 10
190.6
 20
50.40000000000001
  0
LWPOLYLINE
  5
1A2
100
AcDbEntity
  8
karkas
  6
ByLayer
 62
  256
370
   -1
100
AcDbPolyline
 90
    4
 70
    1
 43
0
 10
151.5
 20
1.500000000000018
 10
190.6
 20
1.5
 10
190.6
 20
0
 10
151.5
 20
0
  0
LWPOLYLINE
  5
1A3
100
AcDbEntity
  8
karkas
  6
ByLayer
 62
  256
370
   -1
100
AcDbPolyline
 90
    4
 70
    1
 43
0
 10
151.5
 20
50.40000000000001
 10
190.6
 20
50.40000000000001
 10
190.6
 20
48.90000000000001
 10
151.5
 20
48.89999999999998
  0
LWPOLYLINE
  5
1A4
100
AcDbEntity
  8
karkas
  6
ByLayer
 62
  256
370
   -1
100
AcDbPolyline
 90
    4
 70
    1
 43
0
 10
151.5
 20
26.00000000000003
 10
190.6
 20
26
 10
190.6
 20
24.5
 10
151.5
 20
24.5
  0
DIMENSION
  5
1A5
100
AcDbEntity
  8
rozmir
  6
ByLayer
 62
  256
370
   -1
100
AcDbDimension
  2
*D15
 10
190.5
 20
-5
 30
0
 11
171.05
 21
-2.75
 31
0
 70
   32
 71
    5
  3
Standard
 53
0
210
0
220
0
230
1
100
AcDbAlignedDimension
 13
151.5
 23
0
 33
0
 14
190.6
 24
0
 34
0
100
AcDbRotatedDimension
  0
DIMENSION
  5
1A6
100
AcDbEntity
  8
rozmir
  6
ByLayer
 62
  256
370
   -1
100
AcDbDimension
  2
*D16
 10
197
 20
26
 30
0
 11
194.75
 21
38.2
 31
0
 70
   32
 71
    5
  3
Standard
 53
0
210
0
220
0
230
1
100
AcDbAlignedDimension
 13
192
 23
50.40000000000001
 33
0
 14
190.6
 24
26
 34
0
 50
90
100
AcDbRotatedDimension
  0
DIMENSION
  5
1A7
100
AcDbEntity
  8
rozmir
  6
ByLayer
 62
  256
370
   -1
100
AcDbDimension
  2
*D17
 10
202
 20
-1.21240033115588e-15
 30
0
 11
199.75
 21
25.20000000000001
 31
0
 70
   32
 71
    5
  3
Standard
 53
0
210
0
220
0
230
1
100
AcDbAlignedDimension
 13
192
 23
50.40000000000001
 33
0
 14
192.1
 24
0
 34
0
 50
90
100
AcDbRotatedDimension
  0
DIMENSION
  5
1A8
100
AcDbEntity
  8
rozmir
  6
ByLayer
 62
  256
370
   -1
100
AcDbDimension
  2
*D18
 10
50
 20
88.5
 30
0
 11
47.75
 21
112.25
 31
0
 70
   32
 71
    5
  3
Standard
 53
0
210
0
220
0
230
1
100
AcDbAlignedDimension
 13
45.6
 23
136
 33
0
 14
44.1
 24
88.5
 34
0
 50
90
100
AcDbRotatedDimension
  0
LWPOLYLINE
  5
1A9
100
AcDbEntity
  8
karkas
  6
ByLayer
 62
  256
370
   -1
100
AcDbPolyline
 90
    4
 70
    1
 43
0
 10
43.9
 20
67.2
 10
43.9
 20
16.8
 10
42.4
 20
16.8
 10
42.4
 20
67.2
  0
LWPOLYLINE
  5
1AA
100
AcDbEntity
  8
karkas
  6
ByLayer
 62
  256
370
   -1
100
AcDbPolyline
 90
    4
 70
    1
 43
0
 10
77.00000000000018
 20
136.3999999999999
 10
75.50000000000018
 20
136.3999999999999
 10
75.50000000000018
 20
71.59999999999987
 10
77.0000000000002
 20
70.39999999999988
  0
LWPOLYLINE
  5
1AB
100
AcDbEntity
  8
bak
  6
ByLayer
 62
  256
370
   -1
100
AcDbPolyline
 90
    4
 70
    1
 43
0
 10
96.00000000000018
 20
99.79999999999987
 10
96.00000000000018
 20
99.39999999999986
 10
97.60000000000019
 20
99.39999999999986
 10
97.60000000000019
 20
99.79999999999987
  0
LWPOLYLINE
  5
1AC
100
AcDbEntity
  8
bak
  6
ByLayer
 62
  256
370
   -1
100
AcDbPolyline
 90
    4
 70
    1
 43
0
 10
95.60000000000019
 20
102.3999999999998
 10
95.60000000000019
 20
102.5999999999999
 10
98.00000000000018
 20
102.5999999999999
 10
98.00000000000018
 20
102.3999999999998
  0
LWPOLYLINE
  5
1AD
100
AcDbEntity
  8
bak
  6
ByLayer
 62
  256
370
   -1
100
AcDbPolyline
 90
    5
 70
    0
 43
0
 10
97.80000000000018
 20
102.5999999999999
 10
97.80000000000018
 20
103.2999999999999
 10
94.60000000000019
 20
103.5999999999999
 10
94.60000000000019
 20
102.5999999999999
 10
97.80000000000018
 20
102.5999999999999
  0
LWPOLYLINE
  5
1AE
100
AcDbEntity
  8
bak
  6
CONTINUOUS
 62
    3
370
   50
100
AcDbPolyline
 90
   10
 70
    0
 43
0
 10
93.60000000000019
 20
100.3999999999998
 10
95.80000000000018
 20
100.3999999999998
 10
95.80000000000018
 20
99.79999999999987
 10
97.80000000000018
 20
99.79999999999987
 10
97.80000000000018
 20
102.3999999999998
 10
95.80000000000018
 20
102.3999999999998
 10
95.80000000000018
 20
101.7999999999999
 10
93.80000000000018
 20
101.7999999999999
 10
93.80000000000018
 20
101.0999999999999
 10
93.60000000000019
 20
100.3999999999998
  0
LWPOLYLINE
  5
1AF
100
AcDbEntity
  8
bak
  6
ByLayer
 62
  256
370
   -1
100
AcDbPolyline
 90
    8
 70
    1
 43
0
 10
93.80000000000018
 20
126.5999999999999
 42
0.4142135623730961
 10
90.30000000000018
 20
130.0999999999999
 10
81.30000000000017
 20
130.0999999999998
 42
0.4142135623730878
 10
77.80000000000014
 20
126.5999995274188
 10
77.80000000000018
 20
101.5999999999999
 42
0.4142135623730974
 10
81.30000107081483
 20
98.09999999999987
 10
90.30000000000018
 20
98.09999999999989
 42
0.4142135623730927
 10
93.80000000000021
 20
101.5999994931919
  0
LWPOLYLINE
  5
1B0
100
AcDbEntity
  8
bak
  6
ByLayer
 62
  256
370
   -1
100
AcDbPolyline
 90
    4
 70
    1
 43
0
 10
78.80000000000018
 20
130.0999999999999
 10
78.80000000000018
 20
134.0999999999999
 10
92.80000000000018
 20
134.0999999999999
 10
92.80000000000018
 20
130.0999999999999
  0
LWPOLYLINE
  5
1B1
100
AcDbEntity
  8
bak
  6
ByLayer
 62
  256
370
   -1
100
AcDbPolyline
 90
    4
 70
    0
 43
0
 10
77.8000000000002
 20
126.5999999999999
 10
77.8000000000002
 20
132.4999999999998
 10
78.0000000000002
 20
132.4999999999998
 10
78.0000000000002
 20
127.7999999999999
  0
LINE
  5
1B2
100
AcDbEntity
  8
rozmir
  6
DASHDOT2
 62
  256
370
   -1
100
AcDbLine
 10
74.5000000000002
 20
131.5999999999999
 11
78.5000000000002
 21
131.5999999999999
  0
LWPOLYLINE
  5
1B3
100
AcDbEntity
  8
karkas
  6
ByLayer
 62
  256
370
   -1
100
AcDbPolyline
 90
    5
 70
    0
 43
0
 10
77
 20
78
 10
80.00000000000001
 20
78.00000000000001
 10
80
 20
68
 10
77.00000000000001
 20
70.40000000000001
 10
77
 20
78
  0
DIMENSION
  5
1B4
100
AcDbEntity
  8
rozmir
  6
ByLayer
 62
  256
370
   -1
100
AcDbDimension
  2
*D19
 10
86
 20
68
 30
0
 11
83.75
 21
73
 31
0
 70
   32
 71
    5
  3
Standard
 53
0
210
0
220
0
230
1
100
AcDbAlignedDimension
 13
80
 23
78
 33
0
 14
80
 24
68
 34
0
 50
90
100
AcDbRotatedDimension
  0
DIMENSION
  5
1B5
100
AcDbEntity
  8
rozmir
  6
ByLayer
 62
  256
370
   -1
100
AcDbDimension
  2
*D20
 10
73
 20
78.00000000000001
 30
0
 11
70.75
 21
74.19999999999993
 31
0
 70
   32
 71
    5
  3
Standard
 53
0
210
0
220
0
230
1
100
AcDbAlignedDimension
 13
77.0000000000002
 23
70.39999999999986
 33
0
 14
77.0000000000002
 24
78.00000000000001
 34
0
 50
90
100
AcDbRotatedDimension
  0
DIMENSION
  5
1B6
100
AcDbEntity
  8
rozmir
  6
ByLayer
 62
  256
370
   -1
100
AcDbDimension
  2
*D21
 10
68
 20
70.40000000000001
 30
0
 11
65.75
 21
103.3999999999999
 31
0
 70
   32
 71
    5
 72
    0
  3
Standard
 53
0
210
0
220
0
230
1
100
AcDbAlignedDimension
 13
75.50000000000018
 23
136.3999999999999
 33
0
 14
77.00000000000001
 24
70.40000000000001
 34
0
 50
90
100
AcDbRotatedDimension
  0
LINE
  5
1B7
100
AcDbEntity
  8
karkas
  6
ByLayer
 62
  256
370
   -1
100
AcDbLine
 10
78.5
 20
78
 11
78.50000000000001
 21
69.20000000000002
  0
LINE
  5
1B8
100
AcDbEntity
  8
rozmir
  6
DASHDOT2
 62
  256
370
   -1
100
AcDbLine
 10
78
 20
70
 11
83
 21
70
  0
LINE
  5
1B9
100
AcDbEntity
  8
rozmir
  6
DASHDOT2
 62
  256
370
   -1
100
AcDbLine
 10
78
 20
76
 11
83
 21
76
  0
LWPOLYLINE
  5
1BA
100
AcDbEntity
  8
obshivka
  6
ByLayer
 62
  256
370
   -1
100
AcDbPolyline
 90
    4
 70
    1
 43
0
 10
80.30000000000001
 20
81.70000000000002
 10
115.3
 20
81.70000000000002
 10
115.3
 20
15.3
 10
80.30000000000001
 20
15.3
  0
LWPOLYLINE
  5
1BB
100
AcDbEntity
  8
obshivka
  6
DASHED2
 62
  256
370
   -1
100
AcDbPolyline
 90
    5
 70
    1
 43
0
 10
0.3000000000000006
 20
81.70000000000002
 10
45.3
 20
81.7
 10
45.3
 20
15.3
 10
0.3000000000000006
 20
15.3
 10
0.3000000000000006
 20
15.3
  0
LWPOLYLINE
  5
1BC
100
AcDbEntity
  8
karkas
  6
ByLayer
 62
  256
370
   -1
100
AcDbPolyline
 90
    4
 70
    1
 43
0
 10
0
 20
-88.50000000000001
 10
1.5
 20
-88.50000000000001
 10
1.5
 20
-90.00000000000001
 10
0
 20
-90.00000000000001
  0
LWPOLYLINE
  5
1BD
100
AcDbEntity
  8
karkas
  6
ByLayer
 62
  256
370
   -1
100
AcDbPolyline
 90
    4
 70
    1
 43
0
 10
44.09999999999999
 20
-88.50000000000001
 10
45.59999999999999
 20
-88.50000000000001
 10
45.59999999999999
 20
-90.00000000000001
 10
44.09999999999999
 20
-90.00000000000001
  0
LWPOLYLINE
  5
1BE
100
AcDbEntity
  8
karkas
  6
ByLayer
 62
  256
370
   -1
100
AcDbPolyline
 90
    4
 70
    1
 43
0
 10
1.799999999999997
 20
-88.50000000000001
 10
43.89999999999999
 20
-88.5
 10
43.89999999999999
 20
-90
 10
1.799999999999997
 20
-90.00000000000001
  0
LWPOLYLINE
  5
1BF
100
AcDbEntity
  8
obshivka
  6
ByLayer
 62
  256
370
   -1
100
AcDbPolyline
 90
   18
 70
    0
 43
0
 10
0.2999999999999972
 20
-90
 10
2.099999999999994
 20
-90
 10
3
 20
-90.80000000000001
 10
7.900000000000006
 20
-90.80000000000001
 10
8.800000000000011
 20
-90
 10
13.7
 20
-90
 10
14.59999999999999
 20
-90.80000000000001
 10
19.50000000000001
 20
-90.80000000000001
 10
20.40000000000001
 20
-90
 10
25.3
 20
-90
 10
26.20000000000002
 20
-90.80000000000001
 10
31.10000000000002
 20
-90.80000000000001
 10
32
 20
-90
 10
36.89999999999999
 20
-90
 10
37.8
 20
-90.80000000000001
 10
42.69999999999999
 20
-90.80000000000001
 10
43.59999999999999
 20
-90
 10
45.3
 20
-90
  0
CIRCLE
  5
1C0
100
AcDbEntity
  8
karkas
  6
ByLayer
 62
  256
370
   -1
100
AcDbCircle
 10
44.8
 20
-90.70000000000002
 40
0.5999999999999943
  0
LINE
  5
1C1
100
AcDbEntity
  8
rozmir
  6
ByLayer
 62
  256
370
   -1
100
AcDbLine
 10
45.09999999999999
 20
-90.70000000000002
 11
44.5
 21
-90.70000000000002
  0
LINE
  5
1C2
100
AcDbEntity
  8
rozmir
  6
ByLayer
 62
  256
370
   -1
100
AcDbLine
 10
44.8
 20
-90.40000000000002
 11
44.8
 21
-91.00000000000001
  0
LWPOLYLINE
  5
1C3
100
AcDbEntity
  8
karkas
  6
ByLayer
 62
  256
370
   -1
100
AcDbPolyline
 90
    4
 70
    1
 43
0
 10
43.09999999999999
 20
-90
 10
44.5
 20
-90
 10
44.5
 20
-90.20000000000002
 10
43.09999999999999
 20
-90.20000000000002
  0
LWPOLYLINE
  5
1C4
100
AcDbEntity
  8
karkas
  6
ByLayer
 62
  256
370
   -1
100
AcDbPolyline
 90
    4
 70
    1
 43
0
 10
45.09999999999999
 20
-90
 10
45.5
 20
-90
 10
45.5
 20
-90.20000000000002
 10
45.09999999999999
 20
-90.20000000000002
  0
LINE
  5
1C5
100
AcDbEntity
  8
karkas
  6
DASHED2
 62
  256
370
   -1
100
AcDbLine
 10
42.39999999999999
 20
-88.5
 11
42.39999999999999
 21
-90
  0
LINE
  5
1C6
100
AcDbEntity
  8
karkas
  6
DASHED2
 62
  256
370
   -1
100
AcDbLine
 10
3.299999999999983
 20
-88.50000000000001
 11
3.299999999999983
 21
-90.00000000000001
  0
LWPOLYLINE
  5
1C7
100
AcDbEntity
  8
obshivka
  6
ByLayer
 62
  256
370
   -1
100
AcDbPolyline
 90
    6
 70
    1
 43
0
 10
60
 20
-20
 10
105
 20
-20.00000000000001
 10
105
 20
-86.40000000000002
 10
60
 20
-86.40000000000002
 10
60
 20
-86.40000000000002
 10
60
 20
-86.40000000000002
  0
DIMENSION
  5
1C8
100
AcDbEntity
  8
rozmir
  6
ByLayer
 62
  256
370
   -1
100
AcDbDimension
  2
*D22
 10
105
 20
-92
 30
0
 11
82.5
 21
-89.75
 31
0
 70
   32
 71
    5
  3
Standard
 53
0
210
0
220
0
230
1
100
AcDbAlignedDimension
 13
60
 23
-86.40000000000002
 33
0
 14
105
 24
-86.40000000000002
 34
0
100
AcDbRotatedDimension
  0
LWPOLYLINE
  5
1C9
100
AcDbEntity
  8
obshivka
  6
ByLayer
 62
  256
370
   -1
100
AcDbPolyline
 90
    4
 70
    1
 43
0
 10
120
 20
-20
 10
155
 20
-20
 10
155
 20
-86.40000000000002
 10
120
 20
-86.40000000000002
  0
DIMENSION
  5
1CA
100
AcDbEntity
  8
rozmir
  6
ByLayer
 62
  256
370
   -1
100
AcDbDimension
  2
*D23
 10
155
 20
-92
 30
0
 11
137.5
 21
-89.75
 31
0
 70
   32
 71
    5
  3
Standard
 53
0
210
0
220
0
230
1
100
AcDbAlignedDimension
 13
120
 23
-86.40000000000002
 33
0
 14
155
 24
-86.40000000000002
 34
0
100
AcDbRotatedDimension
  0
DIMENSION
  5
1CB
100
AcDbEntity
  8
rozmir
  6
ByLayer
 62
  256
370
   -1
100
AcDbDimension
  2
*D24
 10
110
 20
-20.00000000000001
 30
0
 11
107.75
 21
-53.20000000000002
 31
0
 70
   32
 71
    5
  3
Standard
 53
0
210
0
220
0
230
1
100
AcDbAlignedDimension
 13
105
 23
-86.40000000000002
 33
0
 14
105
 24
-20.00000000000001
 34
0
 50
90
100
AcDbRotatedDimension
  0
LWPOLYLINE
  5
1CC
100
AcDbEntity
  8
obshivka
  6
ByLayer
 62
  256
370
   -1
100
AcDbPolyline
 90
    4
 70
    1
 43
0
 10
0.3
 20
135.7
 10
45.3
 20
135.7
 10
45.3
 20
87.00000000000001
 10
0.3
 20
87.00000000000001
  0
LWPOLYLINE
  5
1CD
100
AcDbEntity
  8
obshivka
  6
ByLayer
 62
  256
370
   -1
100
AcDbPolyline
 90
    4
 70
    1
 43
0
 10
170
 20
-20
 10
215
 20
-20
 10
215
 20
-68.69999999999997
 10
170
 20
-68.69999999999997
  0
DIMENSION
  5
1CE
100
AcDbEntity
  8
rozmir
  6
ByLayer
 62
  256
370
   -1
100
AcDbDimension
  2
*D25
 10
215
 20
-74
 30
0
 11
192.5
 21
-71.75
 31
0
 70
   32
 71
    5
  3
Standard
 53
0
210
0
220
0
230
1
100
AcDbAlignedDimension
 13
170
 23
-68.69999999999997
 33
0
 14
215
 24
-68.69999999999997
 34
0
100
AcDbRotatedDimension
  0
DIMENSION
  5
1CF
100
AcDbEntity
  8
rozmir
  6
ByLayer
 62
  256
370
   -1
100
AcDbDimension
  2
*D26
 10
220
 20
-20
 30
0
 11
217.75
 21
-44.34999999999999
 31
0
 70
   32
 71
    5
  3
Standard
 53
0
210
0
220
0
230
1
100
AcDbAlignedDimension
 13
215
 23
-68.69999999999997
 33
0
 14
215
 24
-20
 34
0
 50
90
100
AcDbRotatedDimension
  0
LWPOLYLINE
  5
1D0
100
AcDbEntity
  8
karkas
  6
ByLayer
 62
  256
370
   -1
100
AcDbPolyline
 90
    5
 70
    0
 43
0
 10
167.9999999999999
 20
94.00000000000006
 10
179.9999999999999
 20
94.00000000000011
 10
179.9999999999999
 20
70.00000000000006
 10
167.9999999999999
 20
79.60000000000008
 10
167.9999999999999
 20
94.00000000000006
  0
LWPOLYLINE
  5
1D1
100
AcDbEntity
  8
karkas
  6
ByLayer
 62
  256
370
   -1
100
AcDbPolyline
 90
    4
 70
    1
 43
0
 10
167.9999999999999
 20
94.00000000000006
 10
161.9999999999999
 20
94.00000000000006
 10
162.0000000000007
 20
84.39999999999952
 10
168.0000000000007
 20
79.59999999999957
  0
LINE
  5
1D2
100
AcDbEntity
  8
krepezh
  6
DASHED2
 62
  256
370
   -1
100
AcDbLine
 10
174.5999999999999
 20
79.20000000000005
 11
180.5999999999999
 21
79.20000000000005
  0
LINE
  5
1D3
100
AcDbEntity
  8
krepezh
  6
DASHED2
 62
  256
370
   -1
100
AcDbLine
 10
180.5999999999999
 20
76.80000000000001
 11
174.5999999999999
 21
76.80000000000007
  0
LWPOLYLINE
  5
1D4
100
AcDbEntity
  8
karkas
  6
ByLayer
 62
  256
370
   -1
100
AcDbPolyline
 90
    6
 70
    0
 43
0
 10
173.9999999999999
 20
94.00000000000006
 10
174.7999999999998
 20
94.00000000000006
 10
174.7999999999998
 20
79.80000000000001
 10
173.9999999999999
 20
79.80000000000001
 10
173.9999999999999
 20
94.00000000000011
 10
174.7999999999998
 20
94.00000000000011
  0
LWPOLYLINE
  5
1D5
100
AcDbEntity
  8
karkas
  6
ByLayer
 62
  256
370
   -1
100
AcDbPolyline
 90
    6
 70
    0
 43
0
 10
179.1999999999999
 20
94.00000000000011
 10
179.9999999999999
 20
94.00000000000011
 10
179.9999999999999
 20
79.80000000000007
 10
179.1999999999999
 20
79.80000000000007
 10
179.1999999999999
 20
94.00000000000017
 10
179.9999999999994
 20
94.00000000000017
  0
LWPOLYLINE
  5
1D6
100
AcDbEntity
  8
krepezh
  6
ByLayer
 62
  256
370
   -1
100
AcDbPolyline
 90
    9
 70
    0
 43
0
 10
174.5999999999999
 20
79.80000000000001
 10
179.9999999999999
 20
79.80000000000007
 10
179.9999999999999
 20
80.60000000000008
 10
180.5999999999999
 20
80.60000000000008
 10
180.5999999999999
 20
75.40000000000003
 10
179.9999999999999
 20
75.40000000000003
 10
179.9999999999999
 20
76.20000000000005
 10
174.5999999999999
 20
76.20000000000005
 10
174.5999999999999
 20
79.80000000000007
  0
LWPOLYLINE
  5
1D7
100
AcDbEntity
  8
karkas
  6
ByLayer
 62
  256
370
   -1
100
AcDbPolyline
 90
    6
 70
    0
 43
0
 10
173.1999999999999
 20
94.00000000000006
 10
173.9999999999999
 20
94.00000000000006
 10
173.9999999999999
 20
79.20000000000005
 10
173.1999999999999
 20
79.20000000000005
 10
173.1999999999999
 20
94.00000000000011
 10
173.9999999999999
 20
94.00000000000011
  0
LWPOLYLINE
  5
1D8
100
AcDbEntity
  8
karkas
  6
ByLayer
 62
  256
370
   -1
100
AcDbPolyline
 90
    5
 70
    0
 43
0
 10
173.1999999999999
 20
76.80000000000007
 10
173.9999999999999
 20
76.80000000000007
 10
173.9999999999999
 20
75.82449987798935
 10
173.1999999999998
 20
76.4644998779894
 10
173.1999999999999
 20
76.80000000000007
  0
LWPOLYLINE
  5
1D9
100
AcDbEntity
  8
karkas
  6
ByLayer
 62
  256
370
   -1
100
AcDbPolyline
 90
    5
 70
    0
 43
0
 10
174.7999999999998
 20
76.20000000000005
 10
174.8
 20
75.18449987798931
 10
173.9999999999999
 20
75.82449987798935
 10
173.9999999999999
 20
76.20000000000005
 10
174.7999999999998
 20
76.20000000000005
  0
LWPOLYLINE
  5
1DA
100
AcDbEntity
  8
karkas
  6
ByLayer
 62
  256
370
   -1
100
AcDbPolyline
 90
    5
 70
    0
 43
0
 10
179.9999999999999
 20
76.20000000000005
 10
179.9999999999999
 20
71.02449987798934
 10
179.1999999999999
 20
71.66449987798933
 10
179.1999999999999
 20
76.20000000000005
 10
179.9999999999999
 20
76.20000000000005
  0
LWPOLYLINE
  5
1DB
100
AcDbEntity
  8
karkas
  6
ByLayer
 62
  256
370
   -1
100
AcDbPolyline
 90
    5
 70
    0
 43
0
 10
170.7999999999998
 20
77.36000000000007
 10
170.7999999999998
 20
78.38449987798936
 10
179.9999999999999
 20
71.02449987798934
 10
180
 20
70.00000000000011
 10
170.7999999999998
 20
77.36000000000007
  0
LWPOLYLINE
  5
1DC
100
AcDbEntity
  8
karkas
  6
ByLayer
 62
  256
370
   -1
100
AcDbPolyline
 90
    6
 70
    0
 43
0
 10
170.8
 20
94.00000000000011
 10
170.8
 20
87.2000000000001
 10
169.5999999999999
 20
86.40000000000009
 10
172
 20
84.80000000000013
 10
170.8
 20
84.00000000000011
 10
170.7999999999998
 20
77.36000000000013
  0
LINE
  5
1DD
100
AcDbEntity
  8
rozmir
  6
DASHDOT2
 62
  256
370
   -1
100
AcDbLine
 10
171.9999999999999
 20
78.00000000000011
 11
184
 21
78.00000000000011
  0
ENDSEC
  0
SECTION
  2
OBJECTS
  0
DICTIONARY
  5
C
330
0
100
AcDbDictionary
281
    1
  3
ACAD_GROUP
350
D
  0
DICTIONARY
  5
D
330
C
100
AcDbDictionary
281
    1
  0
ENDSEC
  0
EOF
